<svg width="7" height="12" viewBox="0 0 7 12" fill="none" xmlns="http://www.w3.org/2000/svg">
<path d="M1.06641 11.6913C1.3584 11.6913 1.59326 11.5897 1.79639 11.3866L6.57617 6.72742C6.84912 6.45447 6.96973 6.18787 6.97607 5.85144C6.97607 5.52136 6.84912 5.24207 6.57617 4.97546L1.80273 0.309937C1.59326 0.113159 1.35205 0.0115967 1.06641 0.0115967C0.482422 0.0115967 0 0.481323 0 1.06531C0 1.3573 0.126953 1.6239 0.342773 1.84607L4.48779 5.85779L0.342773 9.85681C0.120605 10.079 0 10.3456 0 10.6376C0 11.2152 0.482422 11.6913 1.06641 11.6913Z" fill="#ABABAB"/>
</svg>
