<svg width="14" height="16" viewBox="0 0 14 16" fill="none" xmlns="http://www.w3.org/2000/svg">
<path opacity="0.4" d="M1.06177 6.26931H12.9444" stroke="#00B06C" stroke-linecap="round" stroke-linejoin="round"/>
<path opacity="0.4" fill-rule="evenodd" clip-rule="evenodd" d="M3.53857 8.87305C3.53857 8.5969 3.76243 8.37305 4.03857 8.37305H4.04475C4.32089 8.37305 4.54475 8.5969 4.54475 8.87305C4.54475 9.14919 4.32089 9.37305 4.04475 9.37305H4.03857C3.76243 9.37305 3.53857 9.14919 3.53857 8.87305ZM7.00306 8.37305C6.72691 8.37305 6.50306 8.5969 6.50306 8.87305C6.50306 9.14919 6.72691 9.37305 7.00306 9.37305H7.00923C7.28537 9.37305 7.50923 9.14919 7.50923 8.87305C7.50923 8.5969 7.28537 8.37305 7.00923 8.37305H7.00306ZM9.96136 8.37305C9.68522 8.37305 9.46136 8.5969 9.46136 8.87305C9.46136 9.14919 9.68522 9.37305 9.96136 9.37305H9.96754C10.2437 9.37305 10.4675 9.14919 10.4675 8.87305C10.4675 8.5969 10.2437 8.37305 9.96754 8.37305H9.96136ZM9.96136 10.9639C9.68522 10.9639 9.46136 11.1878 9.46136 11.4639C9.46136 11.7401 9.68522 11.9639 9.96136 11.9639H9.96754C10.2437 11.9639 10.4675 11.7401 10.4675 11.4639C10.4675 11.1878 10.2437 10.9639 9.96754 10.9639H9.96136ZM6.50306 11.4639C6.50306 11.1878 6.72691 10.9639 7.00306 10.9639H7.00923C7.28537 10.9639 7.50923 11.1878 7.50923 11.4639C7.50923 11.7401 7.28537 11.9639 7.00923 11.9639H7.00306C6.72691 11.9639 6.50306 11.7401 6.50306 11.4639ZM4.03857 10.9639C3.76243 10.9639 3.53857 11.1878 3.53857 11.4639C3.53857 11.7401 3.76243 11.9639 4.03857 11.9639H4.04475C4.32089 11.9639 4.54475 11.7401 4.54475 11.4639C4.54475 11.1878 4.32089 10.9639 4.04475 10.9639H4.03857Z" fill="#00B06C"/>
<path d="M9.69576 1.33325V3.52711" stroke="#00B06C" stroke-linecap="round" stroke-linejoin="round"/>
<path d="M4.31039 1.33325V3.52711" stroke="#00B06C" stroke-linecap="round" stroke-linejoin="round"/>
<path fill-rule="evenodd" clip-rule="evenodd" d="M9.82551 2.38599H4.18064C2.22285 2.38599 1 3.47661 1 5.48134V11.5144C1 13.5507 2.22285 14.6665 4.18064 14.6665H9.81933C11.7833 14.6665 13 13.5696 13 11.5649V5.48134C13.0062 3.47661 11.7895 2.38599 9.82551 2.38599Z" stroke="#00B06C" stroke-linecap="round" stroke-linejoin="round"/>
</svg>
