<svg width="23" height="22" viewBox="0 0 23 22" fill="none" xmlns="http://www.w3.org/2000/svg">
<path d="M21.9999 17.1111C21.9999 19.5084 19.9335 21.4999 17.3234 21.4999C14.7134 21.4999 12.647 19.5084 12.647 17.1111C12.647 14.7137 14.7134 12.7222 17.3234 12.7222C19.9335 12.7222 21.9999 14.7137 21.9999 17.1111Z" stroke="#363853"/>
<path d="M10.3529 17.1112C10.3529 19.5086 8.28652 21.5001 5.67647 21.5001C3.06642 21.5001 1 19.5086 1 17.1112C1 14.7138 3.06642 12.7223 5.67647 12.7223C8.28652 12.7223 10.3529 14.7138 10.3529 17.1112Z" stroke="#363853"/>
<path d="M21.9999 4.88889C21.9999 7.28626 19.9335 9.27778 17.3234 9.27778C14.7134 9.27778 12.647 7.28626 12.647 4.88889C12.647 2.49151 14.7134 0.5 17.3234 0.5C19.9335 0.5 21.9999 2.49151 21.9999 4.88889Z" stroke="#363853"/>
<path d="M10.3529 4.88889C10.3529 7.28626 8.28652 9.27778 5.67647 9.27778C3.06642 9.27778 1 7.28626 1 4.88889C1 2.49151 3.06642 0.5 5.67647 0.5C8.28652 0.5 10.3529 2.49151 10.3529 4.88889Z" stroke="#363853"/>
</svg>
