<svg width="354" height="378" viewBox="0 0 354 378" fill="none" xmlns="http://www.w3.org/2000/svg">
<path d="M159.746 38.7374C247.538 30.6634 247.708 81.8295 287.278 129.457C326.848 177.085 335.309 198.73 320.398 253.668C305.488 308.607 255.213 351.676 193.029 327.272C130.845 302.869 95.2259 326.327 56.0098 304.668C16.7937 283.009 2.20183 241.126 30.9325 191.79C59.6631 142.453 51.4574 48.694 159.746 38.7374Z" fill="#00B06C"/>
<path opacity="0.7" d="M159.746 38.7374C247.538 30.6634 247.708 81.8295 287.278 129.457C326.848 177.085 335.309 198.73 320.398 253.668C305.488 308.607 255.213 351.676 193.029 327.272C130.845 302.869 95.2259 326.327 56.0098 304.668C16.7937 283.009 2.20183 241.126 30.9325 191.79C59.6631 142.453 51.4574 48.694 159.746 38.7374Z" fill="white"/>
<path d="M141.869 279.455C129.387 279.077 116.452 279.569 108.536 282.343L105.294 295.195C105.294 295.195 122.831 303.806 175.726 297.38" stroke="#263238" stroke-linecap="round" stroke-linejoin="round"/>
<path d="M180.221 295.21L176.681 282.358C176.681 282.358 163.399 280.476 147.972 279.72" stroke="#263238" stroke-linecap="round" stroke-linejoin="round"/>
<path d="M177.694 296.859L176.434 324.861" stroke="#263238" stroke-linecap="round" stroke-linejoin="round"/>
<path d="M107.75 296.125L108.628 318.616" stroke="#263238" stroke-linecap="round" stroke-linejoin="round"/>
<path d="M176.696 282.343C176.696 282.343 166.465 288.149 142.761 287.446C119.057 286.743 111.999 283.44 111.999 283.44" stroke="#263238" stroke-linecap="round" stroke-linejoin="round"/>
<path d="M142.761 282.343L147.717 256.639L165.134 247.068C165.134 247.068 167.343 246.91 167.343 250.478L151.059 258.99L146.209 282.374C146.209 282.374 154.705 283.712 144.39 283.946C134.074 284.18 135.632 282.215 140.255 282.374" stroke="#263238" stroke-linecap="round" stroke-linejoin="round"/>
<path d="M187.571 328.104L185.496 313.12L192.08 311.359C192.08 311.359 202.346 320.015 220.634 321.126C238.922 322.237 244.565 313.74 244.565 313.74L253.634 316.212C253.142 323.208 252.138 330.151 250.632 336.979" stroke="#263238" stroke-linecap="round" stroke-linejoin="round"/>
<path d="M188.243 312.387L186.282 293.835L192.937 290.274L193.985 294.182L198.566 294.394L199.132 280.083L204.216 279.198L205.179 285.677L208.789 285.844L208.527 292.504L212.379 292.678L213.016 276.764L219.091 275.539L219.6 281.005L223.693 281.194L224.025 272.735L229.491 274.851L229.328 279.04L234.044 281.663L233.824 287.235L238.355 288.497L237.18 293.804L242.235 294.031L244.55 284.377L250.71 287.227L246.597 299.663L250.115 302.143L251.34 296.783L256.438 300.88L252.006 315.282" stroke="#263238" stroke-linecap="round" stroke-linejoin="round"/>
<path d="M229.328 279.032L226.525 304.275" stroke="#263238" stroke-linecap="round" stroke-linejoin="round"/>
<path d="M231.233 315.963L234.044 293.827L237.18 293.804" stroke="#263238" stroke-linecap="round" stroke-linejoin="round"/>
<path d="M219.6 281.005L218.39 318.518" stroke="#263238" stroke-linecap="round" stroke-linejoin="round"/>
<path d="M206.396 318.518L207.359 298.061H201.044V314.443" stroke="#263238" stroke-linecap="round" stroke-linejoin="round"/>
<path d="M192.094 311.359L191.146 298.061H197.121L196.399 311.359" stroke="#263238" stroke-linecap="round" stroke-linejoin="round"/>
<path d="M205.178 285.677H202.87L203.125 295.415" stroke="#263238" stroke-linecap="round" stroke-linejoin="round"/>
<path d="M215.437 317.165L216.16 292.678H210.255L209.377 319.372" stroke="#263238" stroke-linecap="round" stroke-linejoin="round"/>
<path d="M236.642 317.036L239.899 297.093L246.221 298.061L242.334 314.209" stroke="#263238" stroke-linecap="round" stroke-linejoin="round"/>
<path d="M247.85 312.878L250.115 302.143" stroke="#263238" stroke-linecap="round" stroke-linejoin="round"/>
<path d="M223.693 281.194L226.525 281.096L224.521 304.706" stroke="#263238" stroke-linecap="round" stroke-linejoin="round"/>
<path d="M221.356 318.518L222.546 304.706H229.328L227.445 317.165" stroke="#263238" stroke-linecap="round" stroke-linejoin="round"/>
<path d="M267.036 326.365V300.744L281.876 298.061" stroke="#263238" stroke-linecap="round" stroke-linejoin="round"/>
<path d="M95.5234 318.518V295.21L70.6938 290.546" stroke="#263238" stroke-linecap="round" stroke-linejoin="round"/>
<path d="M95.5235 295.21L77.2075 300.737L74.7507 317.036" stroke="#263238" stroke-linecap="round" stroke-linejoin="round"/>
<path d="M77.2074 300.737L66.2122 298.061" stroke="#263238" stroke-linecap="round" stroke-linejoin="round"/>
<path d="M151.512 57.3048C149.388 43.6968 135.327 34.8365 120.084 37.5354C104.841 40.2343 94.164 53.4643 96.288 67.0799C98.235 79.6295 110.335 88.1193 124.148 87.2651C128.311 93.5701 136.948 96.6773 136.948 96.6773C134.414 93.7364 132.807 89.0114 131.936 85.7984C144.871 81.648 153.395 69.6276 151.512 57.3048Z" fill="white" stroke="#263238" stroke-linecap="round" stroke-linejoin="round"/>
<path d="M129.175 53.8045C125.252 52.9351 123.157 55.6718 122.258 57.388C121.068 55.876 118.533 53.608 114.831 55.2334C110.809 57.01 109.875 62.7934 113.797 67.5788C116.629 71.0262 120.877 73.1506 123.05 74.0653C123.305 74.1787 123.546 74.2694 123.758 74.3375C123.928 74.2316 124.148 74.0956 124.382 73.9368C126.329 72.576 130.145 69.6805 132.325 65.772C135.37 60.2456 133.43 54.7571 129.175 53.8045Z" fill="#00B06C"/>
<path d="M204.329 197.059C205.037 201.262 209.497 204.619 214.298 207.136C219.254 209.752 224.542 211.536 226.383 212.587C232.755 216.231 238.292 218.272 240.543 224.532C242.795 230.792 258.293 241.791 261.96 247.25C263.702 249.835 268.651 251.514 273.734 253.638C276.204 254.613 278.598 255.796 280.892 257.176C283.675 258.945 285.919 261.122 286.917 264.033C288.623 269.045 293.997 292.307 298.904 314.058C303.676 335.263 325.298 333.865 330.834 321.474C336.41 308.974 339.805 295.493 340.853 281.693C340.853 281.693 334.212 263.61 333.376 256.639C332.541 249.669 330.381 251.287 324.583 242.427C318.784 233.566 317.729 225.122 313.064 214.885C308.398 204.649 300.652 172.05 299.47 165.118C298.55 159.66 295.222 159.493 290.903 157.558L290.783 157.513C289.547 156.959 288.362 156.283 287.243 155.494C285.508 154.247 282.995 151.563 280.269 148.327C273.593 140.419 265.521 129.246 263.723 127.499C261.188 125.035 257.861 124.317 247.17 123.069C238.674 122.071 234.122 121.172 232.182 122.102C224.153 125.972 217.314 125.814 215.041 127.394C214.754 127.562 214.528 127.829 214.4 128.151C214.271 128.473 214.248 128.832 214.333 129.17C215.36 134.757 231.254 135.974 231.254 135.974C231.254 135.974 248.069 162.434 252.381 169.336C255.574 174.402 264.877 179.603 264.877 179.603C265.635 183.126 266.222 186.596 266.222 186.596C265.514 191.245 258.541 202.638 254.824 202.336C251.107 202.033 233.824 196.462 225.739 195.396C217.654 194.33 203.862 194.156 204.329 197.059ZM259.418 154.867C255.524 151.087 249.414 141.78 245.124 136.949C248.602 138.642 252.18 140.089 255.836 141.281C255.836 141.281 264.941 156.689 271.752 164.044C270.371 163.092 268.92 162.102 267.504 161.111H267.461C264.647 159.233 261.959 157.146 259.418 154.867Z" fill="white"/>
<path opacity="0.4" d="M204.329 197.059C205.037 201.262 209.497 204.619 214.298 207.136C220.45 206.887 226.829 206.38 229.321 205.685C234.624 204.233 228.507 209.004 228.507 209.004C228.507 209.004 232.309 210.055 235.651 206.229C235.651 206.229 245.053 205.753 246.214 207.144C247.375 208.535 245.28 211.347 246.738 215.604C246.738 215.604 252.848 208.527 255.149 207.915C257.45 207.303 255.461 211.181 260.934 216.828C266.406 222.476 270.237 228.478 276.658 227.692C276.556 225.113 276.696 222.53 277.076 219.981C277.699 216.201 278.676 212.171 278.272 206.328C277.869 200.484 275.667 198.654 275.667 198.654C275.667 198.654 271.525 190.95 270.045 186.861C268.566 182.771 269.337 181.924 269.337 181.924C269.337 181.924 258.675 174.228 255.255 169.344C251.836 164.46 246.143 156.091 246.129 152.463C246.115 148.834 231.566 128.981 229.895 129.14L229.668 132.111C227.904 132.231 226.149 131.766 224.641 130.78C223.394 129.839 221.857 129.439 220.344 129.662L227.226 127.696C226.036 127.998 221.562 129.087 220.089 128.452C218.772 127.877 216.726 126.804 215.069 127.341C214.782 127.51 214.556 127.776 214.428 128.098C214.3 128.421 214.276 128.779 214.361 129.117C215.388 134.704 231.282 135.921 231.282 135.921C231.282 135.921 248.097 162.381 252.409 169.284C255.602 174.349 264.905 179.55 264.905 179.55C265.663 183.073 266.251 186.543 266.251 186.543C265.543 191.192 258.569 202.585 254.852 202.283C251.135 201.981 233.853 196.409 225.767 195.343C217.682 194.277 203.862 194.156 204.329 197.059Z" fill="#00B06C"/>
<path opacity="0.4" d="M239.856 132.126C241.528 133.835 243.287 135.446 245.124 136.949C248.602 138.642 252.18 140.089 255.836 141.281C255.836 141.281 264.941 156.689 271.752 164.044C270.371 163.092 268.92 162.102 267.504 161.111C268.455 161.936 269.455 162.694 270.498 163.379C273.394 165.171 276.233 167.227 276.233 167.227C276.233 167.227 278.563 166.048 273.21 160.068C267.858 154.088 258.944 140.684 258.016 138.023C257.089 135.362 243.602 133.449 239.856 132.126Z" fill="#00B06C"/>
<path opacity="0.4" d="M237.18 124.543C237.18 124.543 257.471 128.475 260.842 129.835C264.212 131.196 276.283 151.676 290.818 157.497C289.582 156.943 288.397 156.268 287.278 155.479C285.544 154.232 283.03 151.548 280.304 148.312C277.43 146.339 274.848 143.918 272.644 141.13C268.084 135.453 262.357 128.732 260.19 127.575C258.024 126.418 244.055 124.354 241.074 124.029C238.093 123.704 237.18 124.543 237.18 124.543Z" fill="#00B06C"/>
<path opacity="0.4" d="M284.85 168.588C284.85 168.588 293.742 168.414 294.832 172.791C295.923 177.169 300.999 191.812 300.999 191.812C300.999 191.812 293.87 179.535 291.533 175.762C289.197 171.99 284.85 168.588 284.85 168.588Z" fill="#00B06C"/>
<path opacity="0.4" d="M280.899 257.184C283.682 258.953 285.926 261.13 286.924 264.041C288.631 269.053 294.004 292.315 298.911 314.065C296.553 295.838 290.528 269.703 292.539 271.094C295.236 272.916 299.484 293.487 300.192 289.155C300.9 284.823 300.419 266.369 303.52 265.038C306.621 263.708 308.306 257.675 308.306 257.675C303.194 259.875 296.312 258.809 296.312 258.809C291.696 260.654 285.586 259.074 280.899 257.184Z" fill="#00B06C"/>
<path d="M259.425 154.867C255.524 151.087 249.414 141.78 245.117 136.949C248.603 138.65 252.191 140.103 255.857 141.296C255.857 141.296 264.962 156.704 271.773 164.06C267.312 160.968 262.215 157.566 259.425 154.867Z" stroke="#263238" stroke-linecap="round" stroke-linejoin="round"/>
<path d="M340.86 281.701C337.22 272.531 333.73 262.37 332.364 252.391C329.121 248.316 325.822 244.997 323.287 240.99C311.648 216.473 304.95 192.379 299.888 165.39C299.114 164.166 298.497 162.836 298.054 161.436C293.402 157.248 287.052 156.696 283.186 151.812C276.049 142.846 269.621 133.948 261.726 125.685C252.721 122.661 242.787 122.533 233.612 121.739C227.735 124.264 221.271 125.224 215.459 127.031C213.221 128.354 215.112 131.567 216.464 132.429C221.293 134.356 226.121 136.292 231.113 135.967C242.087 150.565 248.48 169.321 264.672 180.571C266.024 181.448 266.505 184.525 266.336 186.785C264.41 193.445 260.254 201.429 253.082 202.328C237.839 197.218 222.546 192.863 206.028 195.23C204.563 195.857 203.798 196.553 204.329 198.873C206.163 202.827 210.227 205.451 213.639 207.265C221.229 210.191 228.826 213.124 235.587 217.501C238.943 220.064 240.012 224.714 242.554 228.72C248.388 236.054 255.864 240.491 261.762 247.068C266.357 252.013 273.359 253.373 279.54 256.186C283.66 258.061 286.96 261.38 288.036 266.014C291.774 282.268 295.519 298.522 299.555 315.108" stroke="#263238" stroke-linecap="round" stroke-linejoin="round"/>
<path d="M231.254 135.906C231.254 135.906 226.149 124.566 232.21 123.266C232.21 123.266 238.582 131.627 242.589 134.523C246.597 137.418 254.668 150.278 259.425 154.867C264.183 159.456 275.589 166.093 279.249 169.76" stroke="#263238" stroke-linecap="round" stroke-linejoin="round"/>
<path d="M245.117 136.949C248.603 138.65 252.191 140.103 255.857 141.296C255.857 141.296 264.962 156.704 271.773 164.06" stroke="#263238" stroke-linecap="round" stroke-linejoin="round"/>
<path d="M264.87 179.535C264.87 179.535 268.53 182.907 272.346 181.962" stroke="#263238" stroke-linecap="round" stroke-linejoin="round"/>
<path d="M266.208 186.52C267.709 191.374 276.92 200.053 276.92 200.053C276.92 200.053 278.902 207.613 278.655 210.856C278.407 214.099 275.582 222.196 277.04 232.152" stroke="#263238" stroke-linecap="round" stroke-linejoin="round"/>
<path d="M276.927 200.053C276.927 200.053 281.692 202.359 285.282 202.049" stroke="#263238" stroke-linecap="round" stroke-linejoin="round"/>
<path d="M278.244 255.694C278.655 256.276 290.988 261.516 295.031 259.686C295.031 259.686 305.509 260.593 312.023 255.52" stroke="#263238" stroke-linecap="round" stroke-linejoin="round"/>
<path d="M229.392 135.596C229.392 135.596 220.45 134.606 220.308 129.692C220.308 129.692 227.211 128.104 229.279 126.834" stroke="#263238" stroke-linecap="round" stroke-linejoin="round"/>
<path d="M234.221 125.814C234.221 125.814 236.55 124.37 237.902 124.483C239.255 124.596 256.402 128.807 260.041 129.488C263.681 130.168 278.888 153.181 288.227 156.122" stroke="#263238" stroke-linecap="round" stroke-linejoin="round"/>
<path d="M254.809 202.268C252.579 203.697 246.83 212.194 246.441 217.335" stroke="#263238" stroke-linecap="round" stroke-linejoin="round"/>
<path d="M235.311 199.168C235.311 199.168 237.272 203.916 230.829 207.787" stroke="#263238" stroke-linecap="round" stroke-linejoin="round"/>
<path d="M121.861 195.328C113.783 196.394 96.5007 201.965 92.7837 202.26C89.0667 202.555 82.0788 191.17 81.3849 186.52C81.3849 186.52 81.9726 183.05 82.7301 179.535C82.7301 179.535 92.0332 174.334 95.2192 169.261C99.538 162.389 116.353 135.906 116.353 135.906C116.353 135.906 132.255 134.719 133.281 129.102C133.362 128.759 133.331 128.397 133.195 128.075C133.059 127.752 132.825 127.488 132.531 127.326C130.272 125.814 123.419 125.934 115.39 122.034C113.45 121.096 108.884 122.034 100.409 123.001C89.711 124.249 86.3834 124.967 83.8488 127.431C82.0504 129.17 73.9792 140.344 67.3028 148.252C64.5628 151.487 62.0565 154.171 60.3219 155.418C59.2032 156.207 58.0181 156.883 56.7819 157.437L56.6616 157.482C52.3569 159.433 49.0152 159.599 48.0948 165.042C46.9124 171.975 39.174 204.581 34.4941 214.81C29.8142 225.039 28.7947 233.604 22.9962 242.427C17.1976 251.249 15.0382 249.669 14.2099 256.632C13.3815 263.595 6.72632 281.686 6.72632 281.686C7.773 295.486 11.1679 308.967 16.7445 321.466C22.2811 333.857 43.8963 335.263 48.6753 314.058C53.5676 292.307 58.9555 269.045 60.6688 264.033C61.66 261.122 63.9115 258.945 66.6868 257.184C68.9845 255.805 71.3802 254.622 73.8518 253.646C78.9352 251.529 83.8842 249.866 85.6188 247.265C89.2933 241.807 104.798 230.807 107.043 224.547C109.287 218.287 114.831 216.231 121.203 212.602C123.037 211.551 128.332 209.767 133.281 207.152C138.082 204.611 142.563 201.285 143.25 197.074C143.724 194.156 129.947 194.247 121.861 195.328ZM80.0893 161.096H80.0468C78.6308 162.094 77.2148 163.084 75.7988 164.037C82.6098 156.673 91.7146 141.274 91.7146 141.274C95.374 140.083 98.955 138.633 102.434 136.934C98.1362 141.765 92.0332 151.087 88.1322 154.844C85.5965 157.123 82.9162 159.212 80.1105 161.096H80.0893Z" fill="white"/>
<path opacity="0.4" d="M143.264 197.059C142.556 201.27 138.096 204.619 133.295 207.136C127.15 206.895 120.764 206.38 118.279 205.685C112.969 204.233 119.093 209.004 119.093 209.004C119.093 209.004 115.284 210.055 111.949 206.229C111.949 206.229 102.54 205.753 101.386 207.144C100.232 208.535 102.32 211.347 100.855 215.596C100.855 215.596 94.7447 208.527 92.4508 207.908C90.1568 207.288 92.1322 211.173 86.6593 216.821C81.1865 222.468 77.3562 228.471 70.9346 227.692C71.0356 225.118 70.8956 222.54 70.5169 219.996C69.8939 216.216 68.9168 212.187 69.3204 206.343C69.724 200.499 71.9329 198.669 71.9329 198.669C71.9329 198.669 76.0747 190.966 77.5544 186.876C79.0342 182.786 78.2624 181.947 78.2624 181.947C78.2624 181.947 88.8824 174.243 92.3445 169.382C95.8067 164.521 101.457 156.137 101.471 152.508C101.485 148.879 116.034 129.019 117.712 129.178L117.932 132.156C119.698 132.276 121.456 131.812 122.966 130.826C124.213 129.884 125.75 129.484 127.263 129.707L120.381 127.741C121.564 128.044 126.045 129.132 127.518 128.497C128.828 127.923 130.881 126.849 132.531 127.386C132.825 127.549 133.059 127.813 133.195 128.135C133.331 128.458 133.361 128.82 133.281 129.163C132.255 134.757 116.353 135.967 116.353 135.967C116.353 135.967 99.5378 162.427 95.219 169.321C92.033 174.394 82.7299 179.595 82.7299 179.595C81.9724 183.111 81.3847 186.581 81.3847 186.581C82.0927 191.23 89.0594 202.631 92.7835 202.321C96.5076 202.011 113.783 196.454 121.861 195.388C129.939 194.322 143.724 194.156 143.264 197.059Z" fill="#00B06C"/>
<path opacity="0.4" d="M107.751 132.126C106.075 133.832 104.317 135.442 102.483 136.949C99.0043 138.649 95.4233 140.098 91.7639 141.289C91.7639 141.289 82.6378 156.696 75.8269 164.052C77.2429 163.099 78.6589 162.109 80.0749 161.111C79.1257 161.939 78.1252 162.696 77.08 163.379C74.1843 165.171 71.3452 167.227 71.3452 167.227C71.3452 167.227 69.0159 166.048 74.3684 160.075C79.7209 154.103 88.6417 140.684 89.5692 138.023C90.4966 135.362 103.998 133.442 107.751 132.126Z" fill="#00B06C"/>
<path opacity="0.4" d="M110.448 124.543C110.448 124.543 90.1639 128.467 86.7939 129.835C83.4238 131.204 71.3453 151.676 56.8101 157.497C58.0462 156.943 59.2313 156.268 60.3501 155.479C62.0847 154.232 64.5981 151.548 67.3309 148.312C70.2048 146.338 72.7888 143.921 74.9986 141.138C79.551 135.453 85.2787 128.732 87.4523 127.575C89.6259 126.418 103.581 124.354 106.568 124.037C109.556 123.719 110.448 124.543 110.448 124.543Z" fill="#00B06C"/>
<path opacity="0.4" d="M62.743 168.588C62.743 168.588 53.8576 168.414 52.7673 172.791C51.6769 177.169 46.6006 191.812 46.6006 191.812C46.6006 191.812 53.7301 179.535 56.0665 175.762C58.4029 171.99 62.743 168.588 62.743 168.588Z" fill="#00B06C"/>
<path opacity="0.4" d="M66.6867 257.184C63.9114 258.945 61.6599 261.122 60.6687 264.033C58.9554 269.045 53.5887 292.307 48.6752 314.058C51.0328 295.83 57.0579 269.695 55.0472 271.086C52.3922 272.916 48.1442 293.479 47.4362 289.14C46.7282 284.8 47.2096 266.361 44.1157 265.031C41.0217 263.7 39.3225 257.667 39.3225 257.667C44.4413 259.867 51.3585 258.801 51.3585 258.801C55.9322 260.646 61.9998 259.066 66.6867 257.184Z" fill="#00B06C"/>
<path d="M75.8269 164.052C82.6379 156.696 91.7427 141.296 91.7427 141.296C95.4077 140.099 98.9955 138.647 102.483 136.949C98.1855 141.78 92.0755 151.102 88.1744 154.867C85.3849 157.558 80.2873 160.96 75.8269 164.052Z" stroke="#263238" stroke-linecap="round" stroke-linejoin="round"/>
<path d="M48.76 312.107C52.6328 295.422 54.8488 277.785 62.12 261.228C64.0103 258.03 66.7786 257.032 69.4903 255.286C73.6108 253.411 77.788 252.262 81.2006 250.485C89.5747 244.056 97.349 236.78 104.416 228.758C107.602 223.935 110.08 219.172 114.151 216.541C123.574 209.661 137.798 209.956 143.299 198.102C143.83 195.781 140.949 195.275 139.483 194.64C123.022 193.022 108.487 198.072 93.1941 202.427C86.6664 200.71 83.9901 193.355 81.4059 187.511C79.6005 182.362 83.5299 178.227 88.3726 176.292C89.8819 175.422 91.2379 174.279 92.3799 172.912C101.407 160.756 108.253 148.032 116.572 135.936C122.236 135.453 127.1 134.273 131.872 131.589C133.224 130.712 133.763 128.391 132.998 127.696C126.307 123.719 119.9 123.515 112.728 122.616C106.264 121.656 99.205 122.268 92.9038 123.568C88.7266 124.687 84.5494 125.836 81.3068 129.881C75.5224 137.962 70.3894 145.228 63.8475 152.621C59.8969 156.757 55.0117 157.913 50.2468 160.62C49.5955 161.436 48.8875 161.497 48.9512 162.245C43.7686 187.722 37.071 211.816 26.1324 236.273C23.0596 242.6 19.109 246.736 15.2787 252.375C12.1494 257.955 13.3884 260.767 6.71899 281.686" stroke="#263238" stroke-linecap="round" stroke-linejoin="round"/>
<path d="M116.346 135.906C116.346 135.906 121.45 124.566 115.39 123.266C115.39 123.266 109.018 131.627 105.018 134.515C101.017 137.403 92.9321 150.278 88.1743 154.867C83.4166 159.456 72.0107 166.086 68.3503 169.752" stroke="#263238" stroke-linecap="round" stroke-linejoin="round"/>
<path d="M102.483 136.949C98.9955 138.647 95.4077 140.099 91.7427 141.296C91.7427 141.296 82.6379 156.696 75.8269 164.052" stroke="#263238" stroke-linecap="round" stroke-linejoin="round"/>
<path d="M82.7299 179.527C82.7299 179.527 79.0695 182.899 75.2534 181.962" stroke="#263238" stroke-linecap="round" stroke-linejoin="round"/>
<path d="M81.42 186.52C79.9119 191.374 70.7009 200.053 70.7009 200.053C70.7009 200.053 68.7185 207.613 68.9663 210.848C69.2141 214.084 72.039 222.188 70.5805 232.145" stroke="#263238" stroke-linecap="round" stroke-linejoin="round"/>
<path d="M70.6657 200.053C70.6657 200.053 65.9079 202.321 62.3113 202.041" stroke="#263238" stroke-linecap="round" stroke-linejoin="round"/>
<path d="M69.3346 255.687C68.9239 256.269 56.5906 261.508 52.5479 259.678C52.5479 259.678 42.0695 260.586 35.5559 255.513" stroke="#263238" stroke-linecap="round" stroke-linejoin="round"/>
<path d="M118.236 135.596C118.236 135.596 127.178 134.606 127.313 129.692C127.313 129.692 120.41 128.104 118.349 126.834" stroke="#263238" stroke-linecap="round" stroke-linejoin="round"/>
<path d="M113.379 125.814C113.379 125.814 111.05 124.37 109.698 124.483C108.345 124.596 91.2047 128.807 87.5656 129.48C83.9265 130.153 68.7116 153.173 59.373 156.114" stroke="#263238" stroke-linecap="round" stroke-linejoin="round"/>
<path d="M92.7834 202.268C95.0207 203.689 100.763 212.187 101.152 217.335" stroke="#263238" stroke-linecap="round" stroke-linejoin="round"/>
<path d="M112.282 199.168C112.282 199.168 110.328 203.916 116.764 207.779" stroke="#263238" stroke-linecap="round" stroke-linejoin="round"/>
<path d="M234.397 193.536C232.273 190.641 201.249 188.819 172.801 187.707C147.894 186.732 117.577 187.004 114.745 189.03C112.544 190.618 112.883 197.989 114.321 200.37C115.758 202.752 119.857 204.521 122.279 204.906C131.249 206.358 162.189 212.685 171.619 213.139C181.05 213.593 193.426 213.63 204.031 213.139C212.655 212.746 230.56 211.937 234.383 205.231C235.821 202.737 235.19 194.61 234.397 193.536Z" fill="#00B06C"/>
<mask id="mask0_38_433" style="mask-type:luminance" maskUnits="userSpaceOnUse" x="113" y="187" width="123" height="27">
<path d="M234.397 193.536C232.273 190.641 201.249 188.819 172.801 187.707C147.894 186.732 117.577 187.004 114.745 189.03C112.544 190.618 112.883 197.989 114.321 200.37C115.758 202.752 119.857 204.521 122.279 204.906C131.249 206.358 162.189 212.685 171.619 213.139C181.05 213.593 193.426 213.63 204.031 213.139C212.655 212.746 230.56 211.937 234.383 205.231C235.821 202.737 235.19 194.61 234.397 193.536Z" fill="white"/>
</mask>
<g mask="url(#mask0_38_433)">
<path opacity="0.2" d="M113.662 190.776C113.849 190.087 114.233 189.476 114.76 189.03C117.592 186.989 147.915 186.762 172.816 187.7C201.242 188.811 232.288 190.625 234.412 193.528C232.5 197.15 225.123 201.232 220.995 201.943C214.403 202.898 207.76 203.403 201.107 203.455C194.622 203.455 176.327 202.358 167.662 201.943C158.996 201.527 146.152 200.756 142.174 199.108C138.195 197.46 122.13 195.721 116.976 193.521C115.608 193.042 114.437 192.073 113.662 190.776Z" fill="black" fill-opacity="0.7"/>
<path opacity="0.2" d="M234.985 203.364C234.891 204.015 234.692 204.644 234.398 205.224C230.574 211.929 212.676 212.738 204.046 213.139C193.426 213.623 181.064 213.593 171.633 213.139C162.203 212.685 131.277 206.335 122.293 204.899C119.872 204.506 115.793 202.774 114.335 200.363C113.606 198.811 113.221 197.101 113.209 195.366C116.367 199.69 117.677 201.875 130.201 204.362C142.874 206.887 196.215 212.232 216.676 210.024C228.033 208.815 232.932 205.813 234.985 203.364Z" fill="black" fill-opacity="0.7"/>
<path d="M173.049 202.064C174.111 202.139 175.173 202.208 176.242 202.268" stroke="#263238" stroke-linecap="round" stroke-linejoin="round"/>
<path d="M139.95 198.745C150.174 200.506 160.482 201.875 170.84 201.92" stroke="#263238" stroke-linecap="round" stroke-linejoin="round"/>
<path d="M113.662 190.777C115.326 194.08 119.567 194.33 122.555 195.313C127.235 196.825 132.332 197.392 137.168 198.253" stroke="#263238" stroke-linecap="round" stroke-linejoin="round"/>
<path d="M197.482 203.689C196.774 203.689 196.031 203.629 195.309 203.583" stroke="#263238" stroke-linecap="round" stroke-linejoin="round"/>
<path d="M205.554 203.613C204.584 203.659 203.621 203.689 202.651 203.712" stroke="#263238" stroke-linecap="round" stroke-linejoin="round"/>
<path d="M234.397 193.536C230.702 201.519 221.087 202.668 213.703 203.16" stroke="#263238" stroke-linecap="round" stroke-linejoin="round"/>
</g>
<path d="M234.397 193.536C232.273 190.641 201.249 188.819 172.801 187.707C147.894 186.732 117.577 187.004 114.745 189.03C112.544 190.618 112.883 197.989 114.321 200.37C115.758 202.752 119.857 204.521 122.279 204.906C131.249 206.358 162.189 212.685 171.619 213.139C181.05 213.593 193.426 213.63 204.031 213.139C212.655 212.746 230.56 211.937 234.383 205.231C235.821 202.737 235.19 194.61 234.397 193.536Z" stroke="#263238" stroke-linecap="round" stroke-linejoin="round"/>
<path d="M117.061 175.997C117.061 175.997 114.647 180.495 115.461 181.818C116.275 183.141 115.772 188.35 115.461 189.643C115.149 190.935 119.001 193.536 121.974 192.78C124.948 192.024 131.794 195.297 134.152 194.889C136.51 194.481 140.042 195.645 142.011 196.114C143.979 196.583 147.512 199.266 149.87 198.669C152.227 198.072 154.974 198.669 156.546 198.669C158.118 198.669 159.102 198.669 162.21 198.76C165.318 198.851 168.886 200.809 170.26 200.007C171.633 199.206 177.34 200.242 178.905 200.007C180.469 199.773 188.109 200.438 190.006 200.196C191.903 199.954 194.424 200.431 195.21 200.007C195.996 199.584 198.155 200.348 199.337 200.249C201.278 199.923 203.248 199.842 205.207 200.007C207.586 200.34 207.196 200.937 211.126 200.257C215.055 199.576 216.655 200.007 216.655 200.007C216.655 200.007 219.799 199.251 221.647 198.669C223.494 198.087 224.231 200.022 225.831 198.669C227.431 197.316 228.019 196.613 228.804 196.114C229.59 195.615 230.511 194.201 230.928 194.3C231.222 194.282 231.502 194.16 231.724 193.953C231.946 193.746 232.097 193.467 232.153 193.158C232.153 192.591 233.307 190.837 232.939 188.055C232.571 185.273 233.045 176.715 230.928 173.88C228.812 171.045 139.851 163.175 117.061 175.997Z" fill="#263238"/>
<mask id="mask1_38_433" style="mask-type:luminance" maskUnits="userSpaceOnUse" x="115" y="168" width="119" height="33">
<path d="M117.061 175.997C117.061 175.997 114.647 180.495 115.461 181.818C116.275 183.141 115.772 188.35 115.461 189.643C115.149 190.935 119.001 193.536 121.974 192.78C124.948 192.024 131.794 195.297 134.152 194.889C136.51 194.481 140.042 195.645 142.011 196.114C143.979 196.583 147.512 199.266 149.87 198.669C152.227 198.072 154.974 198.669 156.546 198.669C158.118 198.669 159.102 198.669 162.21 198.76C165.318 198.851 168.886 200.809 170.26 200.007C171.633 199.206 177.34 200.242 178.905 200.007C180.469 199.773 188.109 200.438 190.006 200.196C191.903 199.954 194.424 200.431 195.21 200.007C195.996 199.584 198.155 200.348 199.337 200.249C201.278 199.923 203.248 199.842 205.207 200.007C207.586 200.34 207.196 200.937 211.126 200.257C215.055 199.576 216.655 200.007 216.655 200.007C216.655 200.007 219.799 199.251 221.647 198.669C223.494 198.087 224.231 200.022 225.831 198.669C227.431 197.316 228.019 196.613 228.804 196.114C229.59 195.615 230.511 194.201 230.928 194.3C231.222 194.282 231.502 194.16 231.724 193.953C231.946 193.746 232.097 193.467 232.153 193.158C232.153 192.591 233.307 190.837 232.939 188.055C232.571 185.273 233.045 176.715 230.928 173.88C228.812 171.045 139.851 163.175 117.061 175.997Z" fill="white"/>
</mask>
<g mask="url(#mask1_38_433)">
<g opacity="0.2">
<path d="M167.35 193.99C166.323 193.99 164.851 195.411 164.851 195.411L169.708 196.643C169.708 196.643 176.342 198.201 176.788 197.747C177.234 197.293 177.227 193.967 176.788 192.735C176.349 191.502 176.377 190.535 175.372 188.486C174.366 186.437 171.478 185.22 171.336 183.761C171.194 182.302 171.187 183.005 168.978 181.878C166.769 180.752 162.939 181.878 160.73 180.873C158.521 179.868 155.279 178.681 155.279 178.681L163.817 176.775C163.817 176.775 152.772 176.866 151.151 176.775C149.53 176.685 146.287 178.159 144.666 178.681C143.044 179.202 140.248 179.777 140.248 179.777C140.248 179.777 148.553 181.878 148.892 181.878H139.207C136.262 181.878 135.667 181.251 134.194 181.878C132.722 182.506 132.87 183.292 131.256 183.292C130.262 183.372 129.263 183.372 128.268 183.292C126.244 183.133 123.171 182.665 123.171 182.665C123.171 182.665 120.905 184.434 120.48 184.729C120.056 185.023 117.358 185.023 115.758 182.748C115.758 182.748 115.758 182.687 115.758 182.657C115.981 184.613 115.95 186.592 115.666 188.539C115.666 188.456 115.666 188.38 115.666 188.297C115.996 188.599 116.382 188.824 116.799 188.955C118.859 189.582 117.394 191.321 119.595 191.003C121.797 190.686 124.02 188.637 125.642 189.9C127.263 191.162 132.417 192.258 133.741 192.417C135.065 192.576 135.809 190.535 138.895 192.417C141.982 194.3 141.26 193.831 143.32 194.3C145.381 194.768 147.498 192.886 148.871 194.3C150.245 195.713 152.751 195.88 154.67 195.57C156.588 195.26 157.905 198.042 158.493 195.698C159.081 193.355 155.109 191.918 153.926 191.918C152.744 191.918 150.386 191.442 149.799 190.656C149.211 189.869 146.414 190.187 147.738 189.552C149.062 188.917 157.905 190.021 159.534 190.656C161.162 191.291 162.323 190.814 164.837 191.412C166.371 191.867 167.96 192.08 169.552 192.047C170.876 192.047 170.876 191.729 172.2 192.047C173.524 192.364 168.377 193.99 167.35 193.99Z" fill="white"/>
<path d="M232.741 191.313C232.741 191.313 232.359 190.95 230.957 188.168C229.555 185.386 225.208 185.061 223.537 184.729C221.963 184.41 220.346 184.41 218.772 184.729C216.705 185.023 215.091 185.061 214.206 184.729C213.321 184.396 216.563 183.133 218.177 182.975C219.792 182.816 220.613 182.347 221.682 182.219C222 182.155 222.296 181.999 222.536 181.767C222.776 181.534 222.951 181.235 223.041 180.903C223.041 180.903 219.218 181.16 214.057 180.903C208.896 180.646 207.628 180.533 205.242 180.903C202.856 181.274 199.911 183.171 198.29 183.322C196.668 183.474 193.723 183.322 194.75 183.95C197.152 184.988 199.682 185.65 202.262 185.916C204.329 185.999 206.241 185.916 206.241 185.916C206.241 185.916 196.045 188.403 193.992 188.69C191.939 188.977 191.804 190.247 190.919 190.406C190.034 190.565 189.149 191.502 187.677 191.502C186.204 191.502 185.029 191.82 185.029 192.447C185.029 193.075 182.749 194.965 185.652 194.806C187.458 194.714 189.269 194.767 191.068 194.965L184.441 196.537C184.441 196.537 187.089 198.231 191.946 197.777C196.803 197.324 196.959 196.227 200.35 196.069C203.741 195.91 206.092 196.696 208.138 196.537C210.184 196.379 210.758 195.6 213.059 195.116C215.36 194.632 216.245 195.441 218.609 195.441C220.974 195.441 222.723 197.014 224.649 195.6C226.574 194.186 227.353 193.861 226.659 193.551C225.965 193.241 218.531 194.179 221.661 192.916C224.79 191.654 227.325 190.875 228.33 191.034C229.299 191.061 230.225 191.464 230.936 192.168C231.396 192.553 231.863 192.425 232.465 192.168C232.564 191.901 232.656 191.616 232.741 191.313Z" fill="white"/>
</g>
<path d="M126.392 185.885C128.75 185.81 131.256 186.913 133.472 187.223C135.688 187.533 137.72 186.603 139.66 187.155C141.6 187.707 143.491 189.325 145.997 188.274" stroke="#263238" stroke-linecap="round" stroke-linejoin="round"/>
<path d="M154.089 185.22H156.468L158.387 186.316H160.716" stroke="#263238" stroke-linecap="round" stroke-linejoin="round"/>
<path d="M163.626 186.301C165.233 186.93 167.01 186.635 168.702 186.301" stroke="#263238" stroke-linecap="round" stroke-linejoin="round"/>
<path d="M194.488 193.71C195.479 193.445 196.668 193.226 197.419 193.974C197.536 194.116 197.669 194.24 197.815 194.345C197.93 194.4 198.052 194.435 198.176 194.451C199.797 194.683 201.444 194.323 202.849 193.43C203.066 193.268 203.305 193.143 203.557 193.06C204.047 193.049 204.531 193.16 204.973 193.385C205.433 193.536 206.064 193.476 206.241 192.992" stroke="#263238" stroke-linecap="round" stroke-linejoin="round"/>
<path d="M209.943 193.15C210.458 193.31 211.005 193.308 211.518 193.144C212.032 192.981 212.49 192.663 212.839 192.228" stroke="#263238" stroke-linecap="round" stroke-linejoin="round"/>
<path d="M218.305 192.213C219.402 191.835 220.577 192.258 221.71 192.5C222.128 192.618 222.567 192.618 222.985 192.5C223.295 192.354 223.59 192.172 223.862 191.956C224.806 191.389 225.899 191.171 226.971 191.336C228.034 191.498 229.076 191.787 230.079 192.198" stroke="#263238" stroke-linecap="round" stroke-linejoin="round"/>
<path d="M200.364 187.738C201.614 187.586 202.878 187.647 204.109 187.92C204.562 188.018 205.129 188.102 205.398 187.7" stroke="#263238" stroke-linecap="round" stroke-linejoin="round"/>
<path d="M211.558 187.276C212.979 186.833 214.461 186.649 215.94 186.732C216.627 186.808 217.32 186.808 218.008 186.732C218.369 186.641 218.74 186.598 219.112 186.603C219.436 186.682 219.755 186.781 220.068 186.898C221.123 187.178 222.192 186.558 223.247 186.346C224.155 186.214 225.076 186.229 225.98 186.392" stroke="#263238" stroke-linecap="round" stroke-linejoin="round"/>
<path d="M117.252 187.08C117.684 186.868 118.073 187.428 118.484 187.685C119.135 188.1 119.957 187.76 120.665 187.465C121.373 187.17 122.286 186.989 122.789 187.601" stroke="#263238" stroke-linecap="round" stroke-linejoin="round"/>
<path d="M131.568 182.256C133.076 181.75 134.555 183.111 136.127 183.307C137.232 183.443 138.428 183.005 139.434 183.534C139.71 183.678 139.957 183.897 140.248 184.018C141.402 184.494 142.556 183.345 143.788 183.171" stroke="#263238" stroke-linecap="round" stroke-linejoin="round"/>
<path d="M146.712 183.587C147.315 183.713 147.881 183.993 148.362 184.404C148.606 184.602 148.898 184.725 149.204 184.759C149.51 184.792 149.819 184.735 150.096 184.593" stroke="#263238" stroke-linecap="round" stroke-linejoin="round"/>
</g>
<path d="M117.061 175.997C117.061 175.997 114.647 180.495 115.461 181.818C116.275 183.141 115.772 188.35 115.461 189.643C115.149 190.935 119.001 193.536 121.974 192.78C124.948 192.024 131.794 195.297 134.152 194.889C136.51 194.481 140.042 195.645 142.011 196.114C143.979 196.583 147.512 199.266 149.87 198.669C152.227 198.072 154.974 198.669 156.546 198.669C158.118 198.669 159.102 198.669 162.21 198.76C165.318 198.851 168.886 200.809 170.26 200.007C171.633 199.206 177.34 200.242 178.905 200.007C180.469 199.773 188.109 200.438 190.006 200.196C191.903 199.954 194.424 200.431 195.21 200.007C195.996 199.584 198.155 200.348 199.337 200.249C201.278 199.923 203.248 199.842 205.207 200.007C207.586 200.34 207.196 200.937 211.126 200.257C215.055 199.576 216.655 200.007 216.655 200.007C216.655 200.007 219.799 199.251 221.647 198.669C223.494 198.087 224.231 200.022 225.831 198.669C227.431 197.316 228.019 196.613 228.804 196.114C229.59 195.615 230.511 194.201 230.928 194.3C231.222 194.282 231.502 194.16 231.724 193.953C231.946 193.746 232.097 193.467 232.153 193.158C232.153 192.591 233.307 190.837 232.939 188.055C232.571 185.273 233.045 176.715 230.928 173.88C228.812 171.045 139.851 163.175 117.061 175.997Z" stroke="#263238" stroke-miterlimit="10"/>
<path d="M118.986 169.813C118.986 169.813 114.257 176.004 115.758 178.681C117.259 181.357 117.939 182.65 117.988 185.885C118.038 189.121 119.262 190.202 120.225 185.885C121.188 181.569 121.429 180.087 123.171 179.777C124.912 179.467 127.624 180.722 127.419 181.984C127.213 183.247 130.194 183.753 130.782 180.873C131.369 177.993 135.893 178.605 139.228 177.789C142.563 176.972 143.554 173.321 145.912 173.351C148.269 173.381 155.533 175.687 159.661 174.644C163.789 173.6 168.865 177.048 170.465 178.681C172.065 180.314 173.205 183.663 175.371 184.29C177.538 184.918 176.95 197.082 179.499 197.717C182.048 198.352 181.269 189.537 184.023 188.698C186.777 187.858 185.984 191.843 187.953 190.164C189.921 188.486 189.128 185.16 191.493 183.784C193.857 182.408 193.652 181.138 195.422 179.777C197.192 178.416 197.404 176.148 200.364 176.148C203.323 176.148 207.826 175.725 209.2 175.097C210.573 174.47 212.541 174.47 215.685 176.987C218.829 179.505 219.055 179.603 221.689 178.718C224.323 177.834 223.544 174.885 226.687 177.403C229.831 179.92 229.519 183.065 230.935 182.861C232.351 182.657 232.748 188.909 232.946 190.202C233.144 191.495 234.638 191.041 234.482 187.473C234.191 183.492 234.191 179.494 234.482 175.513C234.893 169.102 226.843 157.55 202.091 156.258C177.34 154.965 131.914 155.97 118.986 169.813Z" fill="#999999"/>
<mask id="mask2_38_433" style="mask-type:luminance" maskUnits="userSpaceOnUse" x="115" y="155" width="120" height="43">
<path d="M118.986 169.813C118.986 169.813 114.257 176.004 115.758 178.681C117.259 181.357 117.939 182.65 117.988 185.885C118.038 189.121 119.262 190.202 120.225 185.885C121.188 181.569 121.429 180.087 123.171 179.777C124.912 179.467 127.624 180.722 127.419 181.984C127.213 183.247 130.194 183.753 130.782 180.873C131.369 177.993 135.893 178.605 139.228 177.789C142.563 176.972 143.554 173.321 145.912 173.351C148.269 173.381 155.533 175.687 159.661 174.644C163.789 173.6 168.865 177.048 170.465 178.681C172.065 180.314 173.205 183.663 175.371 184.29C177.538 184.918 176.95 197.082 179.499 197.717C182.048 198.352 181.269 189.537 184.023 188.698C186.777 187.858 185.984 191.843 187.953 190.164C189.921 188.486 189.128 185.16 191.493 183.784C193.857 182.408 193.652 181.138 195.422 179.777C197.192 178.416 197.404 176.148 200.364 176.148C203.323 176.148 207.826 175.725 209.2 175.097C210.573 174.47 212.541 174.47 215.685 176.987C218.829 179.505 219.055 179.603 221.689 178.718C224.323 177.834 223.544 174.885 226.687 177.403C229.831 179.92 229.519 183.065 230.935 182.861C232.351 182.657 232.748 188.909 232.946 190.202C233.144 191.495 234.638 191.041 234.482 187.473C234.191 183.492 234.191 179.494 234.482 175.513C234.893 169.102 226.843 157.55 202.091 156.258C177.34 154.965 131.914 155.97 118.986 169.813Z" fill="white"/>
</mask>
<g mask="url(#mask2_38_433)">
<path opacity="0.5" d="M118.986 169.813C118.986 169.813 114.257 176.004 115.758 178.681C117.259 181.357 117.939 182.65 117.988 185.885C118.038 189.121 119.262 190.202 120.225 185.885C121.188 181.569 121.429 180.087 123.171 179.777C124.912 179.467 127.624 180.722 127.419 181.984C127.213 183.247 130.194 183.753 130.782 180.873C131.369 177.993 135.893 178.605 139.228 177.789C142.563 176.972 143.554 173.321 145.912 173.351C148.269 173.381 155.533 175.687 159.661 174.644C163.789 173.6 168.865 177.048 170.465 178.681C172.065 180.314 173.205 183.663 175.371 184.29C177.538 184.918 176.95 197.082 179.499 197.717C182.048 198.352 181.269 189.537 184.023 188.698C186.777 187.858 185.984 191.843 187.953 190.164C189.921 188.486 189.128 185.16 191.493 183.784C193.857 182.408 193.652 181.138 195.422 179.777C197.192 178.416 197.404 176.148 200.364 176.148C203.323 176.148 207.826 175.725 209.2 175.097C210.573 174.47 212.541 174.47 215.685 176.987C218.829 179.505 219.055 179.603 221.689 178.718C224.323 177.834 223.544 174.885 226.687 177.403C229.831 179.92 229.519 183.065 230.935 182.861C232.351 182.657 232.748 188.909 232.946 190.202C233.144 191.495 234.638 191.041 234.482 187.473C234.191 183.492 234.191 179.494 234.482 175.513C234.893 169.102 226.843 157.55 202.091 156.258C177.34 154.965 131.914 155.97 118.986 169.813Z" fill="white"/>
<g opacity="0.2">
<path d="M232.967 190.164C232.762 188.902 232.379 182.604 230.956 182.823C229.533 183.043 229.824 179.882 226.708 177.365C223.593 174.848 224.344 177.788 221.71 178.68C219.076 179.573 218.878 179.436 215.706 176.949C212.534 174.462 210.594 174.432 209.228 175.059C207.861 175.687 203.295 176.148 200.364 176.148C197.433 176.148 197.213 178.416 195.408 179.777C193.602 181.137 193.836 182.4 191.485 183.776C189.135 185.152 189.914 188.486 187.945 190.164C185.977 191.842 186.77 187.851 184.023 188.697C181.276 189.544 182.055 198.344 179.499 197.717C176.943 197.089 177.531 184.917 175.364 184.29C173.198 183.663 172.037 180.306 170.465 178.68C168.893 177.055 163.781 173.593 159.661 174.643C155.54 175.694 148.269 173.381 145.904 173.351C143.54 173.32 142.57 176.949 139.235 177.788C135.9 178.628 131.376 178 130.788 180.873C130.201 183.746 127.248 183.239 127.418 181.984C127.588 180.729 124.884 179.467 123.17 179.777C121.457 180.087 121.181 181.561 120.225 185.885C119.269 190.209 118.037 189.113 117.988 185.885C117.938 182.657 117.28 181.349 115.751 178.68C115.557 178.314 115.457 177.899 115.46 177.478C115.818 178.05 116.348 178.474 116.961 178.68C118.583 178.885 118.214 183.451 118.986 182.506C119.758 181.561 119.609 178.363 121.528 177.97C123.899 177.719 126.279 178.346 128.268 179.746C129.925 181.062 130.711 176.995 132.828 176.722C134.944 176.45 138.322 177.577 140.24 175.377C142.159 173.177 143.922 171.929 145.692 171.763C147.462 171.597 151.88 174.031 154.683 172.247C157.487 170.463 159.986 170.811 161.608 171.756C163.229 172.701 165.587 175.218 167.647 174.432C169.707 173.645 173.403 174.9 174.139 176.783C174.876 178.665 176.193 181.704 177.516 180.82C178.84 179.935 180.023 181.984 180.759 183.549C181.495 185.114 181.467 184.184 182.968 182.922C184.469 181.659 187.216 184.97 188.42 182.922C189.623 180.873 190.338 178.733 192.25 178.628C194.162 178.522 194.466 178.227 196.229 176.722C197.992 175.218 199.911 174.265 203.748 174.454C204.739 174.479 205.73 174.382 206.7 174.167C209.32 173.623 211.6 172.572 213.072 173.169C213.269 173.252 213.459 173.353 213.639 173.472C215.586 174.696 218.078 177.97 220.081 176.745C222.29 175.399 222.29 172.209 224.945 174.137C227.6 176.065 228.634 178.136 229.958 177.705C231.282 177.274 231.091 176.05 232.082 176.745C232.823 177.096 233.659 177.147 234.433 176.889C234.222 180.391 234.245 183.906 234.503 187.405C234.666 191.003 233.158 191.419 232.967 190.164Z" fill="black"/>
<path d="M234.263 172.905C231.75 173.555 233.506 171.99 230.957 172.3C227.941 172.671 226.872 172.905 225.725 171.854C224.578 170.803 221.569 171.181 214.793 173.2C214.418 173.313 214.028 173.404 213.646 173.502C211.356 173.961 209.031 174.194 206.701 174.198C201.539 174.296 196.137 173.85 192.25 174.802C186.204 176.269 185.326 175.899 181.786 174.009C178.246 172.119 171.478 171.181 168.674 171.045C165.87 170.909 161.75 168.815 157.919 167.862C154.089 166.91 150.839 170.077 148.885 169.495C146.931 168.913 139.476 172.277 134.194 174.636C128.913 176.995 122.413 175.891 117.988 174.636C117.448 174.483 116.931 174.249 116.452 173.941C117.179 172.484 118.027 171.1 118.987 169.805C131.908 155.963 177.368 154.912 202.12 156.197C223.834 157.354 232.691 166.373 234.263 172.905Z" fill="black"/>
</g>
</g>
<path d="M118.986 169.813C118.986 169.813 114.257 176.004 115.758 178.681C117.259 181.357 117.939 182.65 117.988 185.885C118.038 189.121 119.262 190.202 120.225 185.885C121.188 181.569 121.429 180.087 123.171 179.777C124.912 179.467 127.624 180.722 127.419 181.984C127.213 183.247 130.194 183.753 130.782 180.873C131.369 177.993 135.893 178.605 139.228 177.789C142.563 176.972 143.554 173.321 145.912 173.351C148.269 173.381 155.533 175.687 159.661 174.644C163.789 173.6 168.865 177.048 170.465 178.681C172.065 180.314 173.205 183.663 175.371 184.29C177.538 184.918 176.95 197.082 179.499 197.717C182.048 198.352 181.269 189.537 184.023 188.698C186.777 187.858 185.984 191.843 187.953 190.164C189.921 188.486 189.128 185.16 191.493 183.784C193.857 182.408 193.652 181.138 195.422 179.777C197.192 178.416 197.404 176.148 200.364 176.148C203.323 176.148 207.826 175.725 209.2 175.097C210.573 174.47 212.541 174.47 215.685 176.987C218.829 179.505 219.055 179.603 221.689 178.718C224.323 177.834 223.544 174.885 226.687 177.403C229.831 179.92 229.519 183.065 230.935 182.861C232.351 182.657 232.748 188.909 232.946 190.202C233.144 191.495 234.638 191.041 234.482 187.473C234.191 183.492 234.191 179.494 234.482 175.513C234.893 169.102 226.843 157.55 202.091 156.258C177.34 154.965 131.914 155.97 118.986 169.813Z" stroke="#263238" stroke-linecap="round" stroke-linejoin="round"/>
<path d="M238.376 161.829L238.263 162.177L236.139 168.981C229.791 169.474 223.443 168.026 217.837 164.808C210.672 160.642 213.306 156.643 214.864 155.04C215.116 154.765 215.388 154.512 215.678 154.284L238.376 161.829Z" fill="#757575"/>
<mask id="mask3_38_433" style="mask-type:luminance" maskUnits="userSpaceOnUse" x="213" y="154" width="26" height="16">
<path d="M238.376 161.829L238.263 162.177L236.139 168.981C229.791 169.474 223.443 168.026 217.837 164.808C210.672 160.642 213.306 156.643 214.864 155.04C215.116 154.765 215.388 154.512 215.678 154.284L238.376 161.829Z" fill="white"/>
</mask>
<g mask="url(#mask3_38_433)">
<path opacity="0.2" d="M238.376 161.829L238.263 162.177C237.458 163.194 236.42 163.971 235.25 164.432C234.079 164.893 232.818 165.022 231.587 164.808C226.631 164.052 219.423 158.851 214.864 155.04C215.116 154.765 215.388 154.512 215.678 154.284L238.376 161.829Z" fill="black"/>
<path opacity="0.2" d="M224.755 167.122C224.755 167.122 226.709 167.016 227.53 163.432C228.351 159.849 230.511 162.767 233.038 163.432C235.566 164.098 235.502 161.988 238.263 162.177L215.678 154.292C215.678 154.292 209.964 163.546 224.755 167.122Z" fill="black"/>
</g>
<path d="M238.376 161.829L238.263 162.177L236.139 168.981C229.791 169.474 223.443 168.026 217.837 164.808C210.672 160.642 213.306 156.643 214.864 155.04C215.116 154.765 215.388 154.512 215.678 154.284L238.376 161.829Z" stroke="#263238" stroke-linecap="round" stroke-linejoin="round"/>
<path d="M162.238 160.166C162.238 160.166 145.742 169.994 134.931 172.262C128.395 173.623 121.662 173.458 115.192 171.778L113.535 166.486L113.323 165.821L117.054 160.159C130.676 156.326 145.791 157.497 154.634 158.775C159.3 159.456 162.238 160.166 162.238 160.166Z" fill="#757575"/>
<mask id="mask4_38_433" style="mask-type:luminance" maskUnits="userSpaceOnUse" x="113" y="157" width="50" height="17">
<path d="M162.238 160.166C162.238 160.166 145.742 169.994 134.931 172.262C128.395 173.623 121.662 173.458 115.192 171.778L113.535 166.486L113.323 165.821L117.054 160.159C130.676 156.326 145.791 157.497 154.634 158.775C159.3 159.456 162.238 160.166 162.238 160.166Z" fill="white"/>
</mask>
<g mask="url(#mask4_38_433)">
<path opacity="0.2" d="M154.634 158.76C147.689 161.678 129.706 168.724 120.226 167.832C117.951 167.671 115.704 167.212 113.535 166.464L113.323 165.798L117.054 160.136C130.676 156.333 145.791 157.505 154.634 158.76Z" fill="black"/>
<path opacity="0.2" d="M154.981 164.181C154.981 164.181 154.733 161.157 148.885 162.941C143.037 164.725 136.913 168.036 135.044 167.121C133.175 166.207 132.686 163.901 128.672 164.785C124.658 165.67 121.833 169.261 118.002 168.883C114.172 168.505 113.337 165.859 113.337 165.859L117.068 160.196C117.068 160.196 133.423 154.844 162.252 160.196L154.981 164.181Z" fill="black"/>
</g>
<path d="M162.238 160.166C162.238 160.166 145.742 169.994 134.931 172.262C128.395 173.623 121.662 173.458 115.192 171.778L113.535 166.486L113.323 165.821L117.054 160.159C130.676 156.326 145.791 157.497 154.634 158.775C159.3 159.456 162.238 160.166 162.238 160.166Z" stroke="#263238" stroke-linecap="round" stroke-linejoin="round"/>
<path d="M223.537 157.558V167.832C223.537 167.832 218.425 174.402 195.054 173.169C171.683 171.937 156.546 161.829 156.546 161.829C158.884 160.849 161.285 160.053 163.732 159.448C186.834 153.528 223.537 157.558 223.537 157.558Z" fill="#757575"/>
<mask id="mask5_38_433" style="mask-type:luminance" maskUnits="userSpaceOnUse" x="156" y="156" width="68" height="18">
<path d="M223.537 157.558V167.832C223.537 167.832 218.425 174.402 195.054 173.169C171.683 171.937 156.546 161.829 156.546 161.829C158.884 160.849 161.285 160.053 163.732 159.448C186.834 153.528 223.537 157.558 223.537 157.558Z" fill="white"/>
</mask>
<g mask="url(#mask5_38_433)">
<path opacity="0.2" d="M223.537 157.558V160.529C221.484 164.566 214.609 168.286 199.769 169.14C181.312 170.191 168.731 162.986 163.732 159.448C186.834 153.528 223.537 157.558 223.537 157.558Z" fill="black"/>
<path opacity="0.2" d="M163.732 159.448C163.732 159.448 165.807 161.716 168.2 161.262C170.593 160.809 172.157 162.018 174.996 164.196C177.836 166.373 180.25 165.08 185.659 162.941C191.068 160.801 190.332 166.615 196.081 166.305C201.83 165.995 199.706 158.798 204.081 160.506C208.457 162.215 209.363 165.889 213.285 163.341C217.207 160.794 222.135 159.599 223.558 161.693V157.558C223.558 157.558 187.549 154.126 163.732 159.448Z" fill="black"/>
</g>
<path d="M223.537 157.558V167.832C223.537 167.832 218.425 174.402 195.054 173.169C171.683 171.937 156.546 161.829 156.546 161.829C158.884 160.849 161.285 160.053 163.732 159.448C186.834 153.528 223.537 157.558 223.537 157.558Z" stroke="#263238" stroke-linecap="round" stroke-linejoin="round"/>
<path d="M113.33 165.829C113.33 165.829 116.374 167.545 124.474 167.87C132.573 168.195 152.319 160.484 152.319 160.484" stroke="#263238" stroke-linecap="round" stroke-linejoin="round"/>
<path d="M166.316 161.829C166.316 161.829 188.123 169.828 200.796 169.087C213.469 168.346 221.682 163.039 221.682 163.039" stroke="#263238" stroke-linecap="round" stroke-linejoin="round"/>
<path d="M223.537 160.484C223.537 160.484 228.203 164.808 231.587 164.808C234.971 164.808 236.465 163.666 238.369 161.852" stroke="#263238" stroke-linecap="round" stroke-linejoin="round"/>
<path d="M179.577 160.484C177.956 160.952 184.738 163.787 188.42 164.181C192.102 164.574 190.041 159.093 190.041 159.093" stroke="#263238" stroke-linecap="round" stroke-linejoin="round"/>
<path d="M194.608 159.697C194.608 159.697 191.953 163.901 194.608 164.785C197.263 165.67 204.924 164.785 205.511 163.432C206.099 162.079 200.796 159.093 200.796 159.093" stroke="#263238" stroke-linecap="round" stroke-linejoin="round"/>
<path d="M207.281 159.093C207.281 160.007 210.602 163.553 212.478 163.432C214.354 163.311 219.508 162.056 219.657 160.484C219.806 158.911 210.559 159.093 210.559 159.093" stroke="#263238" stroke-linecap="round" stroke-linejoin="round"/>
<path d="M178.253 158.707C178.253 158.707 174.841 160.325 173.085 160.484C171.329 160.642 167.152 160 168.447 159.085" stroke="#263238" stroke-linecap="round" stroke-linejoin="round"/>
<path d="M132.828 160.506C132.828 160.506 129.189 165.715 126.683 165.383C124.176 165.05 120.049 165.383 120.197 164.196C120.346 163.009 130.074 160.484 130.074 160.484" stroke="#263238" stroke-linecap="round" stroke-linejoin="round"/>
<path d="M135.228 160.484C135.228 160.484 134.52 163.402 135.971 163.432C137.423 163.462 145.841 161.27 146.28 160.484C146.719 159.697 140.666 159.085 140.666 159.085" stroke="#263238" stroke-linecap="round" stroke-linejoin="round"/>
<path d="M225.767 159.093C227.336 160.21 228.97 161.22 230.659 162.117C232.033 162.676 234.518 162.653 234.525 162.117C234.532 161.58 230.985 160.476 230.985 160.476" stroke="#263238" stroke-linecap="round" stroke-linejoin="round"/>
<path d="M111.199 147.352C114.137 139.301 115.758 131.431 122.449 127.235C139.816 116.311 165.148 110.769 185.659 112.342C206.17 113.914 218.829 120.196 231.983 135.022C232.769 135.906 236.585 146.188 237.336 147.118C238.596 148.63 239.892 150.278 240.359 152.258C240.826 154.239 240.175 156.681 238.419 157.497C237.258 158.034 235.92 157.755 234.674 157.497C206.233 151.283 176.816 153.135 147.951 156.386C138.556 157.445 129.125 158.654 119.702 158.057C115.808 157.807 111.007 156.379 110.356 152.274C110.213 150.819 110.428 149.349 110.979 148.01C111.05 147.768 111.156 147.564 111.199 147.352Z" fill="#00B06C"/>
<mask id="mask6_38_433" style="mask-type:luminance" maskUnits="userSpaceOnUse" x="110" y="112" width="131" height="47">
<path d="M111.199 147.352C114.137 139.301 115.758 131.431 122.449 127.235C139.816 116.311 165.148 110.769 185.659 112.342C206.17 113.914 218.829 120.196 231.983 135.022C232.769 135.906 236.585 146.188 237.336 147.118C238.596 148.63 239.892 150.278 240.359 152.258C240.826 154.239 240.175 156.681 238.419 157.497C237.258 158.034 235.92 157.755 234.674 157.497C206.233 151.283 176.816 153.135 147.951 156.386C138.556 157.445 129.125 158.654 119.702 158.057C115.808 157.807 111.007 156.379 110.356 152.274C110.213 150.819 110.428 149.349 110.979 148.01C111.05 147.768 111.156 147.564 111.199 147.352Z" fill="white"/>
</mask>
<g mask="url(#mask6_38_433)">
<path opacity="0.2" d="M240.515 153.468C240.558 154.279 240.38 155.086 240.003 155.791C239.626 156.497 239.066 157.071 238.391 157.445C237.23 157.981 235.884 157.702 234.645 157.445C206.205 151.23 176.788 153.075 147.915 156.333C138.534 157.392 129.097 158.601 119.673 158.004C115.779 157.755 110.979 156.326 110.328 152.221C110.219 151.448 110.245 150.662 110.406 149.9C111.758 151.064 113.273 152.077 114.427 151.994C117.082 151.812 125.628 146.15 133.437 146.619C141.246 147.087 154.061 147.375 159.958 145.522C165.856 143.67 179.074 142.211 185.631 142.37C192.187 142.529 207.982 147.11 212.11 147.186C216.237 147.261 219.629 150.512 224.641 148.796C229.392 147.201 236.522 148.992 240.515 153.468Z" fill="black" fill-opacity="0.7"/>
<path d="M194.516 118.889C194.516 118.889 194.842 122.207 195.819 122.026C196.796 121.845 194.516 118.889 194.516 118.889Z" fill="white"/>
<path d="M177.439 124.513C177.439 124.513 177.765 127.832 178.749 127.658C179.733 127.484 177.439 124.513 177.439 124.513Z" fill="white"/>
<path d="M169.53 127.462C169.53 127.462 168.114 128.49 168.929 128.868C169.743 129.246 169.53 127.462 169.53 127.462Z" fill="white"/>
<path d="M140.538 119.735C140.538 119.735 139.122 120.756 139.936 121.141C140.75 121.527 140.538 119.735 140.538 119.735Z" fill="white"/>
<path d="M192.321 114.912C192.321 114.912 190.905 115.94 191.719 116.318C192.533 116.696 192.321 114.912 192.321 114.912Z" fill="white"/>
<path d="M213.108 119.947C213.108 119.947 211.692 120.975 212.506 121.353C213.32 121.731 213.108 119.947 213.108 119.947Z" fill="white"/>
<path d="M144.765 125.36C144.765 125.36 143.349 126.388 144.163 126.766C144.977 127.144 144.765 125.36 144.765 125.36Z" fill="white"/>
<path d="M175.584 118.889C175.584 118.889 172.865 119.645 173.736 120.461C174.607 121.278 175.584 118.889 175.584 118.889Z" fill="white"/>
<path d="M174.954 113.219C174.954 113.219 177.368 114.768 177.297 113.536C177.227 112.304 174.954 113.219 174.954 113.219Z" fill="white"/>
<path d="M187.776 118.019C187.776 118.019 185.05 118.775 185.921 119.592C186.792 120.408 187.776 118.019 187.776 118.019Z" fill="white"/>
<path d="M183.372 122.034C183.372 122.034 184.788 122.321 183.811 123.077C182.834 123.833 183.372 122.034 183.372 122.034Z" fill="white"/>
<path d="M185.347 113.4C185.347 113.4 186.763 113.687 185.779 114.443C184.795 115.199 185.347 113.4 185.347 113.4Z" fill="white"/>
<path d="M182.055 132.829C182.055 132.829 183.471 133.116 182.494 133.872C181.517 134.628 182.055 132.829 182.055 132.829Z" fill="white"/>
<path d="M143.589 133.011C143.589 133.011 145.005 133.298 144.021 134.046C143.037 134.795 143.589 133.011 143.589 133.011Z" fill="white"/>
<path d="M125.316 131.975C125.316 131.975 126.732 132.262 125.755 133.018C124.778 133.774 125.316 131.975 125.316 131.975Z" fill="white"/>
<path d="M191.082 125.201C191.082 125.201 189.822 124.445 190.976 124.067C192.13 123.689 191.082 125.201 191.082 125.201Z" fill="white"/>
<path d="M228.259 134.651C228.259 134.651 226.999 133.895 228.153 133.517C229.307 133.139 228.259 134.651 228.259 134.651Z" fill="white"/>
<path d="M221.25 134.22C221.25 134.22 219.99 133.464 221.144 133.086C222.298 132.708 221.25 134.22 221.25 134.22Z" fill="white"/>
<path d="M163.463 115.23C163.463 115.23 162.203 114.474 163.357 114.096C164.511 113.718 163.463 115.23 163.463 115.23Z" fill="white"/>
<path d="M200.605 130.281C200.605 130.281 199.344 129.525 200.498 129.147C201.653 128.769 200.605 130.281 200.605 130.281Z" fill="white"/>
<path d="M223.622 128.792C223.622 128.792 222.362 128.036 223.516 127.658C224.67 127.28 223.622 128.792 223.622 128.792Z" fill="white"/>
<path d="M158.358 125.496C158.358 125.496 159.774 125.783 158.79 126.539C157.806 127.295 158.358 125.496 158.358 125.496Z" fill="white"/>
<path d="M129.642 123.984C129.642 123.984 131.058 124.271 130.074 125.027C129.09 125.783 129.642 123.984 129.642 123.984Z" fill="white"/>
<path d="M158.358 117.407C158.358 117.407 159.774 117.694 158.79 118.45C157.806 119.206 158.358 117.407 158.358 117.407Z" fill="white"/>
<path d="M169.708 116.364C169.708 116.364 171.124 116.507 170.147 116.885C169.17 117.263 169.708 116.364 169.708 116.364Z" fill="white"/>
<path d="M121.018 129.11C121.018 129.11 122.434 129.253 121.457 129.631C120.48 130.009 121.018 129.11 121.018 129.11Z" fill="white"/>
<path d="M181.248 115.668C181.248 115.668 178.876 116.893 180.915 116.764C182.954 116.636 181.248 115.668 181.248 115.668Z" fill="white"/>
<path d="M201.66 118.344C201.66 118.344 204.64 117.414 202.247 117.142C199.854 116.87 201.66 118.344 201.66 118.344Z" fill="white"/>
<path d="M147.894 121.081C147.894 121.081 150.875 120.151 148.489 119.879C146.103 119.607 147.894 121.081 147.894 121.081Z" fill="white"/>
<path d="M155.052 122.034C155.052 122.034 150.146 122.034 151.349 123.266C152.553 124.498 155.052 122.034 155.052 122.034Z" fill="white"/>
<path d="M191.464 129.42C191.464 129.42 192.024 134.621 193.057 133.2C194.091 131.778 191.464 129.42 191.464 129.42Z" fill="white"/>
<path d="M164.122 118.246C164.122 118.246 162.812 120.695 163.683 120.461C164.553 120.227 164.122 118.246 164.122 118.246Z" fill="white"/>
<path d="M165.502 135.135C165.502 135.135 166.996 132.814 166.104 132.973C165.212 133.132 165.502 135.135 165.502 135.135Z" fill="white"/>
<path d="M197.695 115.063C197.695 115.063 196.385 116.288 197.263 116.175C198.141 116.061 197.695 115.063 197.695 115.063Z" fill="white"/>
<path d="M209.349 131.544C209.349 131.544 210.021 134.273 210.489 133.449C210.956 132.625 209.349 131.544 209.349 131.544Z" fill="white"/>
<path d="M206.694 122.79C206.694 122.79 205.384 125.239 206.255 124.997C207.125 124.755 206.694 122.79 206.694 122.79Z" fill="white"/>
<path d="M155.406 131.703C155.406 131.703 153.204 133.215 154.082 133.464C154.96 133.714 155.406 131.703 155.406 131.703Z" fill="white"/>
<path d="M216.513 125.292C216.513 125.292 217.986 127.635 218.177 126.698C218.368 125.761 216.513 125.292 216.513 125.292Z" fill="white"/>
<path d="M134.52 128.649C134.52 128.649 131.879 128.649 132.502 129.329C133.125 130.009 134.52 128.649 134.52 128.649Z" fill="white"/>
<path d="M152.801 116.227C152.801 116.227 155.441 116.303 154.832 115.592C154.224 114.882 152.801 116.227 152.801 116.227Z" fill="white"/>
<path d="M149.607 147.148C151.307 147.027 152.999 146.808 154.677 146.513" stroke="#263238" stroke-linecap="round" stroke-linejoin="round"/>
<path d="M110.448 149.915C113.655 154.662 118.845 149.817 122.321 148.282C129.734 145.008 137.855 147.291 145.614 147.291" stroke="#263238" stroke-linecap="round" stroke-linejoin="round"/>
<path d="M183.584 142.196C182.439 142.248 181.297 142.372 180.165 142.567" stroke="#263238" stroke-linecap="round" stroke-linejoin="round"/>
<path d="M201.362 144.865C195.401 143.791 192.435 142.007 187.202 142.264" stroke="#263238" stroke-linecap="round" stroke-linejoin="round"/>
<path d="M221.682 149.552C219.615 149.62 217.243 148.085 214.368 147.511C211.317 146.906 207.763 147.239 205.164 146.263" stroke="#263238" stroke-linecap="round" stroke-linejoin="round"/>
<path d="M240.515 153.468C237.18 150.444 231.863 147.299 227.141 148.267" stroke="#263238" stroke-linecap="round" stroke-linejoin="round"/>
</g>
<path d="M111.199 147.352C114.137 139.301 115.758 131.431 122.449 127.235C139.816 116.311 165.148 110.769 185.659 112.342C206.17 113.914 218.829 120.196 231.983 135.022C232.769 135.906 236.585 146.188 237.336 147.118C238.596 148.63 239.892 150.278 240.359 152.258C240.826 154.239 240.175 156.681 238.419 157.497C237.258 158.034 235.92 157.755 234.674 157.497C206.233 151.283 176.816 153.135 147.951 156.386C138.556 157.445 129.125 158.654 119.702 158.057C115.808 157.807 111.007 156.379 110.356 152.274C110.213 150.819 110.428 149.349 110.979 148.01C111.05 147.768 111.156 147.564 111.199 147.352Z" stroke="#263238" stroke-linecap="round" stroke-linejoin="round"/>
<path d="M116.664 155.736C116.664 155.736 111.942 156.999 112.416 159.304C112.891 161.61 110.292 161.799 110.292 161.799C110.292 161.799 110.49 162.661 113.485 162.873C116.48 163.084 117.578 160.771 118.994 162.873C120.41 164.974 121.387 169.677 125.712 167.099C130.038 164.521 130.031 159.478 133.762 161.807C137.494 164.135 140.842 167.908 144.177 166.018C147.512 164.128 150.662 159.093 153.211 160.355C155.76 161.618 160.086 165.806 163.229 164.339C166.373 162.873 167.754 158.291 171.874 159.093C175.995 159.894 177.573 162.835 180.915 161.807C184.257 160.779 185.234 158.465 187.995 158.148C190.756 157.83 192.116 163.712 196.442 164.128C200.768 164.543 201.107 158.465 205.256 158.148C209.405 157.83 211.763 164.339 214.319 164.339C216.875 164.339 218.864 159.304 221.696 159.72C224.528 160.136 225.123 164.755 227.672 164.967C230.22 165.178 232.387 161.55 235.141 161.792C237.895 162.033 237.888 165.957 242.221 161.792C242.221 161.792 237.973 161.194 236.16 155.744C234.348 150.293 138.669 145.061 116.664 155.736Z" fill="#00B06C"/>
<mask id="mask7_38_433" style="mask-type:luminance" maskUnits="userSpaceOnUse" x="110" y="149" width="133" height="19">
<path d="M116.664 155.736C116.664 155.736 111.942 156.999 112.416 159.304C112.891 161.61 110.292 161.799 110.292 161.799C110.292 161.799 110.49 162.661 113.485 162.873C116.48 163.084 117.578 160.771 118.994 162.873C120.41 164.974 121.387 169.677 125.712 167.099C130.038 164.521 130.031 159.478 133.762 161.807C137.494 164.135 140.842 167.908 144.177 166.018C147.512 164.128 150.662 159.093 153.211 160.355C155.76 161.618 160.086 165.806 163.229 164.339C166.373 162.873 167.754 158.291 171.874 159.093C175.995 159.894 177.573 162.835 180.915 161.807C184.257 160.779 185.234 158.465 187.995 158.148C190.756 157.83 192.116 163.712 196.442 164.128C200.768 164.543 201.107 158.465 205.256 158.148C209.405 157.83 211.763 164.339 214.319 164.339C216.875 164.339 218.864 159.304 221.696 159.72C224.528 160.136 225.123 164.755 227.672 164.967C230.22 165.178 232.387 161.55 235.141 161.792C237.895 162.033 237.888 165.957 242.221 161.792C242.221 161.792 237.973 161.194 236.16 155.744C234.348 150.293 138.669 145.061 116.664 155.736Z" fill="white"/>
</mask>
<g mask="url(#mask7_38_433)">
<path opacity="0.6" d="M242.193 161.784C240.267 163.643 239.198 163.885 238.369 163.568C237.329 163.182 236.649 161.912 235.127 161.784C234.046 161.767 232.989 162.128 232.118 162.812C230.624 163.795 229.222 165.08 227.664 164.959C225.817 164.8 224.995 162.351 223.608 160.846C223.106 160.244 222.427 159.843 221.682 159.712C220.167 159.493 218.892 160.824 217.646 162.124C216.556 163.243 215.487 164.331 214.297 164.331C212.775 164.331 211.31 162.011 209.504 160.204C208.287 158.994 206.913 158.019 205.256 158.147C203.132 158.306 202.028 159.954 200.867 161.481C199.706 163.008 198.566 164.324 196.435 164.12C193.893 163.87 192.364 161.731 190.976 160.075C190.013 158.926 189.114 158.019 187.988 158.147C185.73 158.397 184.668 160 182.515 161.171C182.003 161.442 181.47 161.665 180.922 161.837C178.324 162.638 176.788 161.081 174.295 159.924C173.524 159.561 172.716 159.292 171.888 159.123C168.518 158.435 166.982 161.391 164.808 163.288C164.332 163.73 163.798 164.094 163.222 164.369C160.801 165.503 157.693 163.273 155.215 161.617C154.57 161.161 153.898 160.75 153.204 160.385C150.648 159.123 147.54 164.165 144.17 166.048C143.785 166.269 143.369 166.422 142.938 166.501C140.418 166.955 137.869 164.687 135.15 162.721C134.704 162.404 134.244 162.094 133.784 161.806C130.053 159.478 130.053 164.551 125.734 167.098C125.357 167.329 124.959 167.514 124.544 167.65C121.21 168.746 120.296 164.762 119.015 162.872C118.798 162.482 118.46 162.185 118.059 162.033C116.99 161.701 115.808 163.031 113.499 162.872C110.519 162.661 110.313 161.806 110.313 161.806C110.586 161.782 110.854 161.723 111.114 161.633C111.351 161.584 111.576 161.484 111.774 161.339C111.973 161.193 112.142 161.004 112.269 160.786C112.396 160.567 112.479 160.322 112.513 160.067C112.547 159.812 112.531 159.552 112.466 159.304C111.97 156.998 116.714 155.736 116.714 155.736C138.711 145.038 234.376 150.285 236.182 155.736C237.987 161.186 242.193 161.784 242.193 161.784Z" fill="white"/>
<g opacity="0.1">
<path d="M125.21 157.558C126.569 159.251 124.679 164.861 124.502 167.673C121.167 168.769 120.254 164.785 118.972 162.895C118.756 162.505 118.418 162.208 118.017 162.056C120.99 157.853 123.822 155.812 125.21 157.558Z" fill="black"/>
<path d="M141.027 158.707C142.627 161.429 141.862 164.627 142.938 166.494C140.418 166.947 137.869 164.679 135.15 162.714C136.233 157.618 139.065 155.366 141.027 158.707Z" fill="black"/>
<path d="M164.808 163.296C164.332 163.737 163.798 164.102 163.222 164.377C160.801 165.511 157.693 163.281 155.215 161.625C155.741 160.603 156.35 159.631 157.034 158.722C159.498 155.623 161.077 158.979 164.808 163.296Z" fill="black"/>
<path d="M182.501 161.164C181.989 161.435 181.456 161.657 180.908 161.829C178.31 162.631 176.773 161.073 174.281 159.917C175.103 158.201 175.931 156.704 176.88 156.22C179.124 155.048 180.653 158.329 182.501 161.164Z" fill="black"/>
<path d="M200.852 161.512C199.72 163.024 198.551 164.354 196.42 164.15C193.879 163.901 192.349 161.761 190.962 160.106C191.815 159.175 192.889 158.508 194.07 158.178C197.723 157.308 198.898 158.949 200.852 161.512Z" fill="black"/>
<path d="M217.646 162.154C216.556 163.273 215.487 164.362 214.298 164.362C212.775 164.362 211.31 162.041 209.504 160.234C210.33 159.285 211.21 158.391 212.138 157.558C214.135 155.933 215.643 159.025 217.646 162.154Z" fill="black"/>
<path d="M232.118 162.842C230.624 163.825 229.222 165.11 227.665 164.989C225.817 164.831 224.995 162.381 223.608 160.877C224.047 158.488 224.648 156.341 226.284 156.81C229.222 157.694 230.305 160.136 232.118 162.842Z" fill="black"/>
<path d="M242.193 161.784C240.267 163.644 239.198 163.886 238.369 163.568C236.776 162.963 236.571 161.073 236.005 159.788C235.254 158.08 233.817 158.238 232.224 157.633C231.113 157.085 230.037 156.458 229.003 155.759C227.912 155.161 226.567 154.829 225.463 155.441C224.797 155.827 224.252 156.552 223.494 156.583C222.588 156.62 221.923 155.638 221.045 155.388C219.565 154.972 218.149 156.726 216.648 156.401C215.451 156.144 214.743 154.67 213.547 154.428C212.131 154.141 210.977 155.728 209.575 156.152C208.06 156.605 206.531 155.653 205.03 155.154C203.546 154.662 201.965 154.61 200.456 155.003C199.529 155.323 198.583 155.576 197.624 155.759C196.052 155.925 194.473 155.252 192.909 155.464C192.158 155.562 191.443 155.857 190.693 155.91C188.753 156.038 186.728 154.519 184.979 155.434C184.271 155.819 183.613 156.636 182.784 156.598C181.737 156.537 181.305 155.403 180.505 154.897C179.563 154.3 178.628 154.413 177.566 154.262C175.357 153.944 173.425 153.067 171.57 154.927C170.557 155.932 169.679 157.195 168.412 157.77C166.734 158.526 164.766 157.989 163.18 157.014C161.594 156.038 160.227 154.746 158.634 153.755C156.976 152.718 155.055 152.258 153.14 152.44C152.188 152.544 151.269 152.869 150.446 153.391C149.623 153.913 148.917 154.621 148.376 155.464C147.922 156.22 147.625 157.059 147.108 157.732C146.877 158.093 146.555 158.379 146.18 158.557C145.805 158.734 145.391 158.797 144.984 158.737C144 158.458 143.568 157.225 143.002 156.348C138.966 150.172 133.246 158.836 128.736 155.759C126.675 154.352 123.723 154.352 120.487 156.658C117.578 158.73 115.85 162.82 111.071 161.61C111.308 161.562 111.533 161.462 111.732 161.316C111.931 161.17 112.099 160.982 112.226 160.763C112.353 160.544 112.437 160.299 112.471 160.044C112.504 159.789 112.488 159.53 112.423 159.282C111.928 156.976 116.671 155.713 116.671 155.713C138.669 145.016 234.334 150.262 236.139 155.713C237.945 161.164 242.193 161.784 242.193 161.784Z" fill="black"/>
</g>
<path d="M132.445 151.752C130.321 151.88 127.766 160.824 125.309 162.336C122.852 163.848 121.28 160.869 121.28 160.869" stroke="#263238" stroke-linecap="round" stroke-linejoin="round"/>
<path d="M112.211 160.847C114.016 160.166 116.077 159.433 116.862 157.755" stroke="#263238" stroke-linecap="round" stroke-linejoin="round"/>
<path d="M139.355 161.829C139.355 161.829 141.479 166.146 144.857 162.26C148.234 158.374 151.165 155.676 154.294 157.558C157.424 159.44 159.958 162.789 162.245 161.111" stroke="#263238" stroke-linecap="round" stroke-linejoin="round"/>
<path d="M216.69 157.558C216.69 157.558 219.409 153.975 222.942 157.021C226.475 160.068 225.696 162.162 228.542 161.217" stroke="#263238" stroke-linecap="round" stroke-linejoin="round"/>
<path d="M229.725 153.241C229.725 153.241 234.242 156.076 235.325 158.17C236.408 160.264 237.775 163.001 239.155 162.578" stroke="#263238" stroke-linecap="round" stroke-linejoin="round"/>
<path d="M182.083 157.558C182.083 157.558 185.128 153.665 188.958 155.343C192.788 157.021 194.459 161.217 196.746 161.005C199.033 160.794 200.385 157.331 202.743 157.127" stroke="#263238" stroke-linecap="round" stroke-linejoin="round"/>
</g>
<path d="M116.664 155.736C116.664 155.736 111.942 156.999 112.416 159.304C112.891 161.61 110.292 161.799 110.292 161.799C110.292 161.799 110.49 162.661 113.485 162.873C116.48 163.084 117.578 160.771 118.994 162.873C120.41 164.974 121.387 169.677 125.712 167.099C130.038 164.521 130.031 159.478 133.762 161.807C137.494 164.135 140.842 167.908 144.177 166.018C147.512 164.128 150.662 159.093 153.211 160.355C155.76 161.618 160.086 165.806 163.229 164.339C166.373 162.873 167.754 158.291 171.874 159.093C175.995 159.894 177.573 162.835 180.915 161.807C184.257 160.779 185.234 158.465 187.995 158.148C190.756 157.83 192.116 163.712 196.442 164.128C200.768 164.543 201.107 158.465 205.256 158.148C209.405 157.83 211.763 164.339 214.319 164.339C216.875 164.339 218.864 159.304 221.696 159.72C224.528 160.136 225.123 164.755 227.672 164.967C230.22 165.178 232.387 161.55 235.141 161.792C237.895 162.033 237.888 165.957 242.221 161.792C242.221 161.792 237.973 161.194 236.16 155.744C234.348 150.293 138.669 145.061 116.664 155.736Z" stroke="#263238" stroke-linecap="round" stroke-linejoin="round"/>
</svg>
