<svg width="410" height="410" viewBox="0 0 410 410" fill="none" xmlns="http://www.w3.org/2000/svg">
<path d="M83.148 315.487C151.856 351.378 263.245 351.378 331.952 315.487C400.66 279.595 400.652 221.4 331.952 185.509C263.253 149.617 151.856 149.617 83.148 185.509C14.4402 221.4 14.4484 279.62 83.148 315.487Z" fill="#F5F5F5"/>
<path d="M287.599 254.143C300.063 260.088 320.276 260.088 332.699 254.143C345.122 248.198 345.163 238.563 332.699 232.626C320.235 226.689 300.022 226.689 287.599 232.626C275.176 238.563 275.135 248.206 287.599 254.143Z" fill="#E0E0E0"/>
<path d="M139.441 117.481C139.345 117.481 139.252 117.444 139.183 117.376C139.114 117.309 139.074 117.217 139.072 117.121V102.361C139.072 96.2024 142.459 89.2406 146.616 86.8462C148.354 85.8458 150.085 85.731 151.487 86.5428C153.414 87.6498 154.513 90.323 154.513 93.8654V108.535C154.514 108.583 154.505 108.63 154.487 108.675C154.47 108.719 154.443 108.759 154.409 108.793C154.376 108.827 154.335 108.853 154.291 108.871C154.247 108.889 154.2 108.897 154.152 108.896C154.104 108.897 154.056 108.889 154.011 108.871C153.966 108.853 153.926 108.827 153.891 108.793C153.857 108.76 153.83 108.719 153.811 108.675C153.792 108.631 153.783 108.583 153.783 108.535V93.89C153.783 90.61 152.815 88.15 151.118 87.1988C149.937 86.5182 148.51 86.6248 147.018 87.5022C143.065 89.79 139.843 96.4648 139.843 102.385V117.145C139.84 117.194 139.827 117.242 139.805 117.286C139.783 117.329 139.752 117.368 139.714 117.4C139.677 117.431 139.633 117.455 139.586 117.469C139.539 117.483 139.49 117.487 139.441 117.481Z" fill="#455A64"/>
<path d="M182.04 169.355L180.425 99.958L168.617 93.152L167.214 160.802L182.04 169.355Z" fill="#00B06C"/>
<g opacity="0.2">
<path d="M182.04 169.355L180.425 99.958L168.617 93.152L167.214 160.802L182.04 169.355Z" fill="black"/>
</g>
<path d="M127.108 117.121L125.714 184.762L167.214 160.802L168.617 93.152L127.108 117.121Z" fill="#00B06C"/>
<g opacity="0.4">
<path d="M127.108 117.121L125.714 184.762L167.214 160.802L168.617 93.152L127.108 117.121Z" fill="black"/>
</g>
<path d="M138.924 123.918L140.532 193.315L182.04 169.355L180.425 99.958L138.924 123.918Z" fill="#00B06C"/>
<path d="M127.108 117.121L138.924 123.918L140.532 193.315L125.714 184.762L127.108 117.121Z" fill="#00B06C"/>
<g opacity="0.2">
<path d="M127.108 117.121L138.924 123.918L140.532 193.315L125.714 184.762L127.108 117.121Z" fill="black"/>
</g>
<path opacity="0.2" d="M140.532 193.315L134.537 183.008L133.463 141.04L132.397 182.393L125.714 184.762L140.532 193.315Z" fill="black"/>
<g opacity="0.2">
<path d="M151.282 122.18C150.85 122.461 150.491 122.84 150.233 123.286C149.975 123.732 149.826 124.232 149.798 124.747C149.798 125.69 150.462 126.083 151.282 125.616C151.72 125.33 152.083 124.943 152.341 124.488C152.6 124.033 152.745 123.523 152.766 123C152.766 122.057 152.102 121.663 151.282 122.18Z" fill="black"/>
</g>
<g opacity="0.2">
<path d="M165.993 113.578C165.561 113.859 165.202 114.238 164.944 114.684C164.686 115.13 164.537 115.63 164.508 116.145C164.508 117.096 165.173 117.481 165.993 117.014C166.423 116.732 166.78 116.352 167.037 115.907C167.293 115.461 167.441 114.961 167.469 114.447C167.469 113.496 166.813 113.111 165.993 113.578Z" fill="black"/>
</g>
<path d="M151.282 124.222C151.228 124.227 151.173 124.22 151.122 124.202C151.071 124.183 151.025 124.154 150.986 124.115C150.948 124.077 150.919 124.031 150.9 123.98C150.882 123.928 150.875 123.874 150.88 123.82V109.06C150.88 102.91 154.267 95.94 158.416 93.5538C160.162 92.5452 161.893 92.4386 163.287 93.2422C165.214 94.3574 166.321 97.0306 166.321 100.573V115.292C166.329 115.344 166.325 115.398 166.31 115.449C166.296 115.5 166.27 115.547 166.235 115.588C166.201 115.628 166.158 115.66 166.11 115.682C166.061 115.704 166.009 115.716 165.956 115.716C165.903 115.716 165.85 115.704 165.802 115.682C165.754 115.66 165.711 115.628 165.676 115.588C165.641 115.547 165.616 115.5 165.601 115.449C165.586 115.398 165.583 115.344 165.591 115.292V100.63C165.591 97.3504 164.623 94.8904 162.926 93.931C161.745 93.2504 160.31 93.357 158.826 94.2426C154.873 96.5222 151.651 103.197 151.651 109.117V123.877C151.645 123.971 151.603 124.059 151.534 124.123C151.466 124.186 151.376 124.222 151.282 124.222Z" fill="#455A64"/>
<path d="M86.92 153.094C86.8795 153.095 86.8391 153.088 86.8014 153.073C86.7636 153.059 86.7292 153.036 86.7001 153.008C86.6711 152.98 86.648 152.946 86.6322 152.909C86.6165 152.871 86.6084 152.831 86.6084 152.791V140.491C86.6084 135.333 89.4456 129.511 92.9224 127.502C93.518 127.09 94.2145 126.849 94.937 126.804C95.6595 126.76 96.3806 126.913 97.0224 127.248C98.6624 128.174 99.5644 130.413 99.5644 133.381V145.681C99.5524 145.754 99.515 145.82 99.4586 145.868C99.4023 145.916 99.3308 145.942 99.2569 145.942C99.183 145.942 99.1115 145.916 99.0552 145.868C98.9988 145.82 98.9613 145.754 98.9494 145.681V133.381C98.9494 130.634 98.1294 128.592 96.719 127.772C96.1714 127.497 95.5593 127.377 94.9483 127.423C94.3373 127.469 93.7504 127.681 93.2504 128.035C89.9704 129.945 87.248 135.53 87.248 140.491V152.791C87.2481 152.833 87.2396 152.874 87.2228 152.913C87.206 152.951 87.1815 152.986 87.1506 153.014C87.1198 153.043 87.0834 153.065 87.0437 153.078C87.004 153.092 86.9619 153.097 86.92 153.094Z" fill="#455A64"/>
<path d="M122.598 196.521L121.245 138.424L111.356 132.733L110.183 189.363L122.598 196.521Z" fill="#00B06C"/>
<g opacity="0.2">
<path d="M122.598 196.521L121.245 138.424L111.356 132.733L110.183 189.363L122.598 196.521Z" fill="black"/>
</g>
<path d="M76.6126 152.791L75.44 209.42L110.183 189.363L111.356 132.733L76.6126 152.791Z" fill="#00B06C"/>
<g opacity="0.4">
<path d="M76.6126 152.791L75.44 209.42L110.183 189.363L111.356 132.733L76.6126 152.791Z" fill="black"/>
</g>
<path d="M86.5018 158.481L87.8466 216.586L122.598 196.521L121.245 138.424L86.5018 158.481Z" fill="#00B06C"/>
<path d="M76.6126 152.791L86.5018 158.481L87.8466 216.587L75.44 209.42L76.6126 152.791Z" fill="#00B06C"/>
<g opacity="0.2">
<path d="M76.6126 152.791L86.5018 158.481L87.8466 216.587L75.44 209.42L76.6126 152.791Z" fill="black"/>
</g>
<path opacity="0.2" d="M87.8466 216.587L82.8282 207.952L81.9344 172.823L81.0324 207.435L75.44 209.42L87.8466 216.587Z" fill="black"/>
<g opacity="0.2">
<path d="M96.842 156.989C96.4819 157.227 96.1824 157.546 95.9675 157.92C95.7525 158.295 95.628 158.714 95.6038 159.145C95.6038 159.965 96.1614 160.261 96.842 159.867C97.2062 159.634 97.5094 159.318 97.7263 158.944C97.9431 158.571 98.0673 158.15 98.0884 157.719C98.0884 156.923 97.5308 156.62 96.842 156.989Z" fill="#455A64"/>
</g>
<g opacity="0.2">
<path d="M109.158 149.83C108.798 150.066 108.497 150.383 108.282 150.756C108.067 151.13 107.943 151.549 107.92 151.979C107.92 152.799 108.478 153.094 109.158 152.709C109.52 152.474 109.821 152.157 110.036 151.784C110.252 151.41 110.375 150.991 110.397 150.56C110.397 149.757 109.88 149.437 109.158 149.83Z" fill="#455A64"/>
</g>
<path d="M96.842 158.736C96.7622 158.734 96.6862 158.701 96.6297 158.644C96.5733 158.588 96.5406 158.512 96.5386 158.432V146.091C96.5386 140.942 99.3676 135.12 102.853 133.111C103.448 132.699 104.144 132.457 104.866 132.41C105.588 132.364 106.31 132.515 106.953 132.848C108.593 133.783 109.486 136.022 109.486 138.982V151.282C109.488 151.322 109.48 151.362 109.466 151.399C109.451 151.437 109.428 151.47 109.4 151.499C109.372 151.527 109.338 151.55 109.3 151.564C109.263 151.579 109.223 151.586 109.183 151.585C109.103 151.585 109.025 151.553 108.968 151.496C108.912 151.439 108.88 151.362 108.88 151.282V138.982C108.88 136.243 108.06 134.201 106.641 133.381C106.096 133.103 105.484 132.98 104.874 133.026C104.263 133.072 103.677 133.286 103.181 133.644C99.9006 135.554 97.1782 141.138 97.1782 146.091V158.432C97.1772 158.475 97.1676 158.516 97.1499 158.555C97.1322 158.593 97.1069 158.628 97.0754 158.656C97.0439 158.685 97.007 158.706 96.9669 158.72C96.9267 158.734 96.8842 158.739 96.842 158.736Z" fill="#455A64"/>
<path d="M80.2616 246.057L84.4108 243.934C84.4108 243.934 83.7138 236.086 82.3034 228.247C80.36 217.464 71.7008 206.878 62.1478 207.197C52.5948 207.517 54.8416 214.668 59.1794 218.325C61.9264 220.646 77.3506 232.06 80.2616 246.057Z" fill="#00B06C"/>
<g opacity="0.1">
<path d="M80.2616 246.057L84.4108 243.934C84.4108 243.934 83.7138 236.086 82.3034 228.247C80.36 217.464 71.7008 206.878 62.1478 207.197C52.5948 207.517 54.8416 214.668 59.1794 218.325C61.9264 220.646 77.3506 232.06 80.2616 246.057Z" fill="black"/>
</g>
<path d="M82.3034 245.18H82.2542C82.1178 245.165 81.9926 245.098 81.9052 244.992C81.8178 244.887 81.7753 244.751 81.7868 244.614C82.8938 233.7 72.2666 214.405 59.86 209.756C59.7318 209.708 59.6278 209.611 59.5709 209.487C59.514 209.362 59.5089 209.22 59.5566 209.092C59.6045 208.963 59.7014 208.859 59.8259 208.803C59.9505 208.746 60.0925 208.741 60.2208 208.788C72.98 213.585 83.9516 233.438 82.82 244.754C82.8002 244.875 82.7369 244.985 82.6419 245.064C82.5469 245.142 82.4266 245.184 82.3034 245.18Z" fill="white"/>
<path d="M83.1562 255.274L84.4108 246.935C83.4838 241.517 80.7635 236.567 76.6864 232.88C69.7984 226.566 60.1142 223.753 53.6444 225.672C47.1746 227.591 48.1094 233.946 53.8166 236.094C59.5238 238.243 67.2318 238.144 74.3166 243.081C79.1464 246.517 83.394 252.371 83.1562 255.274Z" fill="#00B06C"/>
<path d="M83.64 250.1C83.5201 250.098 83.4046 250.054 83.3133 249.976C83.2221 249.899 83.1607 249.792 83.1398 249.673C81.3112 239.391 65.3294 228.599 53.6198 229.739C53.5528 229.747 53.4849 229.741 53.4201 229.722C53.3553 229.703 53.2951 229.671 53.243 229.629C53.1909 229.586 53.148 229.533 53.117 229.473C53.0859 229.413 53.0673 229.347 53.0622 229.28C53.0543 229.213 53.0599 229.144 53.0788 229.079C53.0978 229.014 53.1296 228.953 53.1724 228.9C53.2152 228.847 53.2681 228.804 53.3281 228.772C53.388 228.74 53.4537 228.72 53.5214 228.714C65.887 227.484 82.2214 238.554 84.132 249.493C84.145 249.559 84.1447 249.628 84.1311 249.694C84.1174 249.76 84.0908 249.823 84.0526 249.878C84.0144 249.934 83.9655 249.982 83.9088 250.018C83.852 250.055 83.7885 250.08 83.722 250.092L83.64 250.1Z" fill="white"/>
<path d="M257.546 191.577L238.538 180.605L214.537 166.747H214.479C212.323 165.55 210.978 162.918 210.978 159.154C210.978 155.546 209.748 152.979 207.755 151.716L224.155 161.179L226.746 162.672L250.715 176.505L250.977 176.661C253.036 177.891 254.307 180.49 254.307 184.156C254.307 187.821 255.52 190.322 257.546 191.577Z" fill="#00B06C"/>
<g opacity="0.1">
<path d="M257.546 191.577L238.538 180.605L214.537 166.747H214.479C212.323 165.55 210.978 162.918 210.978 159.154C210.978 155.546 209.748 152.979 207.755 151.716L224.155 161.179L226.746 162.672L250.715 176.505L250.977 176.661C253.036 177.891 254.307 180.49 254.307 184.156C254.307 187.821 255.52 190.322 257.546 191.577Z" fill="black"/>
</g>
<path d="M277.595 164.877V170.658C277.595 178.096 272.379 187.132 265.942 190.847C262.769 192.684 259.883 192.88 257.783 191.716L257.546 191.577C255.52 190.322 254.266 187.747 254.266 184.123C254.266 180.498 252.995 177.858 250.936 176.628L250.674 176.472L226.705 162.639C231.133 158.17 234.282 151.429 234.282 145.657V139.917L277.595 164.877Z" fill="#00B06C"/>
<path d="M250.69 176.472C248.591 175.365 245.77 175.578 242.622 177.39C241.118 178.274 239.739 179.355 238.522 180.605C234.094 185.066 230.953 191.806 230.953 197.579C230.953 205.016 225.73 214.053 219.293 217.775L207.632 224.508L164.344 199.506L176.005 192.774C182.442 189.059 187.665 180.014 187.665 172.577C187.665 165.14 192.88 156.103 199.326 152.389C202.491 150.56 205.369 150.363 207.468 151.519L207.747 151.675L224.147 161.138L226.738 162.63L250.69 176.472Z" fill="#00B06C"/>
<g opacity="0.4">
<path d="M250.69 176.472C248.591 175.365 245.77 175.578 242.622 177.39C241.118 178.274 239.739 179.355 238.522 180.605C234.094 185.066 230.953 191.806 230.953 197.579C230.953 205.016 225.73 214.053 219.293 217.775L207.632 224.508L164.344 199.506L176.005 192.774C182.442 189.059 187.665 180.014 187.665 172.577C187.665 165.14 192.88 156.103 199.326 152.389C202.491 150.56 205.369 150.363 207.468 151.519L207.747 151.675L224.147 161.138L226.738 162.63L250.69 176.472Z" fill="white"/>
</g>
<path d="M217.603 202.991C217.333 201.187 215.865 200.531 214.094 201.556L207.649 205.27L194.529 212.839C192.132 214.153 189.823 215.621 187.616 217.234C184.227 220.144 181.082 223.325 178.211 226.746C172.471 233.306 166.731 240.424 160.991 243.737L131.233 260.916C130.2 261.59 129.34 262.498 128.723 263.567C128.106 264.635 127.75 265.834 127.682 267.066V278.095C127.682 280.194 129.052 281.137 130.815 280.358C129.752 280.811 128.604 281.027 127.45 280.99C126.295 280.953 125.163 280.665 124.132 280.145L84.624 257.324C83.5908 256.65 82.731 255.742 82.1141 254.673C81.4973 253.605 81.1407 252.406 81.0734 251.174V240.145C81.1394 238.913 81.4954 237.714 82.1124 236.645C82.7294 235.576 83.5899 234.668 84.624 233.995L114.382 216.775C120.122 213.495 125.862 206.345 131.602 199.793C134.485 196.379 137.641 193.206 141.04 190.305C143.245 188.696 145.551 187.231 147.944 185.918L161.064 178.35L167.501 174.627C168.602 174.069 169.818 173.778 171.052 173.778C172.286 173.778 173.502 174.069 174.603 174.627L214.135 197.456C215.072 198.08 215.866 198.896 216.464 199.85C217.062 200.805 217.451 201.875 217.603 202.991Z" fill="#455A64"/>
<path d="M131.036 268.73C131.036 268.73 81.0734 240.137 81.0816 239.891C81.0816 239.891 81.0816 240.055 81.0816 240.137V251.166C81.1476 252.398 81.5036 253.597 82.1206 254.666C82.7376 255.735 83.5981 256.643 84.6322 257.316L124.164 280.145C125.265 280.703 126.481 280.994 127.715 280.994C128.949 280.994 130.165 280.703 131.266 280.145L132.955 279.169L131.036 268.73Z" fill="#37474F"/>
<path d="M214.086 201.548L194.545 212.839C192.15 214.153 189.841 215.618 187.632 217.226C178.76 224.393 169.888 238.62 161.015 243.729L131.257 260.949C130.223 261.622 129.363 262.53 128.746 263.598C128.129 264.667 127.773 265.866 127.707 267.099V278.128C127.707 280.391 129.298 281.309 131.257 280.178L214.077 232.355C215.111 231.681 215.97 230.773 216.587 229.704C217.204 228.636 217.561 227.437 217.628 226.205V203.598C217.644 201.335 216.054 200.416 214.086 201.548Z" fill="#263238"/>
<path d="M187.887 208.993C185.49 210.307 183.181 211.775 180.974 213.389C179.266 214.798 177.647 216.312 176.128 217.923C175.795 218.244 175.37 218.453 174.912 218.519C174.455 218.585 173.988 218.506 173.578 218.292L143.098 200.695C142.918 200.607 142.763 200.477 142.645 200.316C142.527 200.154 142.45 199.966 142.421 199.768C142.392 199.57 142.411 199.368 142.478 199.18C142.544 198.991 142.656 198.822 142.803 198.686C144.328 197.075 145.952 195.56 147.666 194.151C149.87 192.542 152.177 191.077 154.57 189.764C158.301 187.6 162.483 185.181 166.255 183.016C166.696 182.794 167.184 182.678 167.678 182.678C168.172 182.678 168.659 182.794 169.1 183.016L199.572 200.605C199.741 200.664 199.889 200.775 199.993 200.922C200.097 201.069 200.153 201.245 200.153 201.425C200.153 201.605 200.097 201.78 199.993 201.927C199.889 202.074 199.741 202.185 199.572 202.245L187.887 208.993Z" fill="#37474F"/>
<path d="M169.1 184.5C168.659 184.277 168.172 184.161 167.678 184.161C167.183 184.161 166.696 184.277 166.255 184.5L154.57 191.257C152.176 192.569 149.87 194.034 147.666 195.644C145.954 197.052 144.33 198.564 142.803 200.17L142.655 200.359C142.777 200.514 142.928 200.645 143.098 200.744L173.578 218.341C173.988 218.555 174.455 218.634 174.912 218.568C175.37 218.502 175.795 218.293 176.128 217.972C177.647 216.361 179.266 214.847 180.974 213.438C183.181 211.825 185.49 210.356 187.887 209.042L199.572 202.294L199.711 202.195L199.572 202.097L169.1 184.5Z" fill="white"/>
<path d="M124.378 272.576C124.378 273.642 123.558 274.044 122.598 273.478L86.182 252.453C85.6755 252.135 85.2512 251.702 84.9435 251.189C84.6357 250.676 84.4532 250.098 84.4108 249.501C84.4108 248.435 85.2308 248.034 86.182 248.599L122.598 269.632C123.105 269.949 123.53 270.38 123.84 270.892C124.149 271.403 124.333 271.98 124.378 272.576Z" fill="#263238"/>
<path d="M137.498 234.602V233.142L135.808 233.019L132.02 230.814C131.47 230.535 130.862 230.389 130.245 230.389C129.628 230.389 129.02 230.535 128.469 230.814L125.911 232.29L124.624 232.191V233.61C124.636 233.835 124.711 234.052 124.84 234.238C124.969 234.423 125.147 234.569 125.353 234.659L130.126 237.415C130.676 237.693 131.284 237.839 131.901 237.839C132.518 237.839 133.126 237.693 133.676 237.415L136.792 235.619C136.991 235.529 137.163 235.388 137.291 235.211C137.419 235.034 137.499 234.827 137.522 234.61L137.498 234.602Z" fill="#E0E0E0"/>
<path d="M132.02 229.37L136.801 232.126C137.015 232.198 137.201 232.336 137.333 232.52C137.464 232.704 137.535 232.924 137.535 233.151C137.535 233.377 137.464 233.597 137.333 233.781C137.201 233.965 137.015 234.103 136.801 234.176L133.685 235.971C133.134 236.25 132.526 236.395 131.909 236.395C131.292 236.395 130.684 236.25 130.134 235.971L125.362 233.216C125.147 233.144 124.961 233.006 124.83 232.822C124.698 232.638 124.627 232.417 124.627 232.191C124.627 231.965 124.698 231.744 124.83 231.561C124.961 231.377 125.147 231.239 125.362 231.166L128.469 229.37C129.02 229.092 129.628 228.946 130.245 228.946C130.862 228.946 131.47 229.092 132.02 229.37Z" fill="#F5F5F5"/>
<path d="M125.009 227.369V225.91L123.32 225.787L119.499 223.581C118.948 223.302 118.34 223.157 117.723 223.157C117.106 223.157 116.498 223.302 115.948 223.581L113.39 225.057L112.102 224.967V226.377C112.118 226.602 112.195 226.818 112.326 227.001C112.456 227.185 112.634 227.329 112.84 227.419L117.613 230.174C118.162 230.457 118.77 230.604 119.388 230.604C120.006 230.604 120.614 230.457 121.163 230.174L124.271 228.378C124.472 228.291 124.647 228.151 124.777 227.974C124.906 227.796 124.987 227.588 125.009 227.369Z" fill="#E0E0E0"/>
<path d="M119.499 222.138L124.271 224.901C124.485 224.974 124.671 225.112 124.803 225.296C124.935 225.48 125.006 225.7 125.006 225.926C125.006 226.152 124.935 226.373 124.803 226.557C124.671 226.741 124.485 226.879 124.271 226.951L121.163 228.78C120.613 229.059 120.005 229.204 119.388 229.204C118.771 229.204 118.163 229.059 117.613 228.78L112.84 226.016C112.626 225.944 112.44 225.806 112.308 225.622C112.176 225.438 112.106 225.218 112.106 224.991C112.106 224.765 112.176 224.545 112.308 224.361C112.44 224.177 112.626 224.039 112.84 223.966L115.948 222.171C116.496 221.887 117.103 221.736 117.719 221.73C118.336 221.724 118.946 221.864 119.499 222.138Z" fill="#F5F5F5"/>
<path d="M149.986 241.81V240.35L148.346 240.227L144.517 238.021C143.967 237.742 143.358 237.597 142.742 237.597C142.125 237.597 141.516 237.742 140.966 238.021L138.416 239.497L137.12 239.399V240.817C137.134 241.042 137.21 241.259 137.338 241.445C137.467 241.63 137.644 241.776 137.85 241.867L142.631 244.622C143.181 244.901 143.789 245.046 144.406 245.046C145.023 245.046 145.631 244.901 146.181 244.622L149.289 242.826C149.489 242.738 149.662 242.598 149.79 242.421C149.918 242.243 149.997 242.035 150.019 241.818L149.986 241.81Z" fill="#E0E0E0"/>
<path d="M144.484 236.578L149.256 239.333C149.471 239.406 149.657 239.544 149.788 239.728C149.92 239.912 149.991 240.132 149.991 240.358C149.991 240.585 149.92 240.805 149.788 240.989C149.657 241.173 149.471 241.311 149.256 241.383L146.149 243.179C145.598 243.458 144.99 243.603 144.373 243.603C143.756 243.603 143.148 243.458 142.598 243.179L137.817 240.424C137.603 240.351 137.417 240.213 137.285 240.029C137.154 239.846 137.083 239.625 137.083 239.399C137.083 239.173 137.154 238.952 137.285 238.768C137.417 238.585 137.603 238.447 137.817 238.374L140.933 236.578C141.484 236.299 142.092 236.154 142.709 236.154C143.326 236.154 143.934 236.299 144.484 236.578Z" fill="#F5F5F5"/>
<path d="M147.493 228.837V227.378L145.804 227.255L141.983 225.049C141.433 224.77 140.825 224.625 140.208 224.625C139.591 224.625 138.983 224.77 138.432 225.049L135.874 226.525L134.587 226.426V227.845C134.6 228.07 134.676 228.287 134.804 228.472C134.933 228.657 135.11 228.803 135.316 228.895L140.097 231.65C140.647 231.929 141.255 232.074 141.872 232.074C142.489 232.074 143.097 231.929 143.648 231.65L146.755 229.854C146.955 229.764 147.128 229.623 147.257 229.447C147.386 229.27 147.468 229.063 147.493 228.845V228.837Z" fill="#E0E0E0"/>
<path d="M141.983 223.606L146.755 226.361C146.97 226.434 147.156 226.572 147.287 226.755C147.419 226.939 147.49 227.16 147.49 227.386C147.49 227.612 147.419 227.833 147.287 228.016C147.156 228.2 146.97 228.338 146.755 228.411L143.648 230.207C143.097 230.486 142.489 230.631 141.872 230.631C141.255 230.631 140.647 230.486 140.097 230.207L135.3 227.452C135.086 227.379 134.9 227.241 134.768 227.057C134.636 226.873 134.565 226.653 134.565 226.427C134.565 226.2 134.636 225.98 134.768 225.796C134.9 225.612 135.086 225.474 135.3 225.402L138.416 223.606C138.968 223.324 139.58 223.177 140.2 223.177C140.82 223.177 141.431 223.324 141.983 223.606Z" fill="#F5F5F5"/>
<path d="M135.005 221.605V220.145L133.316 220.022L129.494 217.816C128.944 217.538 128.336 217.392 127.719 217.392C127.102 217.392 126.494 217.538 125.944 217.816L123.385 219.292L122.098 219.202V220.58C122.111 220.805 122.186 221.022 122.315 221.208C122.444 221.393 122.621 221.539 122.828 221.629L127.608 224.385C128.159 224.663 128.767 224.809 129.384 224.809C130.001 224.809 130.609 224.663 131.159 224.385L134.267 222.589C134.467 222.501 134.64 222.361 134.769 222.184C134.897 222.006 134.976 221.798 134.997 221.58L135.005 221.605Z" fill="#E0E0E0"/>
<path d="M129.494 216.373L134.267 219.137C134.481 219.209 134.667 219.347 134.799 219.531C134.931 219.715 135.001 219.935 135.001 220.162C135.001 220.388 134.931 220.608 134.799 220.792C134.667 220.976 134.481 221.114 134.267 221.187L131.2 222.982C130.65 223.261 130.042 223.407 129.425 223.407C128.808 223.407 128.2 223.261 127.649 222.982L122.869 220.219C122.655 220.146 122.469 220.008 122.337 219.825C122.205 219.641 122.134 219.42 122.134 219.194C122.134 218.968 122.205 218.747 122.337 218.564C122.469 218.38 122.655 218.242 122.869 218.169L125.985 216.373C126.53 216.101 127.131 215.959 127.74 215.959C128.349 215.959 128.949 216.101 129.494 216.373Z" fill="#F5F5F5"/>
<path d="M159.982 236.045V234.585L158.293 234.462L154.472 232.257C153.921 231.978 153.313 231.833 152.696 231.833C152.079 231.833 151.471 231.978 150.921 232.257L148.363 233.733L147.075 233.634V235.053C147.091 235.278 147.169 235.495 147.299 235.68C147.429 235.865 147.607 236.011 147.813 236.102L152.586 238.858C153.136 239.136 153.744 239.282 154.361 239.282C154.978 239.282 155.586 239.136 156.136 238.858L159.252 237.062C159.451 236.972 159.623 236.831 159.751 236.654C159.879 236.478 159.959 236.27 159.982 236.053V236.045Z" fill="#E0E0E0"/>
<path d="M154.472 230.814L159.252 233.569C159.466 233.641 159.652 233.779 159.784 233.963C159.916 234.147 159.987 234.368 159.987 234.594C159.987 234.82 159.916 235.04 159.784 235.224C159.652 235.408 159.466 235.546 159.252 235.619L156.136 237.415C155.586 237.693 154.978 237.839 154.361 237.839C153.744 237.839 153.136 237.693 152.586 237.415L147.813 234.659C147.599 234.587 147.413 234.449 147.281 234.265C147.149 234.081 147.079 233.861 147.079 233.634C147.079 233.408 147.149 233.188 147.281 233.004C147.413 232.82 147.599 232.682 147.813 232.609L150.921 230.814C151.471 230.535 152.079 230.389 152.696 230.389C153.313 230.389 153.921 230.535 154.472 230.814Z" fill="#F5F5F5"/>
<path d="M127.51 240.391V238.932L125.821 238.809L122 236.603C121.451 236.32 120.842 236.173 120.224 236.173C119.607 236.173 118.998 236.32 118.449 236.603L115.891 238.079L114.603 237.98V239.44C114.619 239.664 114.695 239.881 114.823 240.065C114.952 240.25 115.128 240.397 115.333 240.49L120.114 243.245C120.664 243.524 121.272 243.669 121.889 243.669C122.506 243.669 123.114 243.524 123.664 243.245L126.772 241.449C126.971 241.359 127.144 241.218 127.274 241.042C127.403 240.865 127.484 240.658 127.51 240.44V240.391Z" fill="#E0E0E0"/>
<path d="M122 235.159L126.772 237.915C126.986 237.987 127.172 238.125 127.304 238.309C127.436 238.493 127.507 238.713 127.507 238.94C127.507 239.166 127.436 239.386 127.304 239.57C127.172 239.754 126.986 239.892 126.772 239.965L123.664 241.76C123.114 242.039 122.506 242.185 121.889 242.185C121.272 242.185 120.664 242.039 120.114 241.76L115.333 239.005C115.119 238.933 114.933 238.795 114.801 238.611C114.669 238.427 114.598 238.206 114.598 237.98C114.598 237.754 114.669 237.534 114.801 237.35C114.933 237.166 115.119 237.028 115.333 236.955L118.449 235.159C118.999 234.881 119.607 234.735 120.224 234.735C120.841 234.735 121.449 234.881 122 235.159Z" fill="#F5F5F5"/>
<path d="M115.013 233.159V231.699L113.373 231.576L109.544 229.37C108.994 229.092 108.385 228.946 107.769 228.946C107.152 228.946 106.543 229.092 105.993 229.37L103.443 230.846L102.147 230.748V232.167C102.161 232.392 102.237 232.609 102.365 232.794C102.494 232.979 102.671 233.125 102.877 233.216L107.658 235.971C108.208 236.25 108.816 236.395 109.433 236.395C110.05 236.395 110.658 236.25 111.208 235.971L114.316 234.176C114.516 234.087 114.689 233.947 114.817 233.77C114.945 233.593 115.024 233.385 115.046 233.167L115.013 233.159Z" fill="#E0E0E0"/>
<path d="M109.503 227.96L114.283 230.715C114.498 230.788 114.684 230.926 114.815 231.11C114.947 231.294 115.018 231.514 115.018 231.74C115.018 231.966 114.947 232.187 114.815 232.371C114.684 232.555 114.498 232.693 114.283 232.765L111.176 234.52C110.625 234.799 110.017 234.944 109.4 234.944C108.783 234.944 108.175 234.799 107.625 234.52L102.844 231.765C102.63 231.692 102.444 231.554 102.312 231.37C102.181 231.187 102.11 230.966 102.11 230.74C102.11 230.514 102.181 230.293 102.312 230.109C102.444 229.925 102.63 229.788 102.844 229.715L105.952 227.919C106.506 227.647 107.116 227.508 107.732 227.515C108.349 227.523 108.956 227.675 109.503 227.96Z" fill="#F5F5F5"/>
<path d="M139.999 247.64V246.18L138.309 246.057L134.48 243.811C133.931 243.528 133.322 243.38 132.705 243.38C132.087 243.38 131.479 243.528 130.929 243.811L128.371 245.287L127.1 245.18V246.599C127.117 246.824 127.195 247.04 127.325 247.225C127.455 247.41 127.632 247.556 127.838 247.648L132.61 250.403C133.161 250.682 133.769 250.827 134.386 250.827C135.003 250.827 135.611 250.682 136.161 250.403L139.269 248.608C139.468 248.517 139.641 248.377 139.77 248.2C139.9 248.023 139.981 247.816 140.007 247.599L139.999 247.64Z" fill="#E0E0E0"/>
<path d="M134.48 242.367L139.252 245.123C139.467 245.195 139.653 245.333 139.784 245.517C139.916 245.701 139.987 245.921 139.987 246.148C139.987 246.374 139.916 246.594 139.784 246.778C139.653 246.962 139.467 247.1 139.252 247.173L136.12 248.968C135.57 249.247 134.962 249.392 134.345 249.392C133.728 249.392 133.12 249.247 132.569 248.968L127.797 246.213C127.583 246.141 127.397 246.003 127.265 245.819C127.133 245.635 127.062 245.414 127.062 245.188C127.062 244.962 127.133 244.741 127.265 244.558C127.397 244.374 127.583 244.236 127.797 244.163L130.905 242.367C131.458 242.085 132.071 241.937 132.692 241.937C133.314 241.937 133.927 242.085 134.48 242.367Z" fill="#F5F5F5"/>
<path d="M117.506 246.147V244.688L115.817 244.565L111.996 242.351C111.445 242.072 110.837 241.927 110.22 241.927C109.603 241.927 108.995 242.072 108.445 242.351L105.887 243.827L104.599 243.737V245.18C104.615 245.404 104.692 245.62 104.823 245.804C104.953 245.987 105.131 246.132 105.337 246.221L110.11 248.985C110.66 249.263 111.268 249.409 111.885 249.409C112.502 249.409 113.11 249.263 113.66 248.985L116.776 247.189C116.976 247.098 117.149 246.956 117.277 246.778C117.405 246.6 117.484 246.391 117.506 246.172V246.147Z" fill="#E0E0E0"/>
<path d="M111.996 240.908L116.776 243.671C116.99 243.744 117.176 243.882 117.308 244.066C117.44 244.249 117.511 244.47 117.511 244.696C117.511 244.922 117.44 245.143 117.308 245.327C117.176 245.511 116.99 245.648 116.776 245.721L113.66 247.517C113.11 247.796 112.502 247.941 111.885 247.941C111.268 247.941 110.66 247.796 110.11 247.517L105.337 244.762C105.123 244.689 104.937 244.551 104.805 244.367C104.673 244.183 104.603 243.963 104.603 243.737C104.603 243.511 104.673 243.29 104.805 243.106C104.937 242.922 105.123 242.784 105.337 242.712L108.445 240.908C108.995 240.629 109.603 240.484 110.22 240.484C110.837 240.484 111.445 240.629 111.996 240.908Z" fill="#F5F5F5"/>
<path d="M105.017 238.915V237.456L103.328 237.333L99.507 235.127C98.9567 234.848 98.3486 234.703 97.7317 234.703C97.1148 234.703 96.5066 234.848 95.9564 235.127L93.398 236.603L92.1106 236.504V237.923C92.1244 238.148 92.1997 238.365 92.3284 238.55C92.4571 238.735 92.6342 238.881 92.8404 238.973L97.621 241.728C98.1713 242.007 98.7794 242.152 99.3963 242.152C100.013 242.152 100.621 242.007 101.172 241.728L104.279 239.932C104.479 239.842 104.652 239.701 104.781 239.525C104.91 239.348 104.992 239.141 105.017 238.923V238.915Z" fill="#E0E0E0"/>
<path d="M99.507 233.7L104.279 236.455C104.494 236.528 104.68 236.666 104.811 236.85C104.943 237.034 105.014 237.254 105.014 237.48C105.014 237.706 104.943 237.927 104.811 238.111C104.68 238.295 104.494 238.433 104.279 238.505L101.172 240.26C100.621 240.539 100.013 240.684 99.3963 240.684C98.7795 240.684 98.1713 240.539 97.621 240.26L92.8404 237.505C92.6263 237.432 92.4402 237.294 92.3085 237.11C92.1767 236.926 92.1058 236.706 92.1058 236.48C92.1058 236.254 92.1767 236.033 92.3085 235.849C92.4402 235.665 92.6263 235.527 92.8404 235.455L95.94 233.7C96.4924 233.418 97.1036 233.272 97.7235 233.272C98.3435 233.272 98.9547 233.418 99.507 233.7Z" fill="#F5F5F5"/>
<path d="M129.995 253.38V251.92L128.314 251.797L124.484 249.583C123.934 249.304 123.326 249.159 122.709 249.159C122.092 249.159 121.484 249.304 120.934 249.583L118.375 251.059L117.088 250.969V252.388C117.102 252.612 117.178 252.827 117.307 253.011C117.435 253.195 117.612 253.339 117.818 253.429L122.59 256.192C123.14 256.471 123.748 256.617 124.365 256.617C124.982 256.617 125.59 256.471 126.141 256.192L129.257 254.397C129.458 254.307 129.631 254.166 129.759 253.987C129.888 253.809 129.966 253.599 129.986 253.38H129.995Z" fill="#E0E0E0"/>
<path d="M124.484 248.115L129.265 250.879C129.479 250.952 129.665 251.09 129.797 251.273C129.929 251.457 129.999 251.678 129.999 251.904C129.999 252.13 129.929 252.351 129.797 252.534C129.665 252.718 129.479 252.856 129.265 252.929L126.149 254.725C125.599 255.004 124.99 255.149 124.374 255.149C123.757 255.149 123.148 255.004 122.598 254.725L117.826 251.97C117.612 251.897 117.426 251.759 117.294 251.575C117.162 251.391 117.091 251.171 117.091 250.945C117.091 250.718 117.162 250.498 117.294 250.314C117.426 250.13 117.612 249.992 117.826 249.92L120.934 248.115C121.484 247.837 122.092 247.691 122.709 247.691C123.326 247.691 123.934 247.837 124.484 248.115Z" fill="#F5F5F5"/>
<path d="M143.188 211.658L142.885 210.404L141.622 210.297L137.522 207.911C135.562 206.779 132.963 207.017 131.7 208.411C131.432 208.704 131.236 209.055 131.126 209.436H130.765L131.085 210.765C131.227 211.236 131.462 211.674 131.776 212.053C132.09 212.432 132.477 212.744 132.914 212.97L137.949 215.873C138.357 216.092 138.826 216.174 139.284 216.107C139.743 216.041 140.169 215.83 140.499 215.504C141.292 214.657 142.087 213.782 142.885 212.88C143.034 212.718 143.14 212.522 143.193 212.308C143.246 212.095 143.244 211.871 143.188 211.658Z" fill="#E0E0E0"/>
<path d="M137.629 214.602L132.594 211.699C130.634 210.568 130.134 208.551 131.372 207.157C132.61 205.763 135.234 205.517 137.194 206.656L142.229 209.559C142.408 209.652 142.563 209.785 142.682 209.949C142.8 210.112 142.879 210.301 142.911 210.5C142.944 210.699 142.93 210.903 142.87 211.095C142.81 211.288 142.705 211.464 142.565 211.609C141.767 212.511 140.972 213.386 140.179 214.233C139.85 214.56 139.424 214.772 138.965 214.838C138.506 214.905 138.037 214.822 137.629 214.602Z" fill="#F5F5F5"/>
<path d="M168.92 227.32L168.617 226.049H168.256C167.913 225.64 167.499 225.295 167.034 225.032L162.007 222.13C161.602 221.913 161.137 221.835 160.683 221.909C160.23 221.984 159.813 222.205 159.498 222.54C158.678 223.417 157.932 224.286 157.153 225.123L156.44 225.065L156.759 226.385C156.802 226.558 156.88 226.721 156.989 226.862C157.098 227.003 157.235 227.12 157.391 227.205L162.417 230.108C164.377 231.24 167.034 231.059 168.305 229.665C168.601 229.361 168.814 228.985 168.922 228.574C169.029 228.163 169.029 227.731 168.92 227.32Z" fill="#E0E0E0"/>
<path d="M162.139 228.78L157.112 225.877C156.934 225.788 156.78 225.657 156.663 225.496C156.546 225.334 156.47 225.147 156.441 224.95C156.412 224.752 156.431 224.551 156.496 224.363C156.562 224.175 156.672 224.005 156.817 223.868C157.609 223.015 158.405 222.141 159.203 221.244C159.518 220.91 159.935 220.688 160.388 220.614C160.842 220.54 161.307 220.617 161.712 220.834L166.739 223.737C168.707 224.869 169.289 226.943 168.026 228.337C166.763 229.731 164.107 229.895 162.139 228.78Z" fill="#F5F5F5"/>
<path d="M156.325 219.366L156.021 218.128L155.062 218.063L149.035 214.586C148.529 214.315 147.949 214.219 147.383 214.311C146.817 214.403 146.297 214.678 145.903 215.094C145.288 215.783 144.681 216.455 144.066 217.12C144.009 217.187 143.957 217.258 143.91 217.333H143.303L143.615 218.628C143.67 218.849 143.771 219.056 143.913 219.234C144.054 219.412 144.232 219.558 144.435 219.662L150.888 223.384C151.398 223.658 151.982 223.761 152.555 223.678C153.127 223.596 153.658 223.332 154.07 222.925C154.685 222.269 155.3 221.589 155.907 220.908C156.102 220.708 156.243 220.461 156.316 220.191C156.389 219.922 156.392 219.638 156.325 219.366Z" fill="#E0E0E0"/>
<path d="M155.611 219.612C155.005 220.293 154.39 220.974 153.783 221.63C153.369 222.036 152.837 222.299 152.263 222.382C151.689 222.464 151.104 222.362 150.593 222.089L144.14 218.366C143.917 218.254 143.726 218.09 143.58 217.889C143.434 217.687 143.339 217.453 143.303 217.207C143.267 216.961 143.291 216.71 143.372 216.475C143.453 216.24 143.59 216.028 143.771 215.857C144.386 215.193 144.992 214.52 145.607 213.831C146.002 213.415 146.522 213.14 147.088 213.048C147.654 212.956 148.234 213.053 148.74 213.323L155.193 217.046C155.415 217.165 155.605 217.333 155.751 217.538C155.897 217.743 155.994 217.978 156.034 218.226C156.075 218.474 156.058 218.728 155.984 218.969C155.911 219.209 155.783 219.429 155.611 219.612Z" fill="#F5F5F5"/>
<path d="M341.899 185.246L322.719 174.168L321.325 206.533L341.899 218.464V185.246Z" fill="#00B06C"/>
<path d="M341.899 218.464L351.485 212.929L345.737 183.032L341.899 185.246V218.464Z" fill="#37474F"/>
<path d="M351.485 212.929L345.228 212.118L341.899 218.464L351.485 212.929Z" fill="#37474F"/>
<path d="M351.485 212.929L345.228 212.118L341.899 218.464L351.485 212.929Z" fill="#37474F"/>
<path d="M351.485 212.929L345.228 212.118L341.899 218.464L351.485 212.929Z" fill="#00B06C"/>
<path opacity="0.1" d="M351.485 212.929L345.228 212.118L341.899 218.464L351.485 212.929Z" fill="black"/>
<path d="M345.228 212.118L341.899 183.032V185.246V218.464L345.228 212.118Z" fill="#00B06C"/>
<path opacity="0.2" d="M345.228 212.118L341.899 183.032V185.246V218.464L345.228 212.118Z" fill="black"/>
<path d="M322.719 174.168L326.073 173.922L326.557 171.954L345.737 183.032H341.899V185.246L322.719 174.168Z" fill="#00B06C"/>
<path opacity="0.2" d="M322.719 174.168L326.073 173.922L326.557 171.954L345.737 183.032H341.899V185.246L322.719 174.168Z" fill="black"/>
<path d="M335.634 183.869C335.634 184.147 335.429 184.27 335.183 184.123C335.054 184.038 334.947 183.924 334.87 183.79C334.793 183.656 334.749 183.506 334.74 183.352C334.74 183.065 334.937 182.95 335.183 183.09C335.314 183.175 335.424 183.29 335.502 183.425C335.581 183.56 335.626 183.712 335.634 183.869Z" fill="#00B06C"/>
<path opacity="0.3" d="M335.634 183.869C335.634 184.147 335.429 184.27 335.183 184.123C335.054 184.038 334.947 183.924 334.87 183.79C334.793 183.656 334.749 183.506 334.74 183.352C334.74 183.065 334.937 182.95 335.183 183.09C335.314 183.175 335.424 183.29 335.502 183.425C335.581 183.56 335.626 183.712 335.634 183.869Z" fill="black"/>
<path d="M329.943 180.49C329.943 180.777 329.738 180.892 329.492 180.753C329.357 180.663 329.245 180.541 329.168 180.398C329.091 180.255 329.05 180.095 329.05 179.933C329.05 179.654 329.246 179.531 329.492 179.678C329.628 179.767 329.74 179.887 329.819 180.028C329.897 180.17 329.94 180.328 329.943 180.49Z" fill="#00B06C"/>
<path opacity="0.3" d="M329.943 180.49C329.943 180.777 329.738 180.892 329.492 180.753C329.357 180.663 329.245 180.541 329.168 180.398C329.091 180.255 329.05 180.095 329.05 179.933C329.05 179.654 329.246 179.531 329.492 179.678C329.628 179.767 329.74 179.887 329.819 180.028C329.897 180.17 329.94 180.328 329.943 180.49Z" fill="black"/>
<g style="mix-blend-mode:multiply">
<path d="M339.48 181.597C339.48 181.884 339.275 181.999 339.029 181.86C338.899 181.774 338.791 181.659 338.714 181.523C338.637 181.388 338.593 181.236 338.586 181.081C338.586 180.802 338.783 180.687 339.029 180.826C339.159 180.911 339.268 181.024 339.346 181.158C339.424 181.292 339.47 181.442 339.48 181.597Z" fill="#00B06C"/>
</g>
<g style="mix-blend-mode:multiply" opacity="0.2">
<path d="M339.48 181.597C339.48 181.884 339.275 181.999 339.029 181.86C338.899 181.774 338.791 181.659 338.714 181.523C338.637 181.388 338.593 181.236 338.586 181.081C338.586 180.802 338.783 180.687 339.029 180.826C339.159 180.911 339.268 181.024 339.346 181.158C339.424 181.292 339.47 181.442 339.48 181.597Z" fill="black"/>
</g>
<g style="mix-blend-mode:multiply">
<path d="M333.74 178.227C333.74 178.514 333.535 178.629 333.289 178.489C333.159 178.404 333.051 178.289 332.974 178.153C332.897 178.018 332.853 177.866 332.846 177.71C332.846 177.432 333.043 177.309 333.289 177.456C333.419 177.541 333.528 177.654 333.606 177.788C333.684 177.922 333.73 178.072 333.74 178.227Z" fill="#00B06C"/>
</g>
<g style="mix-blend-mode:multiply" opacity="0.2">
<path d="M333.74 178.227C333.74 178.514 333.535 178.629 333.289 178.489C333.159 178.404 333.051 178.289 332.974 178.153C332.897 178.018 332.853 177.866 332.846 177.71C332.846 177.432 333.043 177.309 333.289 177.456C333.419 177.541 333.528 177.654 333.606 177.788C333.684 177.922 333.73 178.072 333.74 178.227Z" fill="black"/>
</g>
<path d="M345.737 183.032H341.899L345.228 212.118L351.485 212.929L345.737 183.032Z" fill="#00B06C"/>
<path d="M326.557 171.954L326.073 173.922L326.557 176.382L327.524 176.948L326.557 171.954Z" fill="#00B06C"/>
<path d="M320.103 118.203C322.768 118.203 328.131 119.072 330.911 131.257C331.542 134.021 332.067 137.038 332.551 140.917C333.297 146.657 334.191 151.397 334.896 156.825C334.995 157.579 335.355 159.802 335.446 160.49C335.954 164.172 336.979 166.476 336.979 169.273C336.561 170.962 335.585 172.831 331.813 173.217C328.271 172.077 328.959 171.528 328.877 168.354C328.795 165.181 329.788 164.451 329.468 160.671C328.107 151.708 325.425 136.432 325.425 136.432L320.103 118.203Z" fill="#FFA8A7"/>
<path d="M338.988 181.597C338.928 181.596 338.869 181.575 338.823 181.536C338.777 181.497 338.745 181.443 338.734 181.384C338.734 181.384 338.07 177.44 337.25 174.471C336.594 172.118 334.921 171.503 333.445 170.962C333.117 170.847 332.805 170.732 332.535 170.609C332.504 170.596 332.476 170.576 332.453 170.552C332.429 170.528 332.411 170.5 332.399 170.468C332.387 170.437 332.381 170.404 332.382 170.37C332.382 170.337 332.39 170.304 332.403 170.273C332.417 170.242 332.436 170.214 332.46 170.191C332.484 170.168 332.513 170.149 332.544 170.137C332.575 170.125 332.609 170.119 332.642 170.12C332.676 170.121 332.709 170.128 332.74 170.142C333.01 170.265 333.305 170.371 333.617 170.486C335.134 171.035 337.012 171.724 337.717 174.332C338.537 177.333 339.218 181.261 339.226 181.302C339.235 181.369 339.218 181.437 339.179 181.492C339.139 181.548 339.079 181.585 339.013 181.597H338.988Z" fill="#455A64"/>
<path d="M335.183 165.927C334.535 166.998 334.033 168.15 333.691 169.355C333.56 170.002 332.518 169.428 332.321 168.535C332.222 167.17 332.222 165.799 332.321 164.435C331.987 165.696 331.838 167 331.879 168.305C332.092 169.568 332.428 169.847 333.297 170.158C334.166 170.47 334.117 169.674 334.363 168.633C334.609 167.592 335.183 165.927 335.183 165.927Z" fill="#F28F8F"/>
<path d="M334.962 183.335V175.66C334.962 173.955 334.962 172.028 332.198 170.404C331.214 169.83 330.468 169.65 330.099 169.887C329.73 170.125 329.779 170.765 329.779 170.773V180.187C329.779 180.254 329.753 180.319 329.705 180.366C329.657 180.414 329.593 180.441 329.525 180.441C329.458 180.441 329.393 180.414 329.346 180.366C329.298 180.319 329.271 180.254 329.271 180.187V170.798C329.247 170.545 329.285 170.29 329.382 170.056C329.479 169.821 329.633 169.614 329.829 169.453C330.386 169.1 331.264 169.272 332.453 169.961C335.487 171.741 335.478 173.914 335.47 175.66V183.335C335.47 183.403 335.443 183.468 335.396 183.515C335.348 183.563 335.283 183.59 335.216 183.59C335.149 183.59 335.084 183.563 335.036 183.515C334.989 183.468 334.962 183.403 334.962 183.335Z" fill="#455A64"/>
<path d="M333.297 178.227C333.236 178.228 333.177 178.207 333.131 178.168C333.084 178.128 333.053 178.074 333.043 178.014L332.1 172.2C332.088 172.134 332.103 172.065 332.141 172.01C332.18 171.955 332.239 171.917 332.305 171.905C332.372 171.895 332.441 171.912 332.496 171.952C332.551 171.992 332.588 172.051 332.6 172.118L333.551 177.907C333.563 177.973 333.548 178.042 333.51 178.097C333.472 178.153 333.413 178.19 333.346 178.202L333.297 178.227Z" fill="#455A64"/>
<path d="M331.567 170.043C330.173 169.478 328.705 168.403 328.189 168.986C327.937 169.293 327.763 169.656 327.683 170.045C327.602 170.434 327.617 170.837 327.726 171.218C327.834 171.6 328.034 171.95 328.307 172.238C328.581 172.526 328.92 172.744 329.296 172.872C330.885 173.41 332.615 173.354 334.166 172.717L331.567 170.043Z" fill="#FFA8A7"/>
<path d="M318.086 117.916C322.244 117.916 327.262 119.228 329.263 123.074C331.403 127.174 332.813 138.17 332.813 138.17C332.813 138.17 331.239 141.557 325.433 141.179L318.086 117.916Z" fill="#37474F"/>
<path d="M284.876 220.334C283.843 219.793 283.179 221.113 282.244 222.171C281.58 222.909 280.555 224.081 280.399 224.926C280.178 226.181 281.301 228.149 282.547 229.231C283.794 230.313 285.245 231.092 285.696 233.47C285.811 234.561 286.233 235.596 286.914 236.456C287.595 237.316 288.507 237.964 289.542 238.325C292.24 239.489 295.856 239.145 297.086 238.325C298.537 237.382 297.209 236.357 295.175 233.405C292.519 229.6 290.444 226.886 290.444 223.335L284.876 220.334Z" fill="#263238"/>
<path d="M287 217.218L284.819 220.416C284.357 221.081 284.176 221.901 284.314 222.699C284.452 223.497 284.899 224.209 285.557 224.68L285.622 224.721C286.284 225.124 287.066 225.28 287.832 225.162C288.597 225.043 289.296 224.658 289.804 224.073L293.207 220.359L287 217.218Z" fill="#FFA8A7"/>
<path d="M327.098 154.783C327.237 158.883 326.081 175.341 323.269 182.663C320.456 189.986 318.816 194.479 317.93 195.996C317.045 197.513 291.51 222.376 291.51 222.376C291.51 222.376 287.172 222.056 286.483 217.858C286.483 217.858 296.947 200.072 299.218 196.423C301.489 192.774 309.509 187.181 309.509 187.181L308.779 155.275L327.098 154.783Z" fill="#37474F"/>
<path d="M321.468 241.654L326.866 240.427L325.079 232.567L319.681 233.794L321.468 241.654Z" fill="#FFA8A7"/>
<path d="M327.098 154.783H301.202C300.973 157.653 300.382 159.26 300.227 166.198C300.03 177.423 310.468 197.817 310.468 197.817C310.337 199.342 309.689 205.738 311.141 211.404C313.437 220.35 319.677 235.479 319.677 235.479C319.677 235.479 323.58 236.037 325.524 233.782C325.524 233.782 322.071 203.048 321.137 195.176C320.128 186.657 317.545 171.101 317.545 171.101C319.254 169.395 320.805 167.536 322.178 165.55C324.573 162.356 326.251 158.684 327.098 154.783Z" fill="#37474F"/>
<path d="M291.633 148.42C292.797 136.415 296.43 127.977 296.963 124.96L300.489 139.818C299.379 143.804 298.5 147.851 297.857 151.938C297.709 152.963 296.036 161.884 296.299 165.689C296.343 166.361 296.635 166.992 297.119 167.46C298.414 168.731 298.8 169.83 299.669 171.257C300.35 172.38 301.055 172.774 300.874 173.045C300.633 173.332 300.292 173.517 299.92 173.564C299.547 173.612 299.171 173.517 298.865 173.299C298.176 172.829 297.546 172.278 296.988 171.659C297.209 173.13 297.666 174.556 298.341 175.882C299.874 178.924 299.62 180.523 295.364 179.629C292.699 179.063 290.936 176.956 290.231 170.65C290.102 168.377 290.116 166.099 290.272 163.828C290.477 158.539 291.28 152.02 291.633 148.42Z" fill="#FFA8A7"/>
<path d="M309.534 118.162C304.573 119.359 297.799 120.917 295.84 126.296C293.88 131.676 291.74 141.876 291.74 141.876C293.289 143.689 298.111 144.64 300.194 143.516L301.17 140.294V154.742C305.048 158.965 318.586 160.933 327.065 154.742V127.789C327.065 123.476 324.671 118.301 318.045 117.949L309.534 118.162Z" fill="#455A64"/>
<path d="M301.202 140.327L303.687 132.496L301.202 143.836V140.327Z" fill="#37474F"/>
<path d="M307.672 96.0958C307.227 96.0362 306.774 96.0791 306.347 96.2212C305.921 96.3633 305.533 96.6009 305.212 96.9158C304.163 97.99 304.392 99.9744 305.212 104.534L308.451 104.911L307.672 96.0958Z" fill="#263238"/>
<path d="M326.565 94.7756C327.261 94.779 327.95 94.6395 328.59 94.3656C329.583 93.7916 329.845 94.9232 329.304 95.899C328.941 96.6015 328.405 97.1999 327.746 97.6375C327.088 98.0751 326.328 98.3376 325.54 98.4C325.54 98.2606 324.613 95.8662 324.613 95.8662L326.565 94.7756Z" fill="#263238"/>
<path d="M309.189 104.96C308.705 105.247 308.025 104.32 307.426 103.697C307.193 103.43 306.896 103.227 306.562 103.107C306.228 102.987 305.87 102.955 305.52 103.012C305.17 103.07 304.841 103.215 304.563 103.436C304.285 103.656 304.069 103.944 303.933 104.271C302.949 106.346 305.188 109.101 306.5 110.011C306.866 110.329 307.323 110.523 307.806 110.565C308.289 110.608 308.773 110.497 309.189 110.249L309.534 118.178C310.114 119.45 311 120.559 312.114 121.404C313.227 122.25 314.532 122.807 315.913 123.025C320.571 123.656 319.611 119.81 318.086 117.932V115.046C319.25 115.297 320.446 115.358 321.629 115.226C322.235 115.062 323.687 113.316 324.622 111.348C325.671 109.15 327.418 105.239 325.86 98.6295C324.22 91.5283 316.561 91.3151 312.01 94.1769C307.459 97.0387 309.189 104.96 309.189 104.96Z" fill="#FFA8A7"/>
<path d="M309.189 105.78C308.951 105.78 308.025 104.255 307.426 103.705C306.606 102.951 307.672 96.1204 307.672 96.1204C307.672 96.1204 306.852 93.521 308.492 91.8072C310.132 90.0934 313.314 90.3722 315.634 90.2902C318.486 90.3164 321.313 89.7582 323.941 88.6502C327.221 87.2152 327.492 87.0102 327.902 88.4944C328.312 89.9786 328.467 93.2668 326.499 95.489L325.425 97.2356C325.425 97.2356 324.425 98.0556 321.325 98.4574C318.226 98.8592 313.002 97.1782 312.305 97.088C311.42 96.965 311.223 97.8342 310.747 100.196C310.354 102.221 310.001 105.78 309.189 105.78Z" fill="#263238"/>
<path d="M307.672 96.6205L304.769 95.0625C304.965 94.6748 305.306 94.3803 305.717 94.2435C306.129 94.1067 306.579 94.1388 306.967 94.3327C307.357 94.5496 307.648 94.9087 307.779 95.3349C307.911 95.7612 307.872 96.2218 307.672 96.6205Z" fill="#263238"/>
<path d="M318.078 115.03C318.078 115.03 313.765 114.16 312.256 113.39C311.369 112.928 310.641 112.211 310.165 111.331C310.391 112.223 310.796 113.06 311.354 113.791C312.453 115.202 318.078 116.251 318.078 116.251V115.03Z" fill="#F28F8F"/>
<path d="M318.217 104.788C318.211 104.958 318.155 105.123 318.055 105.261C317.956 105.4 317.818 105.506 317.659 105.567C317.499 105.628 317.326 105.64 317.159 105.603C316.993 105.566 316.841 105.481 316.723 105.358C316.605 105.235 316.525 105.08 316.494 104.913C316.463 104.745 316.482 104.572 316.549 104.415C316.615 104.258 316.727 104.124 316.869 104.03C317.011 103.936 317.178 103.886 317.348 103.886C317.465 103.888 317.579 103.913 317.686 103.959C317.793 104.006 317.889 104.073 317.97 104.157C318.05 104.24 318.114 104.339 318.156 104.448C318.199 104.556 318.22 104.671 318.217 104.788Z" fill="#263238"/>
<path d="M317.34 101.524L315.487 102.541C315.354 102.288 315.325 101.993 315.406 101.719C315.488 101.445 315.672 101.213 315.921 101.073C316.043 101.006 316.178 100.964 316.316 100.95C316.455 100.937 316.595 100.951 316.728 100.993C316.861 101.036 316.983 101.105 317.089 101.196C317.194 101.287 317.279 101.399 317.34 101.524Z" fill="#263238"/>
<path d="M317.684 110.569L319.661 111.307C319.617 111.439 319.548 111.562 319.456 111.667C319.364 111.773 319.253 111.858 319.127 111.92C319.002 111.981 318.865 112.016 318.726 112.024C318.586 112.031 318.447 112.01 318.316 111.963C318.051 111.856 317.838 111.652 317.72 111.392C317.603 111.133 317.59 110.838 317.684 110.569Z" fill="#F28F8F"/>
<path d="M325.925 102.238L324.236 100.942C324.315 100.827 324.417 100.73 324.535 100.656C324.653 100.583 324.785 100.534 324.922 100.513C325.06 100.492 325.2 100.5 325.335 100.536C325.469 100.571 325.595 100.634 325.704 100.721C325.93 100.896 326.079 101.152 326.12 101.435C326.161 101.717 326.091 102.005 325.925 102.238Z" fill="#263238"/>
<path d="M325.401 104.542C325.394 104.713 325.338 104.878 325.238 105.016C325.138 105.155 325 105.261 324.84 105.322C324.68 105.382 324.506 105.394 324.34 105.357C324.173 105.319 324.021 105.233 323.903 105.109C323.785 104.986 323.706 104.83 323.676 104.662C323.646 104.494 323.667 104.32 323.734 104.164C323.802 104.007 323.915 103.873 324.058 103.78C324.201 103.687 324.369 103.638 324.54 103.64C324.656 103.642 324.77 103.667 324.876 103.714C324.982 103.76 325.078 103.827 325.158 103.911C325.238 103.995 325.301 104.094 325.343 104.202C325.384 104.31 325.404 104.426 325.401 104.542Z" fill="#263238"/>
<path d="M321.333 104.435L320.513 109.577L323.367 109.24L321.333 104.435Z" fill="#F28F8F"/>
<path d="M326.253 237.8L326.081 237.029C326.647 237.136 329.066 241.129 331.477 242.908C334.109 244.827 336.397 245.959 337.569 246.82C339.144 247.976 336.864 250.338 332.994 250.551C331.067 250.657 327.565 250.067 326.491 249.05C325.417 248.033 324.63 246.328 323.777 245.59C322.924 244.852 321.186 244.212 320.604 243.269C320.282 242.338 320.167 241.347 320.267 240.366C320.267 239.35 320.333 238.243 320.677 238.259C320.677 238.374 320.817 238.849 320.817 238.849C321.831 239.365 322.96 239.613 324.097 239.571C325.007 239.489 326.704 239.276 326.253 237.8Z" fill="#263238"/>
<path d="M320.456 189.961C320.456 189.961 318.16 173.627 317.545 171.101C317.545 171.101 321.251 169.043 322.654 167.436C321.589 168.97 320.422 170.43 319.16 171.806L320.456 189.961Z" fill="#263238"/>
<path d="M306.59 189.42C306.59 189.42 309.353 196.3 310.468 197.817C310.468 197.817 310.19 203.057 310.231 204.114L308.779 205.385C308.737 203.013 308.954 200.642 309.427 198.317C308.159 195.464 307.208 192.48 306.59 189.42Z" fill="#263238"/>
<path d="M125.796 290.993L226.213 233.011C226.653 232.789 227.139 232.673 227.632 232.673C228.125 232.673 228.611 232.789 229.051 233.011L292.83 269.837C293.244 270.106 293.589 270.469 293.835 270.897C294.082 271.325 294.223 271.805 294.249 272.297V272.863C294.223 273.356 294.081 273.836 293.834 274.263C293.588 274.691 293.244 275.054 292.83 275.323L192.413 333.297C191.975 333.522 191.49 333.639 190.998 333.639C190.507 333.639 190.022 333.522 189.584 333.297L125.788 295.856C125.376 295.585 125.034 295.222 124.789 294.794C124.544 294.367 124.403 293.888 124.378 293.396C124.41 292.913 124.556 292.444 124.802 292.027C125.048 291.609 125.389 291.256 125.796 290.993Z" fill="#00B06C"/>
<g opacity="0.2">
<path d="M125.796 290.993L226.213 233.011C226.653 232.789 227.139 232.673 227.632 232.673C228.125 232.673 228.611 232.789 229.051 233.011L292.83 269.837C293.244 270.106 293.589 270.469 293.835 270.897C294.082 271.325 294.223 271.805 294.249 272.297V272.863C294.223 273.356 294.081 273.836 293.834 274.263C293.588 274.691 293.244 275.054 292.83 275.323L192.413 333.297C191.975 333.522 191.49 333.639 190.998 333.639C190.507 333.639 190.022 333.522 189.584 333.297L125.788 295.856C125.376 295.585 125.034 295.222 124.789 294.794C124.544 294.367 124.403 293.888 124.378 293.396C124.41 292.913 124.556 292.444 124.802 292.027C125.048 291.609 125.389 291.256 125.796 290.993Z" fill="white"/>
</g>
<path d="M124.378 293.421C124.403 293.913 124.544 294.392 124.789 294.819C125.034 295.246 125.376 295.61 125.788 295.881L189.584 333.314C190.035 333.495 190.51 333.611 190.994 333.658V322.58L187.665 278.349L151.028 276.422L125.796 290.994C125.386 291.258 125.043 291.616 124.797 292.038C124.55 292.459 124.407 292.933 124.378 293.421Z" fill="#00B06C"/>
<path d="M124.378 293.421C124.403 293.913 124.544 294.392 124.789 294.819C125.034 295.246 125.376 295.61 125.788 295.881L189.584 333.314C190.035 333.495 190.51 333.611 190.994 333.658V322.58L187.665 278.349L151.028 276.422L125.796 290.994C125.386 291.258 125.043 291.616 124.797 292.038C124.55 292.459 124.407 292.933 124.378 293.421Z" fill="#00B06C"/>
<g opacity="0.2">
<path d="M124.378 293.421C124.403 293.913 124.544 294.392 124.789 294.819C125.034 295.246 125.376 295.61 125.788 295.881L189.584 333.314C190.035 333.495 190.51 333.611 190.994 333.658V322.58L187.665 278.349L151.028 276.422L125.796 290.994C125.386 291.258 125.043 291.616 124.797 292.038C124.55 292.459 124.407 292.933 124.378 293.421Z" fill="black"/>
</g>
<path d="M229.051 233.011L292.83 269.837C293.004 269.893 293.156 270.002 293.263 270.15C293.371 270.297 293.429 270.475 293.429 270.657C293.429 270.84 293.371 271.018 293.263 271.165C293.156 271.312 293.004 271.422 292.83 271.477L192.413 329.451C191.973 329.674 191.487 329.79 190.994 329.79C190.501 329.79 190.016 329.674 189.576 329.451L125.796 292.633C125.626 292.574 125.479 292.463 125.375 292.316C125.271 292.169 125.215 291.993 125.215 291.813C125.215 291.633 125.271 291.458 125.375 291.311C125.479 291.164 125.626 291.053 125.796 290.993L226.213 233.011C226.653 232.789 227.139 232.673 227.632 232.673C228.125 232.673 228.611 232.789 229.051 233.011Z" fill="#00B06C"/>
<path d="M181.523 274.7C181.34 274.683 181.163 274.624 181.007 274.528L174.775 270.928C174.586 270.821 174.488 270.715 174.471 270.625C174.455 270.534 174.537 270.428 174.709 270.329L177.489 268.73C178.124 268.337 178.857 268.128 179.605 268.128C180.352 268.128 181.085 268.337 181.72 268.73C181.999 268.87 182.232 269.086 182.393 269.354C182.451 269.45 182.482 269.561 182.482 269.673C182.482 269.786 182.451 269.897 182.393 269.993C182.806 269.887 183.237 269.865 183.66 269.928C184.083 269.991 184.488 270.139 184.853 270.362C185.5 270.739 185.837 271.182 185.861 271.625C185.886 272.068 185.509 272.552 184.746 272.994L182.04 274.511C181.891 274.626 181.711 274.691 181.523 274.7ZM179.998 270.6C180.187 270.485 180.285 270.37 180.277 270.247C180.269 270.124 180.162 269.993 179.949 269.87C179.754 269.749 179.531 269.681 179.301 269.673C179.087 269.678 178.879 269.737 178.694 269.846L177.669 270.444L178.973 271.19L179.998 270.6ZM183.049 272.183C183.254 272.068 183.336 271.937 183.311 271.797C183.284 271.71 183.239 271.63 183.178 271.562C183.117 271.494 183.042 271.44 182.958 271.404C182.738 271.27 182.486 271.197 182.229 271.19C181.995 271.185 181.765 271.245 181.564 271.363L180.416 272.027L181.868 272.847L183.049 272.183Z" fill="white"/>
<path d="M186.739 271.576C186.676 271.533 186.621 271.48 186.575 271.42L182.393 266.279C182.327 266.205 182.285 266.114 182.27 266.016C182.27 265.951 182.335 265.885 182.458 265.82L183.278 265.328C183.385 265.263 183.506 265.227 183.631 265.221C183.781 265.223 183.931 265.248 184.074 265.295L192.987 267.706C193.076 267.721 193.162 267.752 193.241 267.796C193.307 267.796 193.34 267.87 193.34 267.911C193.34 267.952 193.34 267.993 193.249 268.025L191.806 268.845C191.723 268.891 191.63 268.919 191.536 268.927C191.427 268.932 191.318 268.916 191.216 268.878L189.855 268.476L187.903 269.6L188.616 270.379C188.643 270.402 188.664 270.432 188.678 270.464C188.692 270.497 188.699 270.532 188.698 270.567C188.667 270.637 188.612 270.692 188.543 270.723L187.108 271.543C187.055 271.581 186.993 271.605 186.928 271.611C186.863 271.616 186.797 271.604 186.739 271.576ZM188.01 267.878L185.607 267.156L186.87 268.542L188.01 267.878Z" fill="white"/>
<path d="M194.061 267.418C193.878 267.401 193.701 267.342 193.545 267.246L187.304 263.638C187.118 263.534 187.02 263.436 187.009 263.343C186.998 263.25 187.08 263.152 187.255 263.048L187.993 262.621C188.092 262.562 188.2 262.52 188.313 262.498C188.449 262.475 188.587 262.475 188.723 262.498L194.463 263.318L191.183 261.416C191.003 261.309 190.896 261.203 190.88 261.113C190.863 261.022 190.945 260.916 191.117 260.817L192.028 260.293C192.184 260.199 192.362 260.151 192.544 260.153C192.73 260.169 192.91 260.228 193.069 260.325L199.309 263.933C199.495 264.037 199.593 264.136 199.604 264.229C199.604 264.319 199.522 264.417 199.342 264.524L198.612 264.942C198.514 265.004 198.406 265.049 198.292 265.073C198.159 265.097 198.023 265.097 197.891 265.073L192.151 264.253L195.431 266.164C195.616 266.273 195.715 266.371 195.726 266.459C195.726 266.549 195.644 266.648 195.463 266.754L194.561 267.279C194.41 267.37 194.237 267.418 194.061 267.418Z" fill="white"/>
<path d="M206.074 260.399C206.132 260.399 206.173 260.473 206.173 260.514C206.173 260.555 206.173 260.596 206.082 260.629L204.639 261.449C204.567 261.491 204.49 261.524 204.41 261.547C204.334 261.564 204.256 261.564 204.18 261.547L199.317 260.85L201.95 262.375C202.138 262.482 202.237 262.58 202.253 262.679C202.269 262.777 202.179 262.867 201.999 262.974L201.089 263.491C200.941 263.589 200.766 263.641 200.588 263.638C200.404 263.623 200.226 263.561 200.072 263.458L193.84 259.866C193.651 259.76 193.553 259.653 193.536 259.563C193.52 259.473 193.602 259.366 193.774 259.268L194.676 258.743C194.832 258.65 195.011 258.601 195.193 258.603C195.379 258.618 195.559 258.677 195.718 258.776L198.301 260.268L197.071 257.537C197.058 257.516 197.052 257.492 197.052 257.468C197.052 257.443 197.058 257.419 197.071 257.398C197.121 257.341 197.183 257.293 197.251 257.259L198.686 256.439C198.746 256.406 198.814 256.389 198.883 256.389C198.955 256.388 199.027 256.408 199.088 256.447C199.153 256.479 199.203 256.535 199.227 256.603L200.449 259.612L205.804 260.309C205.9 260.318 205.992 260.348 206.074 260.399Z" fill="white"/>
<path d="M209.74 257.579C208.41 257.534 207.115 257.15 205.976 256.463C204.721 255.734 204.073 255.02 204.016 254.299C203.959 253.577 204.492 252.913 205.59 252.273C206.053 252.007 206.542 251.79 207.05 251.625C207.518 251.471 208.002 251.372 208.493 251.33C208.595 251.318 208.698 251.338 208.788 251.388C208.852 251.43 208.905 251.486 208.944 251.552L209.33 252.24C209.387 252.314 209.387 252.372 209.33 252.404C209.247 252.444 209.158 252.466 209.067 252.47C208.489 252.545 207.931 252.735 207.427 253.028C206.845 253.356 206.607 253.725 206.665 254.126C206.722 254.528 207.14 254.946 207.886 255.381C208.554 255.787 209.312 256.024 210.092 256.07C210.772 256.109 211.45 255.952 212.044 255.619C212.473 255.404 212.822 255.056 213.036 254.627C213.062 254.569 213.101 254.518 213.151 254.479C213.241 254.448 213.339 254.448 213.43 254.479L214.676 254.709C214.762 254.723 214.845 254.75 214.922 254.791C214.953 254.808 214.979 254.835 214.995 254.867C215.011 254.899 215.017 254.935 215.012 254.971C214.906 255.512 214.34 256.078 213.323 256.66C212.238 257.296 210.997 257.614 209.74 257.579Z" fill="white"/>
<path d="M215.545 254.946C215.48 254.904 215.422 254.851 215.373 254.791L211.199 249.649C211.126 249.581 211.081 249.487 211.076 249.387C211.076 249.321 211.142 249.256 211.257 249.19L212.077 248.698C212.18 248.633 212.299 248.596 212.421 248.591C212.574 248.593 212.726 248.618 212.872 248.665L221.785 251.076C221.872 251.091 221.955 251.122 222.031 251.166C222.097 251.166 222.13 251.24 222.13 251.281C222.13 251.322 222.13 251.363 222.04 251.396L220.596 252.216C220.516 252.262 220.427 252.291 220.334 252.298C220.225 252.303 220.116 252.286 220.014 252.249L218.653 251.847L216.693 252.978L217.415 253.798C217.472 253.864 217.505 253.93 217.489 253.979C217.472 254.028 217.431 254.085 217.333 254.135L215.898 254.955C215.844 254.985 215.782 255 215.72 254.999C215.658 254.998 215.598 254.979 215.545 254.946ZM216.808 251.248L214.414 250.526L215.676 251.912L216.808 251.248Z" fill="white"/>
<path d="M222.868 250.789C222.682 250.773 222.502 250.714 222.343 250.617L216.111 247.017C215.931 246.91 215.832 246.812 215.816 246.713C215.799 246.615 215.873 246.525 216.054 246.418L218.341 245.098C219.091 244.619 219.961 244.364 220.851 244.364C221.74 244.364 222.611 244.619 223.36 245.098C224.385 245.688 224.746 246.295 224.45 246.918L227.689 247.738C227.761 247.751 227.831 247.776 227.894 247.812C227.921 247.825 227.944 247.843 227.962 247.866C227.981 247.888 227.994 247.915 228.001 247.943C228.001 247.993 228.001 248.034 227.903 248.075L226.599 248.829C226.516 248.873 226.428 248.906 226.336 248.927C226.245 248.951 226.149 248.951 226.058 248.927L223.097 248.107L222.376 248.526L224.229 249.592C224.418 249.698 224.516 249.805 224.524 249.895C224.532 249.985 224.459 250.084 224.278 250.19L223.368 250.715C223.211 250.784 223.038 250.81 222.868 250.789ZM221.531 247.173C222.097 246.845 222.072 246.508 221.474 246.164C221.222 245.996 220.929 245.901 220.626 245.889C220.324 245.878 220.024 245.95 219.76 246.098L219.022 246.525L220.842 247.574L221.531 247.173Z" fill="white"/>
<path d="M228.78 247.369C228.597 247.352 228.42 247.294 228.263 247.197L222.031 243.597C221.851 243.491 221.744 243.392 221.728 243.294C221.712 243.196 221.794 243.105 221.966 243.007L224.024 241.818C225.028 241.221 226.177 240.912 227.345 240.924C228.622 240.986 229.864 241.369 230.953 242.039C232.175 242.753 232.814 243.442 232.864 244.114C232.913 244.786 232.404 245.434 231.338 246.049L229.288 247.23C229.137 247.327 228.96 247.376 228.78 247.369ZM229.862 245.098C230.313 244.836 230.486 244.557 230.387 244.278C230.289 243.999 229.854 243.597 229.075 243.146C228.485 242.768 227.824 242.514 227.132 242.4C226.628 242.337 226.117 242.444 225.68 242.704L224.942 243.13L229.124 245.549L229.862 245.098Z" fill="white"/>
<path d="M145.78 294.839L162.926 284.934C163.367 284.712 163.854 284.596 164.348 284.596C164.843 284.596 165.33 284.712 165.771 284.934L179.58 292.912C179.754 292.968 179.905 293.077 180.013 293.225C180.12 293.372 180.178 293.55 180.178 293.732C180.178 293.915 180.12 294.093 180.013 294.24C179.905 294.387 179.754 294.497 179.58 294.552L162.434 304.45C161.994 304.672 161.508 304.788 161.015 304.788C160.522 304.788 160.036 304.672 159.597 304.45L145.78 296.479C145.61 296.42 145.463 296.309 145.359 296.162C145.255 296.015 145.199 295.839 145.199 295.659C145.199 295.479 145.255 295.304 145.359 295.157C145.463 295.01 145.61 294.899 145.78 294.839Z" fill="#E0E0E0"/>
<mask id="mask0_38_3734" style="mask-type:luminance" maskUnits="userSpaceOnUse" x="145" y="284" width="36" height="21">
<path d="M145.78 294.839L162.926 284.934C163.367 284.712 163.854 284.596 164.348 284.596C164.843 284.596 165.33 284.712 165.771 284.934L179.58 292.912C179.754 292.968 179.905 293.077 180.013 293.225C180.12 293.372 180.178 293.55 180.178 293.732C180.178 293.915 180.12 294.093 180.013 294.24C179.905 294.387 179.754 294.497 179.58 294.552L162.434 304.45C161.994 304.672 161.508 304.788 161.015 304.788C160.522 304.788 160.036 304.672 159.597 304.45L145.78 296.479C145.61 296.42 145.463 296.309 145.359 296.162C145.255 296.015 145.199 295.839 145.199 295.659C145.199 295.479 145.255 295.304 145.359 295.157C145.463 295.01 145.61 294.899 145.78 294.839Z" fill="white"/>
</mask>
<g mask="url(#mask0_38_3734)">
<path d="M171.085 303.703L159.129 296.938C158.692 296.69 158.197 296.56 157.694 296.56C157.191 296.56 156.697 296.69 156.259 296.938L147.895 301.76L147.485 301.055L155.849 296.225C156.41 295.907 157.045 295.739 157.69 295.739C158.335 295.739 158.97 295.907 159.531 296.225L171.487 302.99L171.085 303.703Z" fill="white"/>
<path d="M167.682 293.626C167.023 293.627 166.375 293.454 165.804 293.125L154.16 286.393L154.57 285.688L166.222 292.412C166.667 292.67 167.172 292.805 167.686 292.805C168.2 292.805 168.705 292.67 169.15 292.412L177.473 287.607L177.883 288.32L169.56 293.125C168.989 293.456 168.341 293.628 167.682 293.626Z" fill="white"/>
<path d="M164.549 292.166L164.139 291.453L173.52 286.041L171.011 284.589L161.22 290.239L160.81 289.534L171.011 283.646L175.16 286.041L164.549 292.166Z" fill="white"/>
<path d="M154.357 305.745L150.199 303.351L160.884 297.225L161.294 297.931L151.848 303.351L154.357 304.794L164.213 299.111L164.623 299.817L154.357 305.745Z" fill="white"/>
</g>
<path d="M169.797 307.894L185.525 298.816C186.186 298.481 186.916 298.306 187.657 298.306C188.398 298.306 189.128 298.481 189.789 298.816L192.183 300.202C193.364 300.874 193.364 301.981 192.183 302.662L176.464 311.739C175.803 312.075 175.073 312.25 174.332 312.25C173.591 312.25 172.861 312.075 172.2 311.739L169.797 310.354C168.625 309.673 168.625 308.566 169.797 307.894Z" fill="#00B06C"/>
<g opacity="0.7">
<path d="M170.617 307.894L186.345 298.816C187.006 298.481 187.736 298.306 188.477 298.306C189.218 298.306 189.948 298.481 190.609 298.816L193.003 300.202C194.184 300.874 194.184 301.981 193.003 302.662L177.284 311.739C176.623 312.075 175.893 312.25 175.152 312.25C174.411 312.25 173.681 312.075 173.02 311.739L170.617 310.354C169.445 309.673 169.445 308.566 170.617 307.894Z" fill="white"/>
</g>
<path d="M193.118 294.429L208.838 285.36C209.498 285.025 210.229 284.85 210.97 284.85C211.71 284.85 212.441 285.025 213.102 285.36L215.504 286.746C216.677 287.427 216.677 288.525 215.504 289.206L199.777 298.283C199.117 298.619 198.388 298.794 197.649 298.794C196.909 298.794 196.18 298.619 195.521 298.283L193.118 296.898C191.937 296.209 191.937 295.11 193.118 294.429Z" fill="#00B06C"/>
<path d="M193.118 294.429L208.838 285.36C209.498 285.025 210.229 284.85 210.97 284.85C211.71 284.85 212.441 285.025 213.102 285.36L215.504 286.746C216.677 287.427 216.677 288.525 215.504 289.206L199.777 298.283C199.117 298.619 198.388 298.794 197.649 298.794C196.909 298.794 196.18 298.619 195.521 298.283L193.118 296.898C191.937 296.209 191.937 295.11 193.118 294.429Z" fill="#00B06C"/>
<path opacity="0.7" d="M193.118 294.429L208.838 285.36C209.498 285.025 210.229 284.85 210.97 284.85C211.71 284.85 212.441 285.025 213.102 285.36L215.504 286.746C216.677 287.427 216.677 288.525 215.504 289.206L199.777 298.283C199.117 298.619 198.388 298.794 197.649 298.794C196.909 298.794 196.18 298.619 195.521 298.283L193.118 296.898C191.937 296.209 191.937 295.11 193.118 294.429Z" fill="white"/>
<path d="M216.431 280.965L232.158 271.887C232.818 271.552 233.547 271.377 234.286 271.377C235.026 271.377 235.755 271.552 236.414 271.887L238.817 273.273C239.998 273.954 239.998 275.053 238.817 275.733L223.097 284.811C222.437 285.146 221.706 285.321 220.965 285.321C220.224 285.321 219.494 285.146 218.833 284.811L216.431 283.425C215.258 282.744 215.258 281.645 216.431 280.965Z" fill="#00B06C"/>
<path opacity="0.7" d="M216.431 280.965L232.158 271.887C232.818 271.552 233.547 271.377 234.286 271.377C235.026 271.377 235.755 271.552 236.414 271.887L238.817 273.273C239.998 273.954 239.998 275.053 238.817 275.733L223.097 284.811C222.437 285.146 221.706 285.321 220.965 285.321C220.224 285.321 219.494 285.146 218.833 284.811L216.431 283.425C215.258 282.744 215.258 281.645 216.431 280.965Z" fill="white"/>
<path d="M239.752 267.509L255.471 258.431C256.132 258.096 256.862 257.921 257.603 257.921C258.344 257.921 259.074 258.096 259.735 258.431L262.138 259.817C263.31 260.489 263.31 261.596 262.138 262.277L246.41 271.354C245.749 271.69 245.019 271.865 244.278 271.865C243.537 271.865 242.807 271.69 242.146 271.354L239.752 269.969C238.571 269.288 238.571 268.181 239.752 267.509Z" fill="#00B06C"/>
<path opacity="0.7" d="M239.752 267.509L255.471 258.431C256.132 258.096 256.862 257.921 257.603 257.921C258.344 257.921 259.074 258.096 259.735 258.431L262.138 259.817C263.31 260.489 263.31 261.596 262.138 262.277L246.41 271.354C245.749 271.69 245.019 271.865 244.278 271.865C243.537 271.865 242.807 271.69 242.146 271.354L239.752 269.969C238.571 269.288 238.571 268.181 239.752 267.509Z" fill="white"/>
<path d="M272.986 266.082C273.675 266.484 273.601 267.172 272.814 267.632L232.355 290.985C231.949 291.212 231.495 291.338 231.03 291.356C230.566 291.373 230.104 291.279 229.682 291.084C228.993 290.682 229.067 289.993 229.854 289.542L270.313 266.18C270.72 265.958 271.174 265.833 271.638 265.816C272.102 265.799 272.564 265.89 272.986 266.082Z" fill="#00B06C"/>
<g opacity="0.1">
<path d="M272.986 266.082C273.675 266.484 273.601 267.172 272.814 267.632L232.355 290.985C231.949 291.212 231.495 291.338 231.03 291.356C230.566 291.373 230.104 291.279 229.682 291.084C228.993 290.682 229.067 289.993 229.854 289.542L270.313 266.18C270.72 265.958 271.174 265.833 271.638 265.816C272.102 265.799 272.564 265.89 272.986 266.082Z" fill="black"/>
</g>
<path d="M279.677 269.936C280.374 270.338 280.301 271.026 279.513 271.477L253.601 286.426C253.195 286.652 252.741 286.779 252.277 286.796C251.812 286.814 251.35 286.72 250.928 286.524C250.239 286.131 250.313 285.434 251.1 284.983L277.004 270.034C277.41 269.808 277.864 269.681 278.329 269.664C278.794 269.647 279.256 269.74 279.677 269.936Z" fill="#00B06C"/>
<g opacity="0.1">
<path d="M279.677 269.936C280.374 270.338 280.301 271.026 279.513 271.477L253.601 286.426C253.195 286.652 252.741 286.779 252.277 286.796C251.812 286.814 251.35 286.72 250.928 286.524C250.239 286.131 250.313 285.434 251.1 284.983L277.004 270.034C277.41 269.808 277.864 269.681 278.329 269.664C278.794 269.647 279.256 269.74 279.677 269.936Z" fill="black"/>
</g>
</svg>
