<svg width="279" height="299" viewBox="0 0 279 299" fill="none" xmlns="http://www.w3.org/2000/svg">
<path d="M228.222 152.544C178.889 122.046 99.1677 122.046 50.153 152.544C1.13832 183.042 1.4229 232.562 50.778 263.084C100.133 293.606 179.832 293.612 228.847 263.084C277.862 232.556 277.577 183.072 228.222 152.544Z" fill="#FAFAFA"/>
<path d="M245.408 234.506C246.993 235.486 246.999 237.077 245.408 238.058L238.936 242.058C238.051 242.542 237.072 242.794 236.079 242.794C235.085 242.794 234.106 242.542 233.222 242.058L162.272 198.147C160.687 197.173 160.676 195.582 162.272 194.601L168.739 190.601C169.625 190.117 170.605 189.865 171.599 189.865C172.593 189.865 173.573 190.117 174.459 190.601L245.408 234.506Z" fill="#F0F0F0"/>
<path d="M225.499 240.809C227.089 241.795 227.095 243.38 225.499 244.361L219.026 248.361C218.14 248.845 217.16 249.097 216.166 249.097C215.172 249.097 214.192 248.845 213.307 248.361L152.708 210.849C151.123 209.868 151.112 208.277 152.708 207.297L159.181 203.296C160.066 202.812 161.046 202.56 162.04 202.56C163.034 202.56 164.014 202.812 164.9 203.296L225.499 240.809Z" fill="#F0F0F0"/>
<path d="M50.3428 237.86C45.9959 235.169 38.9651 235.169 34.6406 237.86C30.3161 240.551 30.344 244.917 34.6909 247.608C39.0377 250.299 46.0741 250.299 50.393 247.608C54.7119 244.917 54.684 240.551 50.3428 237.86Z" fill="#F0F0F0"/>
<path d="M72.1438 231.546C85.5749 223.233 107.298 223.233 120.634 231.546C133.97 239.858 133.909 253.337 120.472 261.649C107.036 269.961 85.3182 269.961 71.982 261.649C58.6458 253.337 58.7072 239.858 72.1438 231.546Z" fill="#F0F0F0"/>
<path d="M56.1683 204.875L85.0281 187.019C85.2268 186.9 85.3923 186.726 85.5075 186.516C85.6227 186.306 85.6835 186.066 85.6835 185.823C85.6835 185.579 85.6227 185.339 85.5075 185.129C85.3923 184.919 85.2268 184.745 85.0281 184.627L59.5944 168.809C59.4002 168.689 59.1798 168.626 58.9555 168.626C58.7312 168.626 58.5109 168.689 58.3166 168.809L28.8207 187.06C28.622 187.179 28.4565 187.353 28.3413 187.563C28.226 187.773 28.1653 188.013 28.1653 188.256C28.1653 188.5 28.226 188.74 28.3413 188.95C28.4565 189.16 28.622 189.334 28.8207 189.452L53.6127 204.893C54.0028 205.13 54.4442 205.253 54.8927 205.25C55.3412 205.247 55.7811 205.117 56.1683 204.875Z" fill="#F0F0F0"/>
<path d="M146.001 145.278C139.193 141.092 128.189 141.092 121.449 145.278C114.708 149.464 114.719 156.323 121.527 160.533C128.334 164.743 139.338 164.749 146.079 160.533C152.819 156.317 152.808 149.5 146.001 145.278Z" fill="#F0F0F0"/>
<path d="M89.3525 51.9602L87.1651 50.5968L64.0583 64.8411V67.5501L89.3525 51.9602Z" fill="#F5F5F5"/>
<path d="M89.3525 51.9602L64.0583 67.5501V70.6477L89.3581 55.0698L89.3525 51.9602Z" fill="#E0E0E0"/>
<path d="M50.8449 75.7008L48.6575 74.3374L25.5452 88.5817V91.2967L50.8449 75.7008Z" fill="#F5F5F5"/>
<path d="M50.8449 75.7008L25.5452 91.2966V94.3883L50.8505 78.8104L50.8449 75.7008Z" fill="#E0E0E0"/>
<path d="M89.2297 25.9293L87.0424 24.5658L87.1707 94.6933L89.3581 96.0567L89.2297 25.9293Z" fill="#F0F0F0"/>
<path d="M89.3581 96.0567L87.1708 94.6933L61.9994 110.181L64.1867 111.545L89.3581 96.0567Z" fill="#F5F5F5"/>
<path d="M91.8803 97.5996L61.6757 116.197L61.5306 39.8746L91.7352 21.2708L91.8803 97.5996ZM64.17 111.545L89.3414 96.0567L89.213 25.9293L64.0584 41.4115L64.17 111.545Z" fill="#E0E0E0"/>
<path d="M91.7352 21.2709L89.5534 19.9134L59.3433 38.5112L61.5306 39.8746L91.7352 21.2709Z" fill="#F5F5F5"/>
<path d="M61.5306 39.8746L59.3433 38.5112L59.4883 114.834L61.6757 116.197L61.5306 39.8746Z" fill="#F0F0F0"/>
<path d="M50.7221 49.6699L48.5348 48.3064L48.6631 118.44L50.8505 119.803L50.7221 49.6699Z" fill="#F0F0F0"/>
<path d="M50.8506 119.803L48.6632 118.44L23.4918 133.922L25.6736 135.286L50.8506 119.803Z" fill="#F5F5F5"/>
<path d="M53.3727 121.34L23.1682 139.932L23.0231 63.6092L53.2276 45.0114L53.3727 121.34ZM25.668 135.286L50.845 119.803L50.7222 49.6699L25.5452 65.182L25.668 135.286Z" fill="#E0E0E0"/>
<path d="M53.2276 45.0174L51.0402 43.654L20.8357 62.2518L23.0231 63.6152L53.2276 45.0174Z" fill="#F5F5F5"/>
<path d="M23.0231 63.6152L20.8357 62.2518L20.9808 138.581L23.1681 139.938L23.0231 63.6152Z" fill="#F0F0F0"/>
<path d="M78.6055 184.764L81.0663 186.301L81.0607 183.245L78.6055 184.764Z" fill="#E6E6E6"/>
<path d="M80.9601 153.59L56.9773 168.433L80.9601 153.59Z" fill="#CFCFCF"/>
<path d="M81.0606 183.245V186.301L83.6274 184.71L83.5326 148.83L54.3771 166.842L54.4719 202.752L57.0387 201.161V198.105L78.6054 184.782L81.0606 183.245ZM56.9774 168.433L80.9714 153.59L81.0048 165.239L57.0108 180.082L56.9774 168.433ZM57.0164 183.269L81.0104 168.427V168.463L81.0439 180.07L57.0499 194.912L57.0164 183.269Z" fill="#E6E6E6"/>
<path d="M81.0327 180.07L80.9992 168.457V168.427L57.0164 183.269L57.0443 194.912L81.0327 180.07Z" fill="#E0E0E0"/>
<path d="M80.9936 165.239L80.9601 153.59L56.9773 168.433L57.0052 180.082L80.9936 165.239Z" fill="#E0E0E0"/>
<path d="M54.3771 166.848L28.9155 150.989L29.0104 186.899L54.4719 202.758L54.3771 166.848Z" fill="#E0E0E0"/>
<path d="M54.3771 166.848L83.5381 148.8L58.0822 132.947L28.9155 150.989L54.3771 166.848Z" fill="#E0E0E0"/>
<path d="M78.6055 184.764L81.0663 186.301L81.0607 183.245L78.6055 184.764Z" fill="#E6E6E6"/>
<path d="M80.9601 153.59L56.9773 168.433L80.9601 153.59Z" fill="#CFCFCF"/>
<path opacity="0.8" d="M81.0327 180.07L80.9992 168.457V168.427L57.0164 183.269L57.0443 194.912L81.0327 180.07Z" fill="white"/>
<path opacity="0.8" d="M80.9936 165.239L80.9601 153.59L56.9773 168.433L57.0052 180.082L80.9936 165.239Z" fill="white"/>
<path d="M73.1427 162.764L73.1315 161.155L64.8229 166.292L64.834 167.9L73.1427 162.764Z" fill="#E0E0E0"/>
<path d="M73.1427 177.391L73.1315 175.782L64.8229 180.919L64.834 182.528L73.1427 177.391Z" fill="#E0E0E0"/>
<path d="M54.3771 166.848L28.9155 150.989L29.0104 186.899L54.4719 202.758L54.3771 166.848Z" fill="#EBEBEB"/>
<path d="M54.3771 166.848L83.5381 148.8L58.0822 132.947L28.9155 150.989L54.3771 166.848Z" fill="#F0F0F0"/>
<path opacity="0.1" d="M140.421 52.7675C140.006 51.9877 139.392 51.3509 138.652 50.9317C135.929 49.2513 131.526 49.2513 128.82 50.9317C128.085 51.351 127.479 51.9884 127.073 52.7675C126.393 54.2326 126.984 55.8831 128.853 57.0373C131.576 58.7236 135.979 58.7236 138.685 57.0373C140.544 55.8831 141.118 54.2326 140.421 52.7675Z" fill="black"/>
<path d="M140.7 152.179C140.655 153.238 139.985 154.29 138.685 155.097C135.979 156.784 131.576 156.784 128.853 155.097C127.542 154.29 126.867 153.238 126.806 152.179V154.529C126.806 155.635 127.492 156.742 128.853 157.585C131.576 159.265 135.979 159.265 138.685 157.585C140.041 156.742 140.711 155.635 140.7 154.529V152.179Z" fill="#E0E0E0"/>
<path d="M128.853 155.097C131.576 156.784 135.979 156.784 138.685 155.097C139.986 154.29 140.655 153.238 140.7 152.179C140.719 151.71 140.622 151.244 140.421 150.828C140.006 150.048 139.392 149.411 138.652 148.992C135.929 147.311 131.526 147.311 128.82 148.992C128.084 149.407 127.478 150.043 127.073 150.822C126.878 151.24 126.785 151.705 126.806 152.173C126.867 153.238 127.542 154.284 128.853 155.097Z" fill="#F0F0F0"/>
<path d="M128.507 74.4809H128.301V94.1252H128.507V74.4809Z" fill="#E0E0E0"/>
<path d="M128.898 94.3405C128.898 94.4481 128.868 94.5533 128.812 94.6428C128.757 94.7323 128.677 94.8021 128.585 94.8433C128.492 94.8844 128.39 94.8952 128.291 94.8742C128.193 94.8532 128.102 94.8014 128.031 94.7253C127.96 94.6492 127.912 94.5522 127.892 94.4467C127.873 94.3411 127.883 94.2317 127.921 94.1323C127.96 94.0328 128.025 93.9478 128.108 93.888C128.192 93.8282 128.29 93.7963 128.39 93.7963C128.525 93.7963 128.654 93.8537 128.749 93.9557C128.845 94.0578 128.898 94.1962 128.898 94.3405Z" fill="#F0F0F0"/>
<path d="M135.003 67.4006H132.503V151.402C132.512 151.52 132.55 151.633 132.614 151.73C132.678 151.826 132.765 151.903 132.865 151.952C133.139 152.102 133.442 152.18 133.75 152.18C134.057 152.18 134.36 152.102 134.634 151.952C134.735 151.904 134.822 151.827 134.885 151.73C134.948 151.633 134.984 151.52 134.991 151.402L135.003 67.4006Z" fill="#E0E0E0"/>
<path d="M148.11 71.0185C146.509 65.0385 140.41 52.7735 140.41 52.7735C141.107 54.2386 140.532 55.8891 138.674 57.0432C135.968 58.7296 131.565 58.7296 128.842 57.0432C126.973 55.8891 126.381 54.2386 127.062 52.7735C127.062 52.7735 120.963 65.0684 119.367 71.0185C118.285 74.0085 119.613 77.2377 123.352 79.5519C129.127 83.1399 138.462 83.1399 144.204 79.5519C147.926 77.2317 149.22 73.9846 148.11 71.0185Z" fill="#F0F0F0"/>
<path d="M140.421 52.7675C140.006 51.9877 139.392 51.3509 138.652 50.9317C135.929 49.2513 131.526 49.2513 128.82 50.9317C128.085 51.351 127.479 51.9884 127.073 52.7675C126.393 54.2326 126.984 55.8831 128.853 57.0373C131.576 58.7236 135.979 58.7236 138.685 57.0373C140.544 55.8831 141.118 54.2326 140.421 52.7675Z" fill="#E0E0E0"/>
<path opacity="0.05" d="M50.9901 144.25C54.2321 142.246 59.4605 142.246 62.7081 144.25C65.9556 146.253 65.9054 149.5 62.669 151.503C59.4326 153.507 54.1986 153.507 50.951 151.503C47.7035 149.5 47.7537 146.253 50.9901 144.25Z" fill="black"/>
<path d="M48.1833 131.638L57.0667 131.919L65.95 131.638C66.3351 138.072 65.1633 144.62 63.5451 147.82C63.1638 148.643 62.5483 149.315 61.7874 149.739C59.1648 151.36 54.9295 151.36 52.3014 149.739C51.5316 149.307 50.9158 148.616 50.5492 147.772C48.9589 144.555 47.8039 138.036 48.1833 131.638Z" fill="white"/>
<path d="M50.8059 127.739C47.3239 129.898 47.3072 133.384 50.7668 135.513C54.2264 137.642 59.8455 137.672 63.3274 135.513C66.8093 133.354 66.826 129.868 63.3664 127.739C59.9068 125.61 54.2878 125.58 50.8059 127.739Z" fill="#EBEBEB"/>
<path d="M52.1842 128.6C49.4668 130.28 49.45 133.001 52.1507 134.682C54.8515 136.362 59.2373 136.362 61.9492 134.682C64.6611 133.001 64.6834 130.28 61.9827 128.6C59.282 126.92 54.8961 126.92 52.1842 128.6Z" fill="#E0E0E0"/>
<g opacity="0.15">
<path d="M52.1842 128.6C49.4668 130.28 49.45 133.001 52.1507 134.682C54.8515 136.362 59.2373 136.362 61.9492 134.682C64.6611 133.001 64.6834 130.28 61.9827 128.6C59.282 126.92 54.8961 126.92 52.1842 128.6Z" fill="black"/>
</g>
<path d="M57.8088 131.907C57.0969 132.547 56.2529 132.997 55.3466 133.219C54.4403 133.44 53.4978 133.427 52.5971 133.181C51.7299 132.897 50.9421 132.387 50.3049 131.696C49.6678 131.005 49.2014 130.155 48.9478 129.222C49.9998 128.685 50.963 127.968 51.7992 127.099C50.4655 126.744 49.0657 126.798 47.7592 127.254C47.3981 126.645 47.1818 125.951 47.1293 125.231C47.0767 124.512 47.1896 123.79 47.4579 123.128C48.9738 122.405 50.6789 122.278 52.2735 122.769C51.6138 122.155 50.8437 121.692 50.0107 121.41C49.1776 121.127 48.2994 121.03 47.43 121.125C47.3042 118.396 47.703 115.668 48.6018 113.112C51.9108 113.291 55.1248 114.822 56.2074 115.922C56.2581 117.193 56.134 118.464 55.8391 119.696C56.2665 119.461 56.6317 119.114 56.9009 118.687C57.1701 118.261 57.3346 117.768 57.3792 117.256C59.4493 117.812 60.3366 118.918 60.6602 119.767C60.3614 121.345 59.6845 122.813 58.696 124.025C60.6435 123.397 61.4358 121.071 61.4358 121.071C63.3219 125.933 62.9536 131.434 57.8088 131.907Z" fill="#00B06C"/>
<path opacity="0.2" d="M57.8088 131.907C57.0969 132.547 56.2529 132.997 55.3466 133.219C54.4403 133.44 53.4978 133.427 52.5971 133.181C51.7299 132.897 50.9421 132.387 50.3049 131.696C49.6678 131.005 49.2014 130.155 48.9478 129.222C49.9998 128.685 50.963 127.968 51.7992 127.099C50.4655 126.744 49.0657 126.798 47.7592 127.254C47.3981 126.645 47.1818 125.951 47.1293 125.231C47.0767 124.512 47.1896 123.79 47.4579 123.128C48.9738 122.405 50.6789 122.278 52.2735 122.769C51.6138 122.155 50.8437 121.692 50.0107 121.41C49.1776 121.127 48.2994 121.03 47.43 121.125C47.3042 118.396 47.703 115.668 48.6018 113.112C51.9108 113.291 55.1248 114.822 56.2074 115.922C56.2581 117.193 56.134 118.464 55.8391 119.696C56.2665 119.461 56.6317 119.114 56.9009 118.687C57.1701 118.261 57.3346 117.768 57.3792 117.256C59.4493 117.812 60.3366 118.918 60.6602 119.767C60.3614 121.345 59.6845 122.813 58.696 124.025C60.6435 123.397 61.4358 121.071 61.4358 121.071C63.3219 125.933 62.9536 131.434 57.8088 131.907Z" fill="black"/>
<path opacity="0.3" d="M57.8088 131.907C57.0969 132.547 56.2529 132.997 55.3466 133.219C54.4403 133.44 53.4978 133.427 52.5971 133.181C51.7299 132.897 50.9421 132.387 50.3049 131.696C49.6678 131.005 49.2014 130.155 48.9478 129.222C49.9998 128.685 50.963 127.968 51.7992 127.099C50.4655 126.744 49.0657 126.798 47.7592 127.254C47.3981 126.645 47.1818 125.951 47.1293 125.231C47.0767 124.512 47.1896 123.79 47.4579 123.128C48.9738 122.405 50.6789 122.278 52.2735 122.769C51.6138 122.155 50.8437 121.692 50.0107 121.41C49.1776 121.127 48.2994 121.03 47.43 121.125C47.3042 118.396 47.703 115.668 48.6018 113.112C51.9108 113.291 55.1248 114.822 56.2074 115.922C56.2581 117.193 56.134 118.464 55.8391 119.696C56.2665 119.461 56.6317 119.114 56.9009 118.687C57.1701 118.261 57.3346 117.768 57.3792 117.256C59.4493 117.812 60.3366 118.918 60.6602 119.767C60.3614 121.345 59.6845 122.813 58.696 124.025C60.6435 123.397 61.4358 121.071 61.4358 121.071C63.3219 125.933 62.9536 131.434 57.8088 131.907Z" fill="white"/>
<path d="M57.926 132.433C57.9509 132.432 57.9753 132.425 57.9978 132.413C58.0203 132.401 58.0404 132.385 58.057 132.365C58.0736 132.345 58.0863 132.322 58.0945 132.297C58.1026 132.271 58.1061 132.245 58.1046 132.218C57.7865 127.733 55.3927 120.336 49.6899 114.23C49.6731 114.206 49.6517 114.186 49.6272 114.172C49.6026 114.157 49.5754 114.149 49.5475 114.147C49.5196 114.145 49.4916 114.149 49.4654 114.159C49.4392 114.17 49.4154 114.186 49.3956 114.208C49.3758 114.229 49.3605 114.254 49.3507 114.282C49.3409 114.31 49.3369 114.34 49.3389 114.37C49.3409 114.4 49.3488 114.429 49.3622 114.456C49.3756 114.482 49.3941 114.505 49.4165 114.523C55.0523 120.545 57.4126 127.834 57.7195 132.248C57.7252 132.301 57.7497 132.35 57.7882 132.385C57.8266 132.419 57.876 132.436 57.926 132.433Z" fill="#F5F5F5"/>
<path d="M56.358 134.311C57.0221 134.891 57.8049 135.295 58.6424 135.49C59.4799 135.685 60.3484 135.665 61.1774 135.432C62.0063 135.199 62.7721 134.759 63.4124 134.148C64.0527 133.538 64.5493 132.774 64.8619 131.919C63.9106 131.455 63.0405 130.82 62.2895 130.041C63.5492 129.718 64.8663 129.76 66.1062 130.161C66.4844 129.65 66.7342 129.043 66.8319 128.4C66.9295 127.756 66.8718 127.096 66.6642 126.483C65.2207 125.847 63.6208 125.744 62.1165 126.19C63.4545 125.069 65.1399 124.534 66.8316 124.695C67.1212 122.282 66.9038 119.83 66.1955 117.519C63.0372 117.722 59.9124 119.122 58.8299 120.114C58.707 121.231 58.7504 122.361 58.9583 123.463C58.5756 123.269 58.2505 122.965 58.019 122.585C57.7876 122.205 57.6588 121.764 57.647 121.31C55.6716 121.825 54.7788 122.817 54.4273 123.565C54.6172 124.955 55.1705 126.259 56.0232 127.326C54.2376 126.782 53.6294 124.731 53.6294 124.731C51.5536 129.048 51.5815 133.898 56.358 134.311Z" fill="#00B06C"/>
<path opacity="0.3" d="M56.358 134.311C57.0221 134.891 57.8049 135.295 58.6424 135.49C59.4799 135.685 60.3484 135.665 61.1774 135.432C62.0063 135.199 62.7721 134.759 63.4124 134.148C64.0527 133.538 64.5493 132.774 64.8619 131.919C63.9106 131.455 63.0405 130.82 62.2895 130.041C63.5492 129.718 64.8663 129.76 66.1062 130.161C66.4844 129.65 66.7342 129.043 66.8319 128.4C66.9295 127.756 66.8718 127.096 66.6642 126.483C65.2207 125.847 63.6208 125.744 62.1165 126.19C63.4545 125.069 65.1399 124.534 66.8316 124.695C67.1212 122.282 66.9038 119.83 66.1955 117.519C63.0372 117.722 59.9124 119.122 58.8299 120.114C58.707 121.231 58.7504 122.361 58.9583 123.463C58.5756 123.269 58.2505 122.965 58.019 122.585C57.7876 122.205 57.6588 121.764 57.647 121.31C55.6716 121.825 54.7788 122.817 54.4273 123.565C54.6172 124.955 55.1705 126.259 56.0232 127.326C54.2376 126.782 53.6294 124.731 53.6294 124.731C51.5536 129.048 51.5815 133.898 56.358 134.311Z" fill="white"/>
<path d="M56.2297 134.795C56.2755 134.796 56.32 134.778 56.3549 134.747C56.3898 134.715 56.4127 134.67 56.4194 134.622C56.9774 130.717 59.6112 124.24 65.2805 118.829C65.315 118.789 65.3342 118.736 65.3342 118.682C65.3342 118.628 65.315 118.575 65.2805 118.536C65.244 118.497 65.1949 118.476 65.1438 118.476C65.0926 118.476 65.0436 118.497 65.007 118.536C59.2652 124.019 56.5812 130.603 56.0288 134.574C56.0208 134.627 56.0327 134.681 56.062 134.725C56.0913 134.769 56.1355 134.798 56.1851 134.807L56.2297 134.795Z" fill="white"/>
<path d="M53.049 222.372L42.5195 222.701L31.9845 222.372C31.5325 229.997 32.9219 237.759 34.8359 241.556C35.2903 242.531 36.0208 243.326 36.9228 243.829C40.0309 245.754 45.0529 245.754 48.1386 243.829C49.0542 243.318 49.7875 242.498 50.2255 241.496C52.1283 237.681 53.501 229.955 53.049 222.372Z" fill="white"/>
<path d="M49.9409 217.75C54.0646 220.303 54.0869 224.441 49.9912 226.995C45.8954 229.548 39.2218 229.548 35.0926 226.995C30.9634 224.441 30.9466 220.303 35.0479 217.75C39.1492 215.196 45.8173 215.196 49.9409 217.75Z" fill="#EBEBEB"/>
<path d="M48.3116 218.766C51.5313 220.758 51.548 223.987 48.3451 225.978C45.1422 227.97 39.9751 227.97 36.7275 225.978C33.48 223.987 33.4911 220.758 36.6885 218.766C39.8858 216.775 45.0919 216.775 48.3116 218.766Z" fill="#E0E0E0"/>
<g opacity="0.15">
<path d="M48.3116 218.766C51.5313 220.758 51.548 223.987 48.3451 225.978C45.1422 227.97 39.9751 227.97 36.7275 225.978C33.48 223.987 33.4911 220.758 36.6885 218.766C39.8858 216.775 45.0919 216.775 48.3116 218.766Z" fill="black"/>
</g>
<path d="M59.8343 174.209C36.1025 182.54 35.8849 199.553 41.2361 211.692C42.5865 214.15 46.6711 215.465 50.2255 200.396L43.9871 201.227L51.2411 197.28L53.1327 191.234L47.0728 191.719L54.7621 188.25C56.1828 183.463 57.8767 178.774 59.8343 174.209Z" fill="#00B06C"/>
<path opacity="0.2" d="M59.8343 174.209C36.1025 182.54 35.8849 199.553 41.2361 211.692C42.5865 214.15 46.6711 215.465 50.2255 200.396L43.9871 201.227L51.2411 197.28L53.1327 191.234L47.0728 191.719L54.7621 188.25C56.1828 183.463 57.8767 178.774 59.8343 174.209Z" fill="black"/>
<path opacity="0.2" d="M59.8343 174.209C36.1025 182.54 35.8849 199.553 41.2361 211.692C42.5865 214.15 46.6711 215.465 50.2255 200.396L43.9871 201.227L51.2411 197.28L53.1327 191.234L47.0728 191.719L54.7621 188.25C56.1828 183.463 57.8767 178.774 59.8343 174.209Z" fill="white"/>
<path d="M53.1215 178.467C40.6056 188.633 39.4729 200.318 43.0106 212.499C41.7607 201.771 40.4103 190.923 53.1215 178.467Z" fill="white"/>
<path d="M19.636 191.492C43.0273 195.026 45.862 210.831 42.7651 223.072C41.889 225.596 38.3011 227.551 32.643 214.15L38.5801 213.833L31.2033 211.441L28.5082 206.149L34.2221 205.521L26.5273 203.661C24.4657 199.457 22.1642 195.392 19.636 191.492Z" fill="#00B06C"/>
<path opacity="0.2" d="M19.636 191.492C43.0273 195.026 45.862 210.831 42.7651 223.072C41.889 225.596 38.3011 227.551 32.643 214.15L38.5801 213.833L31.2033 211.441L28.5082 206.149L34.2221 205.521L26.5273 203.661C24.4657 199.457 22.1642 195.392 19.636 191.492Z" fill="white"/>
<path d="M26.5441 194.26C39.7798 201.514 42.6424 212.2 41.2362 224.16C40.734 213.946 40.3155 203.601 26.5441 194.26Z" fill="white"/>
<path opacity="0.1" d="M19.636 191.492C43.0273 195.026 45.862 210.831 42.7651 223.072C41.889 225.596 38.3011 227.551 32.643 214.15L38.5801 213.833L31.2033 211.441L28.5082 206.149L34.2221 205.521L26.5273 203.661C24.4657 199.457 22.1642 195.392 19.636 191.492Z" fill="black"/>
<path d="M66.681 197.418C45.2259 197.794 41.013 211.704 42.5364 223.132C43.0609 225.524 46.102 227.7 52.5804 216.303L47.2738 215.28L54.1707 214.018L57.1504 209.575L52.067 208.319L59.1982 207.566C61.4963 204.022 63.9953 200.633 66.681 197.418Z" fill="#00B06C"/>
<path d="M60.1635 199.086C47.4746 204.032 43.7862 213.307 43.7974 224.25C45.3151 215.125 46.7771 205.85 60.1635 199.086Z" fill="white"/>
<path opacity="0.2" d="M66.681 197.418C45.2259 197.794 41.013 211.704 42.5364 223.132C43.0609 225.524 46.102 227.7 52.5804 216.303L47.2738 215.28L54.1707 214.018L57.1504 209.575L52.067 208.319L59.1982 207.566C61.4963 204.022 63.9953 200.633 66.681 197.418Z" fill="white"/>
<path d="M246.491 62.7901C245.917 61.5334 245.003 60.4914 243.868 59.8001L175.653 18.2092C175.333 18.0787 174.996 18.0079 174.654 17.9999C171.139 17.9222 167.612 21.4683 167.115 23.3281C167.003 23.5631 166.943 23.8233 166.942 24.0876V182.163C166.942 183.397 167.246 184.609 167.825 185.676C168.403 186.743 169.234 187.627 170.235 188.239L238.456 229.901C238.541 229.945 238.628 229.983 238.718 230.015C242.786 231.863 247.121 228.018 247.121 223.993V65.8758C247.133 64.8092 246.918 63.7537 246.491 62.7901Z" fill="#37474F"/>
<path d="M167.138 23.322C167.634 21.4622 171.161 17.94 174.676 17.9938C175.012 18.0038 175.344 18.0746 175.658 18.2031L243.846 59.8C244.85 60.412 245.687 61.2947 246.274 62.3605C246.862 63.4262 247.179 64.6381 247.194 65.8757V224.011C247.194 228.035 242.858 231.881 238.79 230.033C238.701 230.001 238.613 229.963 238.528 229.919L170.257 188.238C169.257 187.627 168.425 186.743 167.847 185.676C167.269 184.609 166.964 183.397 166.965 182.163V24.0934C166.964 23.8252 167.023 23.5606 167.138 23.322Z" fill="#455A64"/>
<path d="M237.652 82.5898C237.657 81.9729 237.51 81.3654 237.226 80.8289C236.942 80.2923 236.531 79.8456 236.034 79.534L172.667 40.9331C172.419 40.7808 172.138 40.7013 171.851 40.7026C171.565 40.7039 171.284 40.786 171.037 40.9406C170.79 41.0952 170.585 41.3168 170.443 41.5832C170.301 41.8496 170.228 42.1513 170.229 42.458V169.964C170.227 170.579 170.378 171.185 170.665 171.718C170.952 172.252 171.366 172.695 171.864 173.001L235.214 211.692C235.462 211.844 235.743 211.924 236.028 211.923C236.314 211.921 236.595 211.84 236.842 211.686C237.089 211.532 237.294 211.311 237.436 211.046C237.578 210.78 237.653 210.479 237.652 210.173V82.5898Z" fill="#00B06C"/>
<path opacity="0.2" d="M237.652 82.5898C237.657 81.9729 237.51 81.3654 237.226 80.8289C236.942 80.2923 236.531 79.8456 236.034 79.534L172.667 40.9331C172.419 40.7808 172.138 40.7013 171.851 40.7026C171.565 40.7039 171.284 40.786 171.037 40.9406C170.79 41.0952 170.585 41.3168 170.443 41.5832C170.301 41.8496 170.228 42.1513 170.229 42.458V169.964C170.227 170.579 170.378 171.185 170.665 171.718C170.952 172.252 171.366 172.695 171.864 173.001L235.214 211.692C235.462 211.844 235.743 211.924 236.028 211.923C236.314 211.921 236.595 211.84 236.842 211.686C237.089 211.532 237.294 211.311 237.436 211.046C237.578 210.78 237.653 210.479 237.652 210.173V82.5898Z" fill="black"/>
<path opacity="0.3" d="M247.194 65.8757V224.011C247.194 228.035 242.858 231.88 238.791 230.033C239.035 230.128 239.298 230.158 239.556 230.121C239.815 230.085 240.061 229.982 240.274 229.822C240.488 229.662 240.662 229.449 240.782 229.202C240.903 228.954 240.966 228.679 240.967 228.4V70.2471C240.96 68.8694 240.571 67.5249 239.851 66.384L246.547 62.796C246.979 63.7563 247.2 64.8097 247.194 65.8757Z" fill="black"/>
<path opacity="0.1" d="M174.654 17.9998C174.99 18.0098 175.322 18.0806 175.636 18.2091L243.846 59.8C244.981 60.4913 245.895 61.5333 246.469 62.79L239.773 66.378C239.215 65.4649 238.464 64.7066 237.58 64.1654L169.403 22.5745C169.21 22.4572 168.997 22.3833 168.776 22.3576C168.555 22.3318 168.332 22.3546 168.12 22.4246C167.908 22.4946 167.711 22.6103 167.542 22.7646C167.373 22.9189 167.236 23.1086 167.138 23.322C167.629 21.4682 171.155 17.94 174.654 17.9998Z" fill="white"/>
<path d="M195.534 48.6892C195.054 48.3902 194.658 48.6234 194.653 49.2154C194.671 49.5392 194.76 49.8539 194.912 50.1343C195.064 50.4147 195.275 50.653 195.529 50.83L208.921 59.1123C209.401 59.4113 209.786 59.1602 209.791 58.5681C209.775 58.2477 209.688 57.936 209.538 57.6585C209.387 57.381 209.178 57.1456 208.926 56.9715L195.534 48.6892Z" fill="#263238"/>
<path d="M212.352 59.0944C211.873 58.8014 211.488 59.0346 211.488 59.6266C211.501 59.9495 211.586 60.2642 211.736 60.5449C211.885 60.8257 212.094 61.0643 212.347 61.2412C212.827 61.5342 213.223 61.295 213.223 60.703C213.207 60.3802 213.119 60.0662 212.968 59.7865C212.817 59.5069 212.606 59.2697 212.352 59.0944Z" fill="#263238"/>
<path d="M203.787 47.4872C202.827 46.8892 202.057 47.3616 202.052 48.5457C202.083 49.1895 202.255 49.8164 202.554 50.3755C202.854 50.9345 203.273 51.4099 203.776 51.7629C204.73 52.3609 205.528 51.8705 205.528 50.6925C205.494 50.0491 205.318 49.4235 205.015 48.8666C204.713 48.3096 204.292 47.837 203.787 47.4872Z" fill="#263238"/>
<path d="M203.782 196.353C201.834 195.157 200.261 196.108 200.255 198.506C200.312 199.821 200.66 201.103 201.269 202.247C201.878 203.39 202.732 204.362 203.759 205.084C205.707 206.28 207.325 205.299 207.33 202.901C207.261 201.588 206.903 200.31 206.286 199.173C205.67 198.035 204.812 197.069 203.782 196.353Z" fill="#263238"/>
<path d="M226.944 86.9493C226.866 86.728 226.777 86.5068 226.682 86.2915C226.293 85.4408 225.735 84.6917 225.047 84.0968C224.81 83.8984 224.56 83.7185 224.299 83.5586L162.378 45.8069C162.276 45.7578 162.17 45.7217 162.06 45.6993C161.876 45.658 161.69 45.632 161.502 45.6215C159.51 45.5797 157.512 46.8175 156.184 48.163C155.513 48.7875 154.991 49.5748 154.661 50.4593C154.615 50.5656 154.578 50.6756 154.549 50.7882C154.52 50.9073 154.505 51.0299 154.505 51.153V194.631C154.504 195.751 154.782 196.851 155.308 197.818C155.438 198.057 155.581 198.287 155.738 198.506C156.217 199.171 156.815 199.728 157.496 200.145L219.434 237.956C219.51 237.997 219.588 238.033 219.668 238.064C219.668 238.064 219.668 238.064 219.696 238.064C223.39 239.738 227.324 236.27 227.324 232.592V89.1021C227.314 88.3664 227.186 87.6379 226.944 86.9493Z" fill="#00B06C"/>
<path d="M154.65 50.4592C155.102 48.7669 158.305 45.5497 161.491 45.6214C161.798 45.6278 162.102 45.6905 162.389 45.8068L224.327 83.5585C225.232 84.1191 225.984 84.9232 226.51 85.8914C227.036 86.8595 227.316 87.958 227.324 89.0781V232.622C227.324 236.282 223.418 239.768 219.696 238.094C219.696 238.094 219.696 238.094 219.668 238.094C219.588 238.063 219.509 238.027 219.433 237.986L157.495 200.175C156.588 199.619 155.833 198.817 155.308 197.849C154.783 196.881 154.506 195.781 154.505 194.661V51.1529C154.503 50.9128 154.552 50.6754 154.65 50.4592Z" fill="#00B06C"/>
<path opacity="0.2" d="M227.296 89.102V232.622C227.296 236.282 223.39 239.768 219.668 238.094C219.668 238.094 219.668 238.094 219.64 238.094C219.863 238.18 220.101 238.207 220.336 238.174C220.571 238.141 220.795 238.048 220.989 237.902C221.183 237.757 221.342 237.564 221.452 237.339C221.562 237.114 221.62 236.864 221.621 236.611V93.0906C221.616 91.8419 221.267 90.6226 220.616 89.5864L226.682 86.3392C227.079 87.1984 227.289 88.1431 227.296 89.102Z" fill="white"/>
<path opacity="0.4" d="M161.485 45.6214C161.792 45.6278 162.096 45.6905 162.384 45.8068L224.322 83.5585C225.354 84.1925 226.184 85.1448 226.704 86.2914L220.639 89.5385C220.133 88.7091 219.45 88.0204 218.647 87.5293L156.709 49.7715C156.533 49.6657 156.338 49.5995 156.137 49.5769C155.937 49.5544 155.734 49.5759 155.541 49.6403C155.348 49.7047 155.17 49.8105 155.017 49.9513C154.863 50.0921 154.738 50.2649 154.65 50.4592C155.124 48.7669 158.299 45.5497 161.485 45.6214Z" fill="white"/>
<path opacity="0.3" d="M154.65 50.4592C155.102 48.7669 158.305 45.5497 161.491 45.6214C161.798 45.6278 162.102 45.6905 162.389 45.8068L224.327 83.5585C225.232 84.1191 225.984 84.9232 226.51 85.8914C227.036 86.8595 227.316 87.958 227.324 89.0781V232.622C227.324 236.282 223.418 239.768 219.696 238.094C219.696 238.094 219.696 238.094 219.668 238.094C219.588 238.063 219.509 238.027 219.433 237.986L157.495 200.175C156.588 199.619 155.833 198.817 155.308 197.849C154.783 196.881 154.506 195.781 154.505 194.661V51.1529C154.503 50.9128 154.552 50.6754 154.65 50.4592Z" fill="white"/>
<path d="M215.265 119.068L160.079 84.916C159.549 84.5871 159.119 84.8502 159.119 85.514L159.03 152.173C159.046 152.532 159.141 152.882 159.308 153.194C159.475 153.506 159.709 153.771 159.99 153.967L215.17 188.113C215.7 188.436 216.13 188.179 216.136 187.515L216.214 120.85C216.198 120.494 216.104 120.146 215.94 119.836C215.775 119.527 215.544 119.263 215.265 119.068Z" fill="#00B06C"/>
<path d="M162.607 62.7661L163.265 63.1727L163.271 60.1528L162.618 59.7462L162.607 62.7661Z" fill="white"/>
<path d="M161.48 62.0664L162.132 62.4731L162.144 60.0272L161.485 59.6266L161.48 62.0664Z" fill="white"/>
<path d="M160.352 61.3668L161.005 61.7734L161.011 59.9614L160.358 59.5548L160.352 61.3668Z" fill="white"/>
<path d="M159.225 60.6731L159.878 61.0737L159.884 59.8538L159.225 59.4472V60.6731Z" fill="white"/>
<path d="M165.051 64.273L169.063 66.7607L169.068 64.2252L165.056 61.7375L165.051 64.273Z" fill="white"/>
<path d="M171.06 67.9926L173.069 69.2365L173.075 66.7009L171.066 65.4631L171.06 67.9926Z" fill="white"/>
<path d="M212.498 93.3179L212.503 91.2727L214.657 92.6063L212.503 91.2727L212.498 93.3179Z" fill="white"/>
<path d="M212.498 93.3179L214.657 94.6514V92.6063L212.503 91.2727L212.498 93.3179Z" fill="#00B06C"/>
<path d="M216.175 93.886V93.0847L212.107 90.5671V93.5571L216.175 96.0747V95.2794L216.694 95.6023V94.179L216.175 93.886ZM214.657 94.6814L212.498 93.3478V91.3026L214.657 92.6362V94.6814Z" fill="white"/>
<path d="M206.276 89.7359L210.288 92.2176L210.299 89.6821L206.281 87.2004L206.276 89.7359Z" fill="white"/>
<path d="M187.114 77.728L191.126 80.2157L191.137 77.6802L187.12 75.1925L187.114 77.728Z" fill="white"/>
<path d="M177.723 185.524L177.717 188.053L188.007 194.422L188.018 191.892L177.723 185.524Z" fill="#00B06C"/>
<path d="M192.733 186.546L182.142 179.986L182.131 182.516L192.728 189.07L192.733 186.546Z" fill="#00B06C"/>
<path d="M160.001 172.762L173.008 180.865L173.013 178.342L160.006 170.239L160.001 172.762Z" fill="#00B06C"/>
<path d="M179.291 178.228L160.018 166.244L160.012 168.768L179.285 180.751L179.291 178.228Z" fill="#00B06C"/>
<path d="M175.848 182.623L199.317 197.143L199.323 194.619L175.859 180.1L175.848 182.623Z" fill="#00B06C"/>
<path d="M175.223 183.981L160.018 174.574L160.012 177.098L175.218 186.504L175.223 183.981Z" fill="#00B06C"/>
<path d="M195.462 190.762L214.216 202.369L214.227 199.84L195.467 188.232L195.462 190.762Z" fill="#00B06C"/>
<path d="M202.052 198.835L214.211 206.358L214.216 203.834L202.063 196.311L202.052 198.835Z" fill="#00B06C"/>
<path d="M160.012 185.781L183.482 200.3L183.487 197.777L160.018 183.251L160.012 185.781Z" fill="#00B06C"/>
<path d="M160.018 189.219L160.012 191.749L175.223 201.155V198.626L160.018 189.219Z" fill="#00B06C"/>
<path d="M186.963 205.885L177.689 200.151V202.68L186.958 208.415L186.963 205.885Z" fill="#00B06C"/>
<path d="M161.418 158.279C161.276 158.167 161.108 158.098 160.932 158.079C160.757 158.06 160.58 158.092 160.419 158.171C159.861 158.506 159.861 159.6 160.419 160.617L160.737 161.215L162.724 164.899L164.722 163.703L165.045 163.505C165.603 163.17 165.603 162.07 165.045 161.053C164.81 160.587 164.468 160.191 164.052 159.905C163.908 159.796 163.741 159.729 163.566 159.71C163.391 159.691 163.214 159.721 163.053 159.798L162.729 159.995L162.411 159.397C162.175 158.939 161.833 158.554 161.418 158.279Z" fill="white"/>
<path d="M169.699 163.523C170.412 164.02 171.006 164.691 171.432 165.481C171.858 166.271 172.103 167.157 172.149 168.068C172.164 168.529 172.048 168.984 171.814 169.372L172.137 171.088L170.91 169.928C170.477 169.944 170.049 169.821 169.682 169.575C168.97 169.077 168.377 168.406 167.952 167.616C167.528 166.826 167.283 165.94 167.238 165.03C167.244 163.356 168.343 162.686 169.699 163.523Z" fill="white"/>
<path d="M190.719 109.883L193.57 115.468L197.716 117.017L199.468 122.829L203.659 126.034L204.144 131.5L207.972 136.051L207.13 140.638L210.221 146.079L208.145 149.339L210.199 155.151L207.091 156.76L207.9 162.369L204.061 162.172L203.553 167.027L199.357 165.042L197.582 168.672L193.442 165.09L190.568 167.141L186.891 162.321L183.203 162.584L180.346 156.993L176.205 155.45L174.453 149.632L170.263 146.432L169.783 140.961L165.955 136.416L166.792 131.823L163.7 126.381L165.776 123.122L163.723 117.31L166.836 115.701L166.022 110.092L169.861 110.295L170.369 105.439L174.565 107.419L176.345 103.789L180.48 107.371L183.353 105.326L187.03 110.146L190.719 109.883Z" fill="#00B06C"/>
<g opacity="0.4">
<path d="M190.719 109.883L193.57 115.468L197.716 117.017L199.468 122.829L203.659 126.034L204.144 131.5L207.972 136.051L207.13 140.638L210.221 146.079L208.145 149.339L210.199 155.151L207.091 156.76L207.9 162.369L204.061 162.172L203.553 167.027L199.357 165.042L197.582 168.672L193.442 165.09L190.568 167.141L186.891 162.321L183.203 162.584L180.346 156.993L176.205 155.45L174.453 149.632L170.263 146.432L169.783 140.961L165.955 136.416L166.792 131.823L163.7 126.381L165.776 123.122L163.723 117.31L166.836 115.701L166.022 110.092L169.861 110.295L170.369 105.439L174.565 107.419L176.345 103.789L180.48 107.371L183.353 105.326L187.03 110.146L190.719 109.883Z" fill="white"/>
</g>
<path d="M187.019 114.403C196.807 120.461 204.713 135.142 204.68 147.198C204.646 159.253 196.689 164.109 186.93 158.057C177.17 152.006 169.236 137.319 169.264 125.263C169.292 113.207 177.226 108.352 187.019 114.403Z" fill="#00B06C"/>
<g opacity="0.2">
<path d="M187.019 114.403C196.807 120.461 204.713 135.142 204.68 147.198C204.646 159.253 196.689 164.109 186.93 158.057C177.17 152.006 169.236 137.319 169.264 125.263C169.292 113.207 177.226 108.352 187.019 114.403Z" fill="white"/>
</g>
<path d="M199.072 133.354C199.502 133.617 199.758 134.484 199.373 134.634C195.852 136.009 188.392 139.304 183.839 144.04C183.679 144.172 183.482 144.244 183.281 144.244C183.079 144.244 182.883 144.172 182.723 144.04C182.238 143.724 181.85 143.263 181.607 142.713C179.516 138.202 177.174 133.831 174.593 129.622C174.124 128.857 174.425 128.133 174.983 128.48C175.029 128.507 175.072 128.54 175.112 128.576C177.924 131.111 180.387 134.06 182.427 137.337C189.324 132.589 195.585 132.714 198.888 133.282C198.953 133.294 199.015 133.319 199.072 133.354Z" fill="white"/>
<path d="M163.751 75.4557C164.788 76.1795 165.652 77.1559 166.27 78.3053C166.889 79.4547 167.246 80.7445 167.311 82.0695C167.311 84.4974 165.698 85.4781 163.728 84.2582C162.687 83.5371 161.819 82.5618 161.196 81.4123C160.573 80.2627 160.214 78.9715 160.146 77.6443C160.174 75.2165 161.775 74.2357 163.751 75.4557Z" fill="white"/>
<path d="M189.843 94.4362L170.569 82.4522L170.564 84.9818L189.837 96.9657L189.843 94.4362Z" fill="white"/>
<path d="M103.849 98.6999H104.407C108.034 98.7478 112.616 101.391 114.859 108.172L123.569 126.244L113.609 130.962L108.168 113.901L103.849 98.6999Z" fill="#FFA8A7"/>
<path d="M110.83 110.702C111.522 112.837 111.567 115.139 111.678 117.393C111.79 119.648 112.03 122.381 112.995 124.39C114.058 123.602 115.33 123.204 116.621 123.254C117.912 123.305 119.154 123.802 120.16 124.671C120.882 125.319 121.437 126.155 121.772 127.099L113.609 130.962L108.168 113.901L105.495 104.495C106.725 105.096 107.831 105.956 108.747 107.022C109.663 108.087 110.371 109.339 110.83 110.702Z" fill="#F28F8F"/>
<path d="M113.52 127.715C113.897 126.708 114.509 125.822 115.296 125.139C116.083 124.457 117.02 124.001 118.017 123.816C120.004 123.475 122.263 124.587 123.552 126.25C124.635 127.655 124.468 129.557 123.781 131.225C123.209 132.522 122.236 133.566 121.026 134.18C119.816 134.794 118.445 134.94 117.147 134.592C114.58 133.826 112.549 130.364 113.52 127.715Z" fill="#FFA8A7"/>
<path d="M81.8642 244.247C81.6426 244.725 81.2977 245.125 80.8705 245.4C80.4432 245.674 79.9516 245.812 79.4536 245.796C79.0116 245.706 78.5996 245.492 78.2588 245.177C77.9179 244.863 77.6603 244.457 77.5118 244.002C77.2177 243.098 77.0834 242.142 77.1156 241.185C77.0561 237.996 77.1268 234.819 77.3277 231.653C79.3698 232.115 81.4512 232.347 83.5382 232.347L82.584 241.167C82.5335 242.234 82.289 243.281 81.8642 244.247Z" fill="#FFA8A7"/>
<path d="M75.3803 239.672C76.1503 237.023 76.9929 234.29 76.8143 231.546L77.3277 231.677C77.1268 234.847 77.0561 238.024 77.1156 241.209C77.0834 242.166 77.2178 243.122 77.5118 244.026C77.6604 244.481 77.918 244.886 78.2588 245.201C78.5996 245.516 79.0117 245.729 79.4537 245.82C79.9516 245.836 80.4433 245.698 80.8705 245.424C81.2977 245.149 81.6426 244.749 81.8642 244.271C82.289 243.305 82.5335 242.258 82.584 241.191L83.5382 232.395H84.1967C83.6387 235.684 84.0348 239.062 84.2301 242.405C84.4254 245.748 84.392 249.228 83.0528 252.248C82.7433 253.064 82.2151 253.763 81.535 254.258C81.1606 254.475 80.7488 254.608 80.3248 254.649C79.9008 254.69 79.4734 254.638 79.0686 254.497C78.2614 254.206 77.528 253.719 76.9259 253.074C75.5608 251.672 74.6513 249.838 74.3312 247.841C73.896 245.096 74.6102 242.316 75.3803 239.672Z" fill="#455A64"/>
<path d="M107.739 237.137L107.231 240.414C104.804 239.17 104.022 237.777 104.022 237.777C103.961 235.265 103.989 232.676 104.022 231.414C104.67 232.945 106.081 233.979 106.963 235.391C107.288 235.936 107.548 236.523 107.739 237.137Z" fill="#455A64"/>
<path d="M108.52 240.055L107.231 240.414L107.739 237.137C108.057 238.076 108.252 239.08 108.52 240.055Z" fill="#455A64"/>
<path opacity="0.2" d="M107.739 237.137L107.231 240.414C104.804 239.17 104.022 237.777 104.022 237.777C103.961 235.265 103.989 232.676 104.022 231.414C104.67 232.945 106.081 233.979 106.963 235.391C107.288 235.936 107.548 236.523 107.739 237.137Z" fill="black"/>
<path opacity="0.3" d="M108.52 240.055L107.231 240.414L107.739 237.137C108.057 238.076 108.252 239.08 108.52 240.055Z" fill="black"/>
<path d="M103.888 227.778C104.145 226.911 104.482 226.074 104.893 225.279C104.928 226.625 105.315 227.935 106.009 229.058C106.879 230.565 108.046 231.863 108.888 233.399C109.909 235.265 110.439 237.46 111.779 239.074C112.439 239.856 113.261 240.463 114.178 240.846C115.095 241.229 116.083 241.378 117.063 241.281C117.799 241.252 118.495 240.918 119.005 240.348C119.209 240.065 119.32 239.719 119.323 239.361C119.983 240.121 120.714 240.806 121.505 241.407C122.386 242.064 123.446 242.758 123.591 243.9C123.615 244.378 123.507 244.853 123.282 245.266C123.057 245.679 122.724 246.013 122.325 246.227C121.516 246.629 120.633 246.833 119.741 246.825C117.832 247.003 115.909 246.827 114.055 246.304C112.194 245.761 110.582 244.506 109.524 242.776C109.07 241.915 108.729 240.992 108.509 240.031C108.258 239.056 108.046 238.052 107.728 237.113C107.532 236.498 107.266 235.912 106.935 235.367C106.054 233.956 104.642 232.921 103.995 231.39C103.961 231.306 103.922 231.229 103.888 231.145C103.558 230.051 103.558 228.873 103.888 227.778Z" fill="#455A64"/>
<path d="M117.074 241.281C116.094 241.378 115.106 241.229 114.189 240.846C113.272 240.463 112.45 239.856 111.79 239.074C110.451 237.46 109.92 235.265 108.899 233.399C108.057 231.863 106.891 230.565 106.02 229.058C105.326 227.935 104.939 226.625 104.904 225.279L105.222 224.645C107.861 225.147 110.752 225.326 113.291 226.247C114.073 229.107 115.07 231.895 116.271 234.583C117.084 236.323 118.119 237.933 119.345 239.367C119.343 239.725 119.231 240.071 119.027 240.354C118.514 240.924 117.813 241.257 117.074 241.281Z" fill="#FFA8A7"/>
<path d="M109.926 123.248C110.071 125.64 110.214 128.032 110.356 130.424C115.406 152.735 113.899 186.068 113.899 186.068L113.743 226.732C113.027 227.235 112.226 227.58 111.384 227.747C110.543 227.915 109.679 227.901 108.843 227.706C108.006 227.512 107.215 227.141 106.513 226.616C105.812 226.09 105.216 225.42 104.759 224.645C103.9 214.652 99.564 198.931 100.853 186.678C99.1065 177.008 97.8063 163.254 97.8063 163.254L93.5599 187.042L84.7156 232.951C80.8096 234.745 77.3444 233.513 76.2173 231.886C77.1212 206.561 76.7362 194.386 80.38 182.677C79.264 151.264 78.9069 137.068 86.0493 126.274L85.96 122.195L109.926 123.248Z" fill="#00B06C"/>
<path opacity="0.3" d="M109.926 123.248C110.071 125.64 110.214 128.032 110.356 130.424C115.406 152.735 113.899 186.068 113.899 186.068L113.743 226.732C113.027 227.235 112.226 227.58 111.384 227.747C110.543 227.915 109.679 227.901 108.843 227.706C108.006 227.512 107.215 227.141 106.513 226.616C105.812 226.09 105.216 225.42 104.759 224.645C103.9 214.652 99.564 198.931 100.853 186.678C99.1065 177.008 97.8063 163.254 97.8063 163.254L93.5599 187.042L84.7156 232.951C80.8096 234.745 77.3444 233.513 76.2173 231.886C77.1212 206.561 76.7362 194.386 80.38 182.677C79.264 151.264 78.9069 137.068 86.0493 126.274L85.96 122.195L109.926 123.248Z" fill="black"/>
<path opacity="0.2" d="M98.766 157.95C101.41 157.436 103.899 156.244 106.02 154.475C105.614 155.734 104.914 156.86 103.987 157.746C103.06 158.633 101.937 159.25 100.725 159.54L98.4926 169.455L97.823 163.32L98.766 157.95Z" fill="black"/>
<path d="M101.11 98.2813L103.671 98.4846C104.163 98.5238 104.641 98.6818 105.068 98.9469C105.495 99.2121 105.861 99.5774 106.137 100.016L112.052 109.404C112.922 110.777 113.349 112.418 113.268 114.075C113.186 115.733 112.6 117.316 111.6 118.583C111.226 119.056 110.948 119.607 110.785 120.201C110.622 120.795 110.576 121.42 110.651 122.034L112.671 143.46C101.043 152.711 85.1844 147.162 79.8945 144.142C80.0954 139.495 81.9312 133.438 84.1298 129.3C84.834 127.984 85.287 126.531 85.4623 125.026C85.6377 123.521 85.5318 121.994 85.1509 120.533L83.4769 114.092L85.8986 98.7597L101.11 98.2813Z" fill="#455A64"/>
<path d="M110.791 76.544C110.992 77.6981 111.84 81.1725 110.992 83.122C110.585 84.0489 110.127 84.611 110.434 85.5858C110.741 86.5605 112.019 87.1226 112.192 88.199C112.337 89.0661 111.701 89.8196 111.31 90.591C111.035 91.1405 110.878 91.7482 110.848 92.3706C110.818 92.993 110.917 93.6148 111.138 94.1914C111.359 94.768 111.696 95.2851 112.125 95.7058C112.554 96.1265 113.065 96.4403 113.62 96.6248C112.875 96.5742 112.149 96.3487 111.495 95.9643C110.84 95.5799 110.272 95.0459 109.831 94.4003C109.436 93.7525 109.185 93.0164 109.096 92.2484C109.007 91.4804 109.083 90.7008 109.318 89.9691C109.491 89.5544 109.617 89.1186 109.692 88.6714C109.759 87.7864 109.206 87.003 108.771 86.2436C107.791 84.598 107.379 82.6371 107.605 80.7001C107.856 78.7566 109.19 77.4171 110.791 76.544Z" fill="#263238"/>
<path d="M110.992 78.7267C110.984 76.8635 110.547 75.031 109.72 73.3926C107.488 68.7581 102.923 65.3853 98.063 65.3076C95.7681 65.2355 93.5149 65.9753 91.6515 67.4126C89.6204 69.0391 88.3035 71.5328 87.5725 74.1341C86.7903 76.6008 86.6933 79.2579 87.2935 81.7825C87.9687 84.2642 89.665 86.5067 91.9528 87.3319C93.4571 87.7855 95.035 87.8855 96.5787 87.625C99.8956 87.2467 103.154 86.4188 106.277 85.1612C107.449 84.6888 108.637 84.324 109.435 83.2536C110.407 81.9707 110.954 80.3787 110.992 78.7267Z" fill="#263238"/>
<path d="M101.11 92.69V98.7777C101.11 98.7777 105.747 101.953 103.794 103.633C100.111 106.809 92.2096 98.7418 92.2096 98.7418V88.5877L101.11 92.69Z" fill="#FFA8A7"/>
<path d="M92.2096 88.5877C93.2977 93.9219 98.5541 97.2049 101.11 97.8687V92.69L92.2096 88.5877Z" fill="#F28F8F"/>
<path d="M86.2501 82.6735C86.5832 82.0021 87.1424 81.492 87.814 81.2468C88.4856 81.0016 89.2192 81.0399 89.8654 81.3538C90.5116 81.6677 91.022 82.2336 91.2927 82.9365C91.5633 83.6393 91.5739 84.4263 91.3224 85.1373C91.5649 85.2435 91.8281 85.2844 92.0889 85.2562C92.3496 85.2281 92.5999 85.1318 92.8178 84.9758C93.2657 84.6432 93.6021 84.1653 93.7776 83.6124C93.9439 82.8686 94.0614 82.1133 94.1291 81.3519C95.5464 81.1127 96.3611 78.6131 96.3611 78.3619C96.7071 78.4337 103.28 78.7566 105.401 74.6723C108.263 75.1925 109.234 78.7865 109.307 78.7686C109.523 80.0345 109.615 81.3213 109.58 82.6077C109.475 85.2499 109.037 87.8648 108.28 90.3817C107.722 92.3731 107.231 94.4063 105.345 95.4408C104.246 95.9996 103.019 96.2072 101.813 96.0388C97.3878 95.5544 93.214 91.9006 91.2108 87.7445C90.8592 88.2004 90.3697 88.5098 89.8274 88.6191C89.2851 88.7283 88.7242 88.6305 88.2422 88.3425C87.4236 87.6818 86.7621 86.8233 86.3115 85.8369C86.0864 85.3464 85.9642 84.809 85.9536 84.2625C85.943 83.716 86.0442 83.1736 86.2501 82.6735Z" fill="#FFA8A7"/>
<path d="M103.47 83.0263L105.758 87.5652L102.806 88.0256L103.47 83.0263Z" fill="#F28F8F"/>
<path d="M99.9267 89.4309L102.108 90.6867C101.908 90.9496 101.632 91.1351 101.324 91.2149C101.016 91.2948 100.692 91.2647 100.401 91.1292C100.152 90.9476 99.9688 90.6796 99.8825 90.3703C99.7961 90.061 99.8117 89.7293 99.9267 89.4309Z" fill="#F28F8F"/>
<path opacity="0.3" d="M99.9267 89.4309L102.108 90.6867C101.908 90.9496 101.632 91.1351 101.324 91.2149C101.016 91.2948 100.692 91.2647 100.401 91.1292C100.152 90.9476 99.9688 90.6796 99.8825 90.3703C99.7961 90.061 99.8117 89.7293 99.9267 89.4309Z" fill="black"/>
<path d="M101.171 91.2429C100.909 91.2853 100.642 91.2458 100.401 91.1292C100.199 90.9999 100.039 90.809 99.9392 90.5809C99.8398 90.3529 99.8063 90.0981 99.843 89.8495C100.188 89.8555 100.517 90.0037 100.762 90.2632C101.007 90.5227 101.15 90.8736 101.16 91.2429H101.171Z" fill="#F28F8F"/>
<path d="M99.218 83.0144C99.1943 83.1912 99.2201 83.3715 99.292 83.5325C99.364 83.6936 99.4789 83.8282 99.6222 83.9193C99.7655 84.0104 99.9308 84.0539 100.097 84.0444C100.264 84.0348 100.424 83.9726 100.557 83.8656C100.69 83.7586 100.791 83.6116 100.847 83.4432C100.902 83.2748 100.91 83.0926 100.868 82.9195C100.827 82.7465 100.739 82.5904 100.615 82.4711C100.491 82.3517 100.337 82.2744 100.172 82.2489C100.063 82.232 99.9511 82.2384 99.8438 82.2677C99.7366 82.297 99.6357 82.3487 99.5471 82.4198C99.4585 82.4909 99.3839 82.58 99.3274 82.682C99.2709 82.784 99.2338 82.897 99.218 83.0144Z" fill="#263238"/>
<path d="M106.254 83.7918C106.232 83.9685 106.259 84.1484 106.331 84.3088C106.404 84.4692 106.519 84.603 106.663 84.6932C106.807 84.7834 106.972 84.826 107.138 84.8157C107.304 84.8053 107.464 84.7425 107.597 84.6351C107.729 84.5277 107.83 84.3805 107.885 84.2121C107.939 84.0437 107.947 83.8617 107.905 83.689C107.864 83.5163 107.775 83.3606 107.651 83.2416C107.527 83.1226 107.373 83.0456 107.209 83.0203C107.099 83.0035 106.987 83.0101 106.879 83.0398C106.771 83.0695 106.67 83.1217 106.582 83.1933C106.493 83.265 106.418 83.3548 106.362 83.4575C106.306 83.5602 106.269 83.6738 106.254 83.7918Z" fill="#263238"/>
<path d="M107.538 80.3533L109.212 82.0037C109.325 81.7713 109.369 81.507 109.337 81.2469C109.305 80.9868 109.199 80.7436 109.033 80.5506C108.826 80.3716 108.576 80.2583 108.312 80.2235C108.048 80.1886 107.78 80.2335 107.538 80.3533Z" fill="#263238"/>
<path d="M100.44 79.1632L98.4089 80.2576C98.3634 79.9983 98.3923 79.7302 98.492 79.4889C98.5916 79.2476 98.7572 79.0444 98.9669 78.9061C99.211 78.8006 99.4773 78.7688 99.737 78.8141C99.9967 78.8594 100.24 78.9802 100.44 79.1632Z" fill="#263238"/>
<path d="M94.0398 80.8616C94.3634 82.1293 94.6815 83.5346 94.1291 84.7127C93.7943 85.4243 93.1693 85.9505 92.8345 86.6622C92.5044 87.4898 92.4187 88.406 92.589 89.2874C92.7583 90.1624 92.8647 91.05 92.907 91.9425C92.8955 92.6072 92.7583 93.2626 92.5039 93.8689C92.2495 94.4753 91.8831 95.0201 91.4269 95.4706C90.9706 95.921 90.4338 96.2677 89.8491 96.4897C89.2643 96.7118 88.6437 96.8045 88.0245 96.7624C88.9731 96.9059 90.1226 95.979 90.6137 95.094C91.0692 94.1783 91.243 93.1318 91.1103 92.104C91.021 91.0814 90.7587 90.0827 90.5913 89.0721C90.3708 88.0672 90.3708 87.0212 90.5913 86.0163C90.8648 84.9937 91.5065 84.013 91.3112 82.9725C91.2051 82.4044 90.8592 81.9081 90.8034 81.334C90.7773 80.9584 90.8746 80.5848 91.0784 80.2779C91.2822 79.9711 91.5797 79.7502 91.9194 79.6536C92.628 79.4862 93.8501 80.132 94.0398 80.8616Z" fill="#263238"/>
<path opacity="0.3" d="M101.645 68.6504C101.135 69.2872 100.518 69.8165 99.8263 70.2112C97.3554 71.7201 94.5375 72.4518 91.6962 72.3221C91.1226 72.3291 90.5535 72.2132 90.0222 71.9813C89.6597 71.7866 89.3469 71.5003 89.1107 71.1471C88.8744 70.7939 88.7219 70.3845 88.6663 69.9541C89.3954 68.5167 90.4342 67.2866 91.6962 66.3661C93.5311 65.1294 95.6675 64.505 97.8342 64.5721C99.1194 64.5968 100.394 64.8245 101.617 65.2478C101.911 65.5822 102.116 65.9954 102.209 66.4438C102.267 66.8334 102.247 67.2319 102.15 67.6126C102.053 67.9932 101.881 68.3471 101.645 68.6504Z" fill="black"/>
<path d="M103.342 62.7063C103.068 60.2724 101.182 58.299 99.0227 57.4678C96.856 56.6817 94.4982 56.7538 92.3769 57.6711C90.2698 58.6013 88.4418 60.1341 87.0927 62.1023C86.1106 63.4957 85.3238 65.194 85.5135 66.9342C85.7256 68.9554 87.2824 70.6238 89.0959 71.2457C90.9546 71.8069 92.9249 71.782 94.7707 71.174C95.9872 70.7913 99.8764 69.1169 100.853 68.0046C102.114 66.5574 103.559 64.6438 103.342 62.7063Z" fill="#263238"/>
<path opacity="0.2" d="M90.6862 115.755C91.9048 117.628 93.6831 118.999 95.7273 119.643C97.7716 120.287 99.9595 120.164 101.93 119.295C101.095 120.164 100.07 120.794 98.9489 121.128C97.8278 121.462 96.6465 121.49 95.5129 121.209C93.2753 120.593 91.3558 118.123 90.6862 115.755Z" fill="black"/>
<path d="M106.065 142.838C106.061 142.852 106.061 142.866 106.065 142.88C106.059 142.898 106.059 142.917 106.065 142.934L106.957 144.028C106.954 144.005 106.954 143.98 106.957 143.957C106.991 144.124 107.225 144.118 107.61 143.885L115.093 139.376C115.672 139.018 116.164 138.518 116.527 137.917L123.033 124.934C123.139 124.719 123.134 124.593 123.033 124.534H123.061L122.202 123.439C122.169 123.409 122.128 123.392 122.085 123.391H122.035H121.99H121.945H121.906H121.867H121.828H121.789H121.75H121.705H121.666H121.627H121.583L114.1 127.9H114.061H114.016L113.977 127.93H113.944H113.91H113.882L113.787 128.02V128.05V128.08L113.759 128.116L113.732 128.151V128.193L113.704 128.235V128.277L113.676 128.319L113.648 128.361V128.403V128.438V128.474L107.142 141.457V141.493C107.139 141.505 107.139 141.517 107.142 141.529V141.565C107.139 141.576 107.139 141.589 107.142 141.6C107.14 141.612 107.14 141.624 107.142 141.636C106.993 141.483 106.794 141.4 106.587 141.404C106.381 141.409 106.185 141.501 106.042 141.66C105.9 141.82 105.822 142.033 105.826 142.254C105.83 142.475 105.916 142.685 106.065 142.838ZM122.86 124.51C122.86 124.51 122.888 124.51 122.911 124.51C122.894 124.508 122.877 124.508 122.86 124.51ZM114.156 129.892C114.217 129.826 114.29 129.766 114.362 129.7C114.29 129.766 114.217 129.808 114.156 129.874V129.892ZM106.963 143.903C106.961 143.889 106.961 143.875 106.963 143.861C106.96 143.883 106.96 143.905 106.963 143.927C106.963 143.927 106.963 143.891 106.963 143.885V143.903Z" fill="#E0E0E0"/>
<path opacity="0.2" d="M106.065 142.838C106.061 142.852 106.061 142.866 106.065 142.88C106.059 142.898 106.059 142.917 106.065 142.934L106.957 144.028C106.954 144.005 106.954 143.98 106.957 143.957C106.991 144.124 107.225 144.118 107.61 143.885L115.093 139.376C115.672 139.018 116.164 138.518 116.527 137.917L123.033 124.934C123.139 124.719 123.134 124.593 123.033 124.534H123.061L122.202 123.439C122.169 123.409 122.128 123.392 122.085 123.391H122.035H121.99H121.945H121.906H121.867H121.828H121.789H121.75H121.705H121.666H121.627H121.583L114.1 127.9H114.061H114.016L113.977 127.93H113.944H113.91H113.882L113.787 128.02V128.05V128.08L113.759 128.116L113.732 128.151V128.193L113.704 128.235V128.277L113.676 128.319L113.648 128.361V128.403V128.438V128.474L107.142 141.457V141.493C107.139 141.505 107.139 141.517 107.142 141.529V141.565C107.139 141.576 107.139 141.589 107.142 141.6C107.14 141.612 107.14 141.624 107.142 141.636C106.993 141.483 106.794 141.4 106.587 141.404C106.381 141.409 106.185 141.501 106.042 141.66C105.9 141.82 105.822 142.033 105.826 142.254C105.83 142.475 105.916 142.685 106.065 142.838ZM122.86 124.51C122.86 124.51 122.888 124.51 122.911 124.51C122.894 124.508 122.877 124.508 122.86 124.51ZM114.156 129.892C114.217 129.826 114.29 129.766 114.362 129.7C114.29 129.766 114.217 129.808 114.156 129.874V129.892ZM106.963 143.903C106.961 143.889 106.961 143.875 106.963 143.861C106.96 143.883 106.96 143.905 106.963 143.927C106.963 143.927 106.963 143.891 106.963 143.885V143.903Z" fill="black"/>
<path opacity="0.15" d="M106.07 142.802C106.068 142.791 106.068 142.778 106.07 142.767C106.068 142.755 106.068 142.742 106.07 142.731V142.695C106.068 142.683 106.068 142.671 106.07 142.659V142.623L112.577 129.64L113.469 130.735L107.047 143.64C107.006 143.714 106.978 143.795 106.963 143.879C106.957 143.903 106.956 143.929 106.961 143.954C106.966 143.979 106.976 144.002 106.991 144.022L106.098 142.928C106.092 142.911 106.092 142.892 106.098 142.874C106.095 142.86 106.095 142.846 106.098 142.832C106.086 142.825 106.077 142.815 106.07 142.802Z" fill="white"/>
<path opacity="0.2" d="M112.677 129.527V129.491V129.449L112.705 129.407L112.733 129.365V129.323L112.761 129.282V129.24L112.789 129.204L112.816 129.168V129.138V129.108L112.911 129.019H112.939H112.973H113.006L113.045 128.989H113.09H113.129L120.612 124.48H120.656H120.695H120.734H120.779H120.818H120.857H120.896H120.935H120.974H121.019H121.064H121.114C121.157 124.48 121.198 124.497 121.231 124.528L122.118 125.622C122.081 125.574 122.009 125.562 121.901 125.586C121.757 125.625 121.619 125.687 121.493 125.771L114.993 129.168C114.844 129.257 114.702 129.359 114.569 129.473C114.426 129.59 114.29 129.716 114.161 129.85C114.035 129.976 113.916 130.109 113.804 130.25C113.713 130.371 113.631 130.499 113.559 130.633L112.666 129.539L112.677 129.527Z" fill="white"/>
<path d="M80.0563 104.704C80.6757 99.9198 83.767 98.9331 85.8707 98.7597C85.8707 98.7597 88.51 100.703 88.51 109.362L88.2868 131.028L89.7711 131.692C93.9454 133.603 98.3064 135.007 102.773 135.878C105.103 133.897 108.001 132.841 110.975 132.888L109.859 135.094C111.952 136.529 116.678 133.94 116.678 133.94C117.024 137.097 115.115 140.375 112.582 142.037C110.049 143.699 85.8819 141.26 80.7762 137.701C77.3947 135.393 78.7506 114.87 80.0563 104.704Z" fill="#FFA8A7"/>
<path d="M121.789 127.434C121.952 128.287 122.043 129.153 122.062 130.023C121.877 132.093 121.059 134.04 119.736 135.561C119.46 135.894 119.116 136.154 118.731 136.32C118.538 136.4 118.328 136.423 118.124 136.388C117.919 136.354 117.726 136.262 117.565 136.123C117.282 135.758 117.138 135.292 117.163 134.819C117.101 134.118 117.136 133.41 117.269 132.72C117.401 132.02 117.766 131.395 118.296 130.962C118.709 130.71 119.147 130.509 119.602 130.364C120.05 130.16 120.451 129.852 120.774 129.461L121.789 127.434Z" fill="#FFA8A7"/>
<path d="M123.418 77.1958L138.641 67.8312C139.974 67.0119 143.105 68.1242 143.105 70.4205C143.104 70.2346 143.058 70.0521 142.971 69.8913C142.884 69.7304 142.759 69.5968 142.609 69.5036C142.459 69.4105 142.289 69.3611 142.115 69.3604C141.942 69.3597 141.771 69.4077 141.62 69.4996L126.393 78.8643C125.893 79.1766 125.491 79.6406 125.238 80.1978L122.28 78.4038C122.548 77.8958 122.942 77.4776 123.418 77.1958Z" fill="#00B06C"/>
<path d="M125.265 80.1978C125.05 80.6393 124.936 81.129 124.931 81.627V93.7425C124.93 93.9282 124.975 94.1108 125.062 94.2719C125.148 94.433 125.272 94.5669 125.422 94.6602C125.572 94.7535 125.742 94.8029 125.915 94.8035C126.089 94.8041 126.259 94.7558 126.409 94.6634C125.971 94.9506 125.47 95.1093 124.956 95.1237C124.442 95.1381 123.934 95.0077 123.482 94.7456C123.03 94.4834 122.65 94.0987 122.381 93.6299C122.111 93.161 121.961 92.6246 121.945 92.0741V79.9586C121.946 79.4115 122.078 78.8737 122.33 78.3978L125.265 80.1978Z" fill="#00B06C"/>
<path opacity="0.4" d="M123.418 77.1958L138.641 67.8312C139.974 67.0119 143.105 68.1242 143.105 70.4205C143.104 70.2346 143.058 70.0521 142.971 69.8913C142.884 69.7304 142.759 69.5968 142.609 69.5036C142.459 69.4105 142.289 69.3611 142.115 69.3604C141.942 69.3597 141.771 69.4077 141.62 69.4996L126.393 78.8643C125.893 79.1766 125.491 79.6406 125.238 80.1978L122.28 78.4038C122.548 77.8958 122.942 77.4776 123.418 77.1958Z" fill="white"/>
<path opacity="0.2" d="M125.265 80.1978C125.05 80.6393 124.936 81.129 124.931 81.627V93.7425C124.93 93.9282 124.975 94.1108 125.062 94.2719C125.148 94.433 125.272 94.5669 125.422 94.6602C125.572 94.7535 125.742 94.8029 125.915 94.8035C126.089 94.8041 126.259 94.7558 126.409 94.6634C125.971 94.9506 125.47 95.1093 124.956 95.1237C124.442 95.1381 123.934 95.0077 123.482 94.7456C123.03 94.4834 122.65 94.0987 122.381 93.6299C122.111 93.161 121.961 92.6246 121.945 92.0741V79.9586C121.946 79.4115 122.078 78.8737 122.33 78.3978L125.265 80.1978Z" fill="white"/>
<path d="M141.648 69.4996L126.421 78.8643C125.968 79.1438 125.591 79.5464 125.33 80.0314C125.068 80.5165 124.931 81.0668 124.931 81.627V93.7425C124.93 93.9282 124.975 94.1108 125.062 94.2719C125.148 94.4329 125.272 94.5669 125.422 94.6602C125.572 94.7535 125.742 94.8029 125.915 94.8035C126.089 94.8041 126.259 94.7557 126.409 94.6634L141.637 85.3406C142.091 85.0613 142.468 84.659 142.73 84.174C142.993 83.689 143.132 83.1385 143.133 82.5778V70.4205C143.132 70.2346 143.086 70.0521 142.999 69.8913C142.912 69.7304 142.787 69.5968 142.637 69.5036C142.487 69.4105 142.317 69.3611 142.143 69.3604C141.97 69.3597 141.799 69.4077 141.648 69.4996Z" fill="#00B06C"/>
<path d="M121.265 87.8044L124.925 88.5399V83.5107L121.136 87.3439C121.102 87.3781 121.078 87.4217 121.066 87.4699C121.054 87.518 121.055 87.5687 121.068 87.6165C121.081 87.6642 121.107 87.707 121.142 87.7402C121.176 87.7734 121.219 87.7956 121.265 87.8044Z" fill="#00B06C"/>
<path d="M124.925 83.5107L121.923 81.6689L118.14 85.5439C118.111 85.573 118.089 85.6088 118.076 85.6486C118.063 85.6883 118.058 85.7309 118.063 85.7728C118.068 85.8148 118.082 85.8549 118.104 85.8899C118.126 85.9249 118.156 85.9539 118.19 85.9745L121.181 87.7685L124.925 83.5107Z" fill="#00B06C"/>
<path opacity="0.2" d="M124.925 83.5107L121.923 81.6689L118.14 85.5439C118.111 85.573 118.089 85.6088 118.076 85.6486C118.063 85.6883 118.058 85.7309 118.063 85.7728C118.068 85.8148 118.082 85.8549 118.104 85.8899C118.126 85.9249 118.156 85.9539 118.19 85.9745L121.181 87.7685L124.925 83.5107Z" fill="white"/>
<path d="M139.333 73.4165C139.706 73.1833 139.969 73.6437 139.628 74.2238C137.179 78.367 135.037 82.7098 133.223 87.2123C133.036 87.7205 132.704 88.1519 132.274 88.4442C132.142 88.5558 131.979 88.6164 131.811 88.6164C131.643 88.6164 131.48 88.5558 131.348 88.4442C130.444 87.5237 129.457 86.7023 128.401 85.9924C128.111 85.7951 128.351 85.0715 128.725 84.8383C128.77 84.8096 128.819 84.7894 128.87 84.7785C129.973 84.544 131.105 84.5097 132.218 84.6768C134.074 80.7013 136.386 76.989 139.098 73.6258C139.164 73.5416 139.243 73.4707 139.333 73.4165Z" fill="white"/>
</svg>
