<svg width="26" height="27" viewBox="0 0 26 27" fill="none" xmlns="http://www.w3.org/2000/svg">
<path d="M10.0608 7.875L9.85172 8.41393C9.51417 9.28398 9.42932 10.2447 9.60847 11.1682C9.88183 12.5774 10.9181 13.6657 12.2275 13.9189L12.3428 13.9411C12.7581 14.0214 13.1832 14.0214 13.5984 13.9411L13.7137 13.9189C15.0231 13.6657 16.0594 12.5774 16.3328 11.1682C16.5119 10.2447 16.4271 9.28398 16.0895 8.41393L15.8804 7.875" stroke="#363853" stroke-width="1.5" stroke-linecap="round"/>
<path d="M21.514 17.0359C20.9215 19.8567 18.896 22.073 16.2987 22.7533C14.1159 23.3251 11.8258 23.3251 9.64302 22.7533C7.04572 22.073 5.02028 19.8567 4.42775 17.0359C3.89833 14.5155 4.02709 11.8854 4.79962 9.43973L4.91439 9.07638C5.76442 6.38537 7.88789 4.39893 10.4707 3.87865L11.178 3.73618C12.3631 3.49745 13.5787 3.49745 14.7638 3.73618L15.4711 3.87864C18.0539 4.39892 20.1774 6.38537 21.0274 9.0764L21.1422 9.43973C21.9147 11.8854 22.0434 14.5155 21.514 17.0359Z" stroke="#363853" stroke-width="1.5"/>
</svg>
