<svg width="24" height="24" viewBox="0 0 24 24" fill="none" xmlns="http://www.w3.org/2000/svg">
<path d="M9.19995 7L8.99875 7.47905C8.67393 8.25243 8.59229 9.10637 8.76468 9.92729C9.02773 11.1799 10.0249 12.1473 11.2849 12.3723L11.3958 12.3921C11.7954 12.4635 12.2045 12.4635 12.6041 12.3921L12.715 12.3723C13.975 12.1473 14.9722 11.1799 15.2352 9.92729C15.4076 9.10637 15.326 8.25243 15.0012 7.47905L14.8 7" stroke="#302F3C" stroke-width="1.5" stroke-linecap="round"/>
<path d="M20.2209 15.143C19.6508 17.6504 17.7018 19.6204 15.2025 20.2251C13.102 20.7334 10.8983 20.7334 8.7979 20.2251C6.29861 19.6204 4.34961 17.6504 3.77943 15.143C3.26999 12.9026 3.39389 10.5648 4.13727 8.39084L4.24771 8.06787C5.06566 5.67585 7.109 3.91013 9.59434 3.44766L10.2749 3.32102C11.4153 3.10881 12.5851 3.10881 13.7255 3.32102L14.406 3.44766C16.8914 3.91013 18.9347 5.67586 19.7527 8.06789L19.8631 8.39084C20.6065 10.5648 20.7304 12.9026 20.2209 15.143Z" stroke="#302F3C" stroke-width="1.5"/>
</svg>
