<svg width="15" height="15" viewBox="0 0 15 15" fill="none" xmlns="http://www.w3.org/2000/svg">
<path d="M1.22803 8.78632L0.497845 8.95759L1.22803 8.78632ZM1.22803 4.84511L0.497845 4.67383L1.22803 4.84511ZM12.4034 4.84511L13.1336 4.67384L12.4034 4.84511ZM12.4034 8.78631L11.6732 8.61504L12.4034 8.78631ZM8.78631 12.4034L8.61504 11.6732L8.78631 12.4034ZM4.84511 12.4034L4.67384 13.1336L4.84511 12.4034ZM4.84511 1.22803L4.67383 0.497845L4.84511 1.22803ZM8.78631 1.22803L8.95759 0.497844L8.78631 1.22803ZM13.4697 14.5303C13.7626 14.8232 14.2374 14.8232 14.5303 14.5303C14.8232 14.2374 14.8232 13.7626 14.5303 13.4697L13.4697 14.5303ZM1.95821 8.61504C1.6806 7.43155 1.6806 6.19988 1.95821 5.01639L0.497845 4.67383C0.167385 6.08263 0.167385 7.54879 0.497845 8.95759L1.95821 8.61504ZM11.6732 5.01639C11.9508 6.19988 11.9508 7.43155 11.6732 8.61504L13.1336 8.95759C13.464 7.54879 13.464 6.08263 13.1336 4.67384L11.6732 5.01639ZM8.61504 11.6732C7.43155 11.9508 6.19988 11.9508 5.01639 11.6732L4.67384 13.1336C6.08263 13.464 7.54879 13.464 8.95759 13.1336L8.61504 11.6732ZM5.01639 1.95821C6.19988 1.6806 7.43155 1.6806 8.61504 1.95821L8.95759 0.497844C7.54879 0.167385 6.08263 0.167385 4.67383 0.497845L5.01639 1.95821ZM5.01639 11.6732C3.49897 11.3173 2.31415 10.1325 1.95821 8.61504L0.497845 8.95759C0.983886 11.0297 2.60177 12.6475 4.67384 13.1336L5.01639 11.6732ZM8.95759 13.1336C11.0297 12.6475 12.6475 11.0297 13.1336 8.95759L11.6732 8.61504C11.3173 10.1325 10.1325 11.3173 8.61504 11.6732L8.95759 13.1336ZM8.61504 1.95821C10.1325 2.31415 11.3173 3.49896 11.6732 5.01639L13.1336 4.67384C12.6475 2.60177 11.0297 0.983885 8.95759 0.497844L8.61504 1.95821ZM4.67383 0.497845C2.60177 0.983885 0.983886 2.60177 0.497845 4.67383L1.95821 5.01639C2.31415 3.49896 3.49896 2.31415 5.01639 1.95821L4.67383 0.497845ZM10.8228 11.8835L13.4697 14.5303L14.5303 13.4697L11.8835 10.8228L10.8228 11.8835Z" fill="#302F3C" fill-opacity="0.4"/>
</svg>
